<?xml version="1.0" encoding="UTF-8"?>
<svg id="uuid-5d7b1063-0e1a-4a75-9982-22f956b18471" data-name="Layer 1" xmlns="http://www.w3.org/2000/svg" viewBox="0 0 2202.77 806.61">
  <defs>
    <style>
      .uuid-205c14d0-9652-4cff-b1dc-06c187196723 {
        fill: #1d1d1b;
      }
    </style>
  </defs>
  <g>
    <path class="uuid-205c14d0-9652-4cff-b1dc-06c187196723" d="m124.68,549.94L473.84,187.15c-.31-.2-.61-.4-.92-.6L113.61,532.77c3.47,5.88,7.16,11.6,11.07,17.17h0Z"/>
    <path class="uuid-205c14d0-9652-4cff-b1dc-06c187196723" d="m185.96,611.67l351.83-365.56c-.19-.25-.38-.5-.58-.74l-367.27,353.89c5.17,4.34,10.52,8.48,16.02,12.41h0Z"/>
    <path class="uuid-205c14d0-9652-4cff-b1dc-06c187196723" d="m224.48,634.35l337.41-350.59c-.21-.4-.42-.8-.63-1.19l-355.07,342.14c5.95,3.45,12.05,6.67,18.29,9.64h0Z"/>
    <path class="uuid-205c14d0-9652-4cff-b1dc-06c187196723" d="m204.52,623.74l346.01-359.52c-.2-.31-.4-.61-.6-.92l-362.57,349.37c5.56,3.91,11.28,7.61,17.16,11.08h0Z"/>
    <path class="uuid-205c14d0-9652-4cff-b1dc-06c187196723" d="m112.64,531.1L454.58,175.82c-.4-.21-.8-.42-1.19-.63L103,512.81c2.97,6.24,6.19,12.35,9.64,18.3h0Z"/>
    <path class="uuid-205c14d0-9652-4cff-b1dc-06c187196723" d="m80.75,438.84L361.21,147.43c-1.31-.14-2.63-.26-3.95-.38L78.53,415.62c.39,7.84,1.13,15.58,2.21,23.22h0Z"/>
    <path class="uuid-205c14d0-9652-4cff-b1dc-06c187196723" d="m79.42,377.51l220.52-229.13c-2.68.36-5.34.76-7.99,1.21l-208.44,200.85c-1.83,8.86-3.2,17.9-4.09,27.07h0Z"/>
    <path class="uuid-205c14d0-9652-4cff-b1dc-06c187196723" d="m102.04,510.77L433.86,165.99c-.53-.22-1.05-.44-1.58-.66L93.96,491.33c2.43,6.61,5.13,13.09,8.08,19.43h0Z"/>
    <path class="uuid-205c14d0-9652-4cff-b1dc-06c187196723" d="m334.61,659.16c5.85,0,11.66-.2,17.42-.59l238.86-248.19c.05-1.83.09-3.67.11-5.51l-263.79,254.18c2.46.07,4.92.11,7.4.11h0Z"/>
    <path class="uuid-205c14d0-9652-4cff-b1dc-06c187196723" d="m86.1,339.23l175.86-182.73c-4.32,1.27-8.59,2.66-12.81,4.15l-152.95,147.38c-4.01,10.1-7.39,20.52-10.1,31.2h0Z"/>
    <path class="uuid-205c14d0-9652-4cff-b1dc-06c187196723" d="m85.83,464.91L387.45,151.52c-.96-.2-1.92-.4-2.88-.59L81.38,443.07c1.17,7.39,2.66,14.68,4.44,21.84h0Z"/>
    <path class="uuid-205c14d0-9652-4cff-b1dc-06c187196723" d="m93.03,488.78L411.56,157.82c-.71-.22-1.42-.44-2.13-.66L86.66,468.17c1.84,6.99,3.97,13.86,6.37,20.6h0Z"/>
    <path class="uuid-205c14d0-9652-4cff-b1dc-06c187196723" d="m386.74,653.85l200.73-208.57c.44-2.65.84-5.31,1.21-7.99l-228.99,220.65c9.17-.89,18.19-2.26,27.05-4.09h0Z"/>
    <path class="uuid-205c14d0-9652-4cff-b1dc-06c187196723" d="m152.76,583.47L508.38,213.97c-.21-.2-.42-.39-.64-.59l-368.64,355.21c4.36,5.14,8.92,10.1,13.66,14.87h0Z"/>
    <path class="uuid-205c14d0-9652-4cff-b1dc-06c187196723" d="m138.07,567.38L491.76,199.89c-.25-.19-.49-.39-.74-.58L125.67,551.34c3.93,5.51,8.06,10.86,12.4,16.03h0Z"/>
    <path class="uuid-205c14d0-9652-4cff-b1dc-06c187196723" d="m429.13,641.16l147.29-153.04c1.49-4.22,2.88-8.5,4.15-12.82l-182.62,175.97c10.68-2.71,21.09-6.1,31.18-10.11h0Z"/>
    <path class="uuid-205c14d0-9652-4cff-b1dc-06c187196723" d="m153.86,584.57c4.77,4.75,9.73,9.31,14.86,13.67l355-368.86c-.19-.21-.39-.42-.59-.64l-369.28,355.83h0Z"/>
    <path class="uuid-205c14d0-9652-4cff-b1dc-06c187196723" d="m78.21,402.61c0,2.48.04,4.95.11,7.4l254.03-263.94c-1.84.02-3.68.05-5.51.11l-248.04,239c-.39,5.76-.59,11.57-.59,17.43h0Z"/>
    <path class="uuid-205c14d0-9652-4cff-b1dc-06c187196723" d="m139.69,235.93c-13.56,15.85-25.21,33.38-34.62,52.23l106.56-110.72c-12.73,6.97-24.8,15-36.1,23.96l-35.84,34.54h0Z"/>
    <path class="uuid-205c14d0-9652-4cff-b1dc-06c187196723" d="m245.94,643.4l325.8-338.52c-.22-.53-.44-1.06-.66-1.58l-344.57,332.02c6.34,2.95,12.82,5.65,19.42,8.09h0Z"/>
    <path class="uuid-205c14d0-9652-4cff-b1dc-06c187196723" d="m501.19,597.64l34.52-35.86c8.95-11.31,16.97-23.39,23.94-36.12l-110.66,106.63c18.84-9.41,36.35-21.08,52.2-34.64h0Z"/>
    <path class="uuid-205c14d0-9652-4cff-b1dc-06c187196723" d="m321.6,658.84l268.42-278.89c-.12-1.32-.24-2.64-.38-3.95l-291.24,280.63c7.63,1.08,15.37,1.82,23.2,2.22h0Z"/>
    <path class="uuid-205c14d0-9652-4cff-b1dc-06c187196723" d="m269.08,650.7l310.83-322.96c-.22-.71-.43-1.42-.66-2.13l-330.76,318.71c6.74,2.4,13.61,4.53,20.59,6.37h0Z"/>
    <path class="uuid-205c14d0-9652-4cff-b1dc-06c187196723" d="m272.34,651.54c7.16,1.79,14.45,3.27,21.83,4.45l291.96-303.36c-.19-.96-.39-1.93-.59-2.89l-313.21,301.8h0Z"/>
  </g>
  <g>
    <path class="uuid-205c14d0-9652-4cff-b1dc-06c187196723" d="m633.11,412.14c0-73.8,57.29-118.31,121.55-118.31,38.36,0,63.93,11.65,80.12,22.5v52.12c-19.58-15.38-42.08-29.29-76.39-29.29-42.57,0-77.04,28.32-77.04,72.99s33.83,72.67,77.69,72.67c32.05,0,53.25-11.98,75.75-29.29v52.12c-15.86,10.68-42.24,22.5-79.63,22.5-64.9,0-122.04-44.51-122.04-117.99Z"/>
    <path class="uuid-205c14d0-9652-4cff-b1dc-06c187196723" d="m855.65,473.48c0-36.58,28.49-56.65,56.97-56.65,17.16,0,29.13,6.96,37.23,15.38l-.16-6.96c-.32-17.8-14.24-26.71-34.8-26.71-18.61,0-34.31,7.61-44.99,14.89v-39.82c9.71-6.8,30.27-15.05,53.57-15.05,46.13,0,72.83,25.73,72.83,65.23v101.48h-44.99v-11.65c-8.25,8.9-21.04,16.51-38.68,16.51-28.49,0-56.97-20.07-56.97-56.65Zm94.04,0c0-13.92-10.68-22.33-24.28-22.33-14.89,0-24.76,9.23-24.76,22.33s9.87,22.33,24.76,22.33c13.6,0,24.28-8.58,24.28-22.33Z"/>
    <path class="uuid-205c14d0-9652-4cff-b1dc-06c187196723" d="m1027.53,363.42h44.99v33.34c5.67-20.56,21.04-36.9,45.97-36.9,3.72,0,8.09.32,11.01.97v46.94c-2.91-.81-6.15-1.29-10.2-1.29-25.25,0-45.16,22.01-45.16,63.77v55.03h-46.61v-161.85Z"/>
    <path class="uuid-205c14d0-9652-4cff-b1dc-06c187196723" d="m1196.18,379.28c10.36-12.62,28.16-20.72,49.2-20.72,44.99,0,78.17,38.68,78.17,84.97s-32.86,86.59-78.5,86.59c-20.56,0-39.01-7.77-50.5-22.01v17.16h-44.99v-226.59h46.61v80.6Zm79.79,64.9c0-22.17-16.35-41.43-40.46-41.43s-40.62,19.42-40.62,41.43,16.35,41.76,40.62,41.76,40.46-19.26,40.46-41.76Z"/>
    <path class="uuid-205c14d0-9652-4cff-b1dc-06c187196723" d="m1338.45,444.18c0-44.99,34.8-85.62,88.21-85.62s88.21,40.62,88.21,85.62-34.8,85.94-88.21,85.94-88.21-40.62-88.21-85.94Zm128.83.16c0-22.01-16.35-41.6-40.62-41.6s-40.62,19.58-40.62,41.6,16.35,41.6,40.62,41.6,40.62-19.58,40.62-41.6Z"/>
    <path class="uuid-205c14d0-9652-4cff-b1dc-06c187196723" d="m1532.34,412.14c0-73.8,57.29-118.31,121.55-118.31,38.36,0,63.93,11.65,80.12,22.5v52.12c-19.58-15.38-42.08-29.29-76.39-29.29-42.57,0-77.04,28.32-77.04,72.99s33.83,72.67,77.69,72.67c32.05,0,53.25-11.98,75.75-29.29v52.12c-15.86,10.68-42.24,22.5-79.63,22.5-64.9,0-122.03-44.51-122.03-117.99Z"/>
    <path class="uuid-205c14d0-9652-4cff-b1dc-06c187196723" d="m1754.88,473.48c0-36.58,28.49-56.65,56.97-56.65,17.16,0,29.13,6.96,37.23,15.38l-.16-6.96c-.32-17.8-14.24-26.71-34.8-26.71-18.61,0-34.31,7.61-44.99,14.89v-39.82c9.71-6.8,30.27-15.05,53.57-15.05,46.13,0,72.83,25.73,72.83,65.23v101.48h-44.99v-11.65c-8.25,8.9-21.04,16.51-38.68,16.51-28.49,0-56.97-20.07-56.97-56.65Zm94.03,0c0-13.92-10.68-22.33-24.28-22.33-14.89,0-24.76,9.23-24.76,22.33s9.87,22.33,24.76,22.33c13.6,0,24.28-8.58,24.28-22.33Z"/>
    <path class="uuid-205c14d0-9652-4cff-b1dc-06c187196723" d="m1926.77,590.01v-226.59h44.99v17.16c11.49-14.24,29.94-22.01,50.5-22.01,45.64,0,78.5,39.65,78.5,86.59s-33.18,84.97-78.17,84.97c-21.04,0-38.84-8.09-49.2-20.72v80.6h-46.61Zm45.32-145.5c0,22.01,16.35,41.43,40.62,41.43s40.46-19.26,40.46-41.43-16.35-41.76-40.46-41.76-40.62,19.26-40.62,41.76Z"/>
  </g>
</svg>