<?xml version="1.0" encoding="UTF-8" standalone="no"?><!DOCTYPE svg PUBLIC "-//W3C//DTD SVG 1.1//EN" "http://www.w3.org/Graphics/SVG/1.1/DTD/svg11.dtd"><svg width="100%" height="100%" viewBox="0 0 750 539" version="1.1" xmlns="http://www.w3.org/2000/svg" xmlns:xlink="http://www.w3.org/1999/xlink" xml:space="preserve" xmlns:serif="http://www.serif.com/" style="fill-rule:evenodd;clip-rule:evenodd;stroke-linecap:round;stroke-linejoin:round;stroke-miterlimit:10;"><g id="Picture-3" serif:id="Picture 3"><path d="M114.637,280.724c-19.043,66.697 2.036,129.06 40.259,169.709c42.378,45.07 99.6,62.677 164.836,46.014c25.852,-6.604 51.658,-15.656 77.568,-19.489c44.558,-6.592 91.019,-2.939 135.526,-15.778c56.292,-16.239 108.631,-74.751 109.642,-138.694c0.35,-22.178 -4.465,-43.025 -10.932,-62.633c-15.904,-48.214 -41.829,-90.134 -71.747,-127.44c-33.725,-42.053 -74.011,-79.455 -125.019,-94.893c-112.549,-34.064 -237.556,76.678 -299.773,193.481c-8.465,15.89 -15.499,32.693 -20.36,49.723" style="fill:#00c49a;fill-rule:nonzero;"/><g opacity="0.7"><path d="M114.637,280.724c-19.043,66.697 2.036,129.06 40.259,169.709c42.378,45.07 99.6,62.677 164.836,46.014c25.852,-6.604 51.658,-15.656 77.568,-19.489c44.558,-6.592 91.019,-2.939 135.526,-15.778c56.292,-16.239 108.631,-74.751 109.642,-138.694c0.35,-22.178 -4.465,-43.025 -10.932,-62.633c-15.904,-48.214 -41.829,-90.134 -71.747,-127.44c-33.725,-42.053 -74.011,-79.455 -125.019,-94.893c-112.549,-34.064 -237.556,76.678 -299.773,193.481c-8.465,15.89 -15.499,32.693 -20.36,49.723" style="fill:#fff;fill-rule:nonzero;"/></g><path d="M143.741,505.013l466.142,-0" style="fill:none;fill-rule:nonzero;stroke:#233239;stroke-width:1px;"/><path d="M475.603,439.68c2.044,0.893 7.042,0.78 7.046,0.78c0.051,-0.002 -1.074,-3.272 -1.169,-3.471c-1.096,-2.294 -4.564,-6.083 -7.387,-5.7c-2.032,0.274 -3.163,2.309 -2.705,4.222c0.47,1.956 2.474,3.407 4.215,4.169" style="fill:#233239;fill-rule:nonzero;"/><path d="M477.328,454.158c2.12,0.309 6.581,-0.984 6.936,-1.089c0.704,2.497 1.629,5.002 2.705,7.486c0.614,1.421 1.276,2.833 1.957,4.24c-0.406,-0.596 -0.775,-1.126 -0.834,-1.195c-1.665,-1.923 -6.01,-4.661 -8.63,-3.548c-1.889,0.802 -2.441,3.063 -1.494,4.788c0.968,1.762 3.287,2.633 5.166,2.907c1.908,0.278 5.732,-0.749 6.742,-1.034c0.267,0.537 0.528,1.077 0.797,1.613c1.292,2.571 2.592,5.133 3.79,7.684c0.422,0.898 0.806,1.798 1.193,2.7c-0.362,-0.531 -0.671,-0.972 -0.725,-1.036c-1.664,-1.922 -6.009,-4.66 -8.631,-3.548c-1.887,0.803 -2.441,3.063 -1.493,4.788c0.969,1.762 3.286,2.634 5.166,2.907c1.82,0.266 5.36,-0.651 6.56,-0.983c0.367,0.933 0.738,1.868 1.052,2.789c0.201,0.633 0.439,1.23 0.605,1.877c0.178,0.638 0.354,1.27 0.529,1.895c0.292,1.216 0.601,2.47 0.855,3.664c0.183,0.83 0.343,1.622 0.507,2.422c-0.41,-0.9 -1.251,-2.643 -1.338,-2.782c-1.353,-2.152 -5.234,-5.517 -7.994,-4.813c-1.987,0.506 -2.876,2.657 -2.2,4.506c0.69,1.887 2.849,3.099 4.666,3.655c2,0.611 6.427,0.053 6.979,-0.021c0.266,1.323 0.511,2.612 0.723,3.832c0.475,2.693 0.833,5.108 1.106,7.151l1.866,-0c-0.325,-2.113 -0.75,-4.632 -1.314,-7.46c-0.263,-1.344 -0.572,-2.775 -0.903,-4.243c0.333,-0.131 2.22,-0.896 3.894,-1.831c1.457,1.578 5.192,3.426 5.675,3.661c-0.507,1.249 -1.014,2.46 -1.511,3.595c-1.032,2.377 -2.012,4.485 -2.879,6.278l2.018,-0c0.744,-1.653 1.564,-3.536 2.416,-5.621c0.522,-1.267 1.054,-2.632 1.586,-4.038c0.536,0.112 4.919,1.003 6.962,0.542c1.852,-0.419 4.096,-1.467 4.925,-3.298c0.813,-1.793 0.086,-4.005 -1.86,-4.659c-2.698,-0.907 -6.819,2.16 -8.328,4.206c-0.09,0.121 -0.91,1.539 -1.412,2.441c0.214,-0.575 0.429,-1.132 0.642,-1.727c0.432,-1.174 0.827,-2.359 1.257,-3.631c0.186,-0.623 0.373,-1.252 0.564,-1.886c0.201,-0.625 0.335,-1.311 0.507,-1.972c0.368,-1.541 0.665,-3.122 0.928,-4.719c1.029,0.374 4.703,1.653 6.606,1.519c1.895,-0.134 4.271,-0.83 5.369,-2.514c1.074,-1.65 0.691,-3.946 -1.132,-4.886c-2.532,-1.306 -7.07,1.101 -8.871,2.895c-0.113,0.111 -1.262,1.544 -1.877,2.343c0.151,-0.962 0.306,-1.921 0.427,-2.9c0.351,-2.823 0.617,-5.692 0.897,-8.552c0.085,-0.877 0.18,-1.75 0.272,-2.623c0.365,0.137 4.699,1.751 6.83,1.601c1.895,-0.133 4.272,-0.829 5.369,-2.514c1.074,-1.648 0.691,-3.945 -1.133,-4.884c-2.53,-1.306 -7.068,1.099 -8.869,2.894c-0.137,0.135 -1.787,2.198 -2.181,2.744c0.204,-1.924 0.424,-3.838 0.718,-5.718c0.402,-2.593 0.94,-5.115 1.642,-7.52c0.169,0.065 4.686,1.769 6.868,1.615c1.895,-0.133 4.272,-0.829 5.369,-2.514c1.074,-1.648 0.691,-3.945 -1.133,-4.886c-2.531,-1.305 -7.068,1.101 -8.87,2.896c-0.141,0.14 -1.916,2.361 -2.208,2.787c0.042,-0.143 0.07,-0.295 0.113,-0.438c0.783,-2.557 1.86,-4.937 2.98,-7.116c0.647,-1.268 1.338,-2.443 2.034,-3.57c0.809,0.403 4.525,2.208 6.504,2.286c1.898,0.076 4.337,-0.355 5.612,-1.908c1.249,-1.522 1.12,-3.845 -0.589,-4.981c-2.372,-1.575 -7.146,0.319 -9.135,1.903c-0.107,0.086 -1.11,1.085 -1.829,1.822c0.321,-0.505 0.645,-1.032 0.964,-1.508c1.191,-1.794 2.392,-3.363 3.467,-4.745c0.618,-0.781 1.192,-1.474 1.736,-2.117c1,-0.018 5.029,-0.14 6.791,-0.967c1.719,-0.808 3.686,-2.313 4.101,-4.281c0.407,-1.926 -0.778,-3.929 -2.817,-4.149c-2.832,-0.305 -6.197,3.576 -7.231,5.899c-0.089,0.201 -1.127,3.501 -1.075,3.501c0,-0 0.049,-0.001 0.061,-0.001c-0.537,0.609 -1.104,1.267 -1.71,1.999c-1.107,1.36 -2.346,2.907 -3.58,4.683c-1.24,1.771 -2.535,3.73 -3.714,5.915c-1.184,2.191 -2.319,4.555 -3.172,7.141c-0.01,0.029 -0.016,0.062 -0.026,0.09c0.015,-0.834 -0.022,-3.167 -0.045,-3.346c-0.327,-2.521 -2.44,-7.203 -5.241,-7.72c-2.017,-0.373 -3.726,1.207 -3.887,3.169c-0.163,2.004 1.289,4.009 2.705,5.275c1.598,1.427 6.032,2.808 6.386,2.917c-0.792,2.471 -1.4,5.071 -1.874,7.736c-0.272,1.524 -0.498,3.066 -0.706,4.617c-0.01,-0.722 -0.025,-1.367 -0.037,-1.457c-0.327,-2.522 -2.44,-7.202 -5.242,-7.72c-2.017,-0.373 -3.724,1.207 -3.885,3.169c-0.165,2.003 1.288,4.009 2.705,5.274c1.437,1.284 5.194,2.538 6.192,2.857c-0.074,0.595 -0.153,1.189 -0.224,1.785c-0.342,2.857 -0.67,5.711 -1.078,8.5c-0.143,0.983 -0.32,1.945 -0.494,2.909c-0.011,-0.641 -0.025,-1.181 -0.035,-1.263c-0.327,-2.522 -2.44,-7.202 -5.24,-7.72c-2.018,-0.373 -3.726,1.208 -3.887,3.17c-0.164,2.003 1.288,4.009 2.705,5.274c1.371,1.225 4.829,2.414 6.013,2.799c-0.207,0.98 -0.414,1.965 -0.66,2.906c-0.182,0.639 -0.313,1.268 -0.531,1.9c-0.203,0.629 -0.404,1.254 -0.604,1.871c-0.429,1.176 -0.862,2.393 -1.308,3.53c-0.305,0.792 -0.61,1.542 -0.914,2.298c0.154,-0.977 0.416,-2.896 0.419,-3.057c0.039,-1.689 -0.561,-4.435 -1.755,-6.366c0.007,-0.25 -0.006,-0.498 -0.046,-0.745c-0.313,-1.943 -2.138,-3.388 -4.121,-2.86c-2.752,0.733 -4.497,5.563 -4.627,8.103c-0.008,0.15 0.09,1.785 0.169,2.815c-0.139,-0.598 -0.266,-1.182 -0.416,-1.796c-0.289,-1.217 -0.613,-2.423 -0.957,-3.723c-0.187,-0.62 -0.377,-1.248 -0.569,-1.882c-0.177,-0.633 -0.444,-1.279 -0.666,-1.925c-0.544,-1.488 -1.168,-2.97 -1.828,-4.448c1.065,-0.255 4.833,-1.216 6.347,-2.378c1.507,-1.156 3.105,-3.048 3.091,-5.057c-0.015,-1.969 -1.6,-3.673 -3.64,-3.451c-2.83,0.307 -5.288,4.818 -5.802,7.307c-0.031,0.156 -0.199,1.984 -0.273,2.99c-0.404,-0.885 -0.804,-1.771 -1.242,-2.653c-1.265,-2.549 -2.624,-5.09 -3.97,-7.629c-0.413,-0.778 -0.815,-1.557 -1.22,-2.337c0.38,-0.087 4.885,-1.132 6.58,-2.433c1.507,-1.156 3.106,-3.048 3.091,-5.058c-0.014,-1.968 -1.6,-3.672 -3.639,-3.45c-2.832,0.307 -5.288,4.818 -5.802,7.307c-0.039,0.189 -0.277,2.819 -0.304,3.492c-0.892,-1.717 -1.764,-3.436 -2.556,-5.166c-1.095,-2.384 -2.039,-4.784 -2.78,-7.177c0.177,-0.04 4.884,-1.11 6.62,-2.442c1.507,-1.156 3.106,-3.048 3.091,-5.058c-0.014,-1.968 -1.599,-3.671 -3.639,-3.45c-2.832,0.307 -5.288,4.817 -5.802,7.308c-0.041,0.195 -0.295,3.027 -0.304,3.542c-0.044,-0.142 -0.105,-0.284 -0.147,-0.426c-0.759,-2.566 -1.173,-5.146 -1.441,-7.58c-0.159,-1.414 -0.231,-2.774 -0.272,-4.101c0.897,-0.109 4.991,-0.653 6.687,-1.681c1.624,-0.983 3.421,-2.688 3.627,-4.687c0.201,-1.958 -1.187,-3.826 -3.239,-3.83c-2.847,-0.004 -5.785,4.208 -6.569,6.627c-0.043,0.132 -0.328,1.517 -0.522,2.529c-0.009,-0.598 -0.03,-1.216 -0.028,-1.789c0.004,-2.154 0.14,-4.126 0.275,-5.87c0.085,-0.993 0.181,-1.888 0.281,-2.725c0.823,-0.566 4.117,-2.89 5.13,-4.553c0.988,-1.622 1.797,-3.961 1.059,-5.832c-0.724,-1.831 -2.817,-2.848 -4.639,-1.906c-2.53,1.308 -3.196,6.4 -2.777,8.909c0.037,0.216 0.992,3.542 1.035,3.513c-0,-0 0.04,-0.028 0.049,-0.035c-0.11,0.803 -0.22,1.666 -0.321,2.61c-0.174,1.746 -0.353,3.72 -0.404,5.882c-0.056,2.16 -0.057,4.509 0.166,6.983c0.221,2.479 0.579,5.077 1.294,7.705c0.008,0.031 0.021,0.061 0.029,0.089c-0.448,-0.703 -1.766,-2.629 -1.885,-2.765c-1.664,-1.924 -6.009,-4.661 -8.629,-3.548c-1.889,0.801 -2.443,3.062 -1.494,4.787c0.969,1.762 3.287,2.633 5.165,2.907" style="fill:#233239;fill-rule:nonzero;"/><path d="M526.161,440.779c0.044,0.028 0.909,-3.322 0.939,-3.54c0.35,-2.518 -0.451,-7.591 -3.016,-8.83c-1.848,-0.892 -3.912,0.182 -4.586,2.031c-0.687,1.889 0.185,4.207 1.217,5.801c1.212,1.873 5.443,4.536 5.446,4.538" style="fill:#233239;fill-rule:nonzero;"/><path d="M201.008,455.346c1.554,0.678 5.354,0.592 5.356,0.592c0.04,-0.001 -0.816,-2.487 -0.888,-2.637c-0.834,-1.745 -3.471,-4.625 -5.616,-4.335c-1.545,0.209 -2.404,1.756 -2.055,3.211c0.355,1.486 1.88,2.59 3.203,3.169" style="fill:#233239;fill-rule:nonzero;"/><path d="M202.32,466.352c1.611,0.235 5.002,-0.748 5.273,-0.828c0.534,1.899 1.238,3.803 2.056,5.691c0.466,1.08 0.969,2.153 1.488,3.223c-0.31,-0.453 -0.589,-0.856 -0.634,-0.908c-1.265,-1.461 -4.568,-3.543 -6.561,-2.696c-1.436,0.609 -1.856,2.328 -1.136,3.639c0.736,1.339 2.499,2.002 3.927,2.21c1.451,0.211 4.358,-0.57 5.125,-0.787c0.203,0.409 0.402,0.819 0.606,1.226c0.982,1.956 1.971,3.903 2.882,5.842c0.321,0.683 0.612,1.368 0.907,2.052c-0.275,-0.402 -0.511,-0.738 -0.551,-0.786c-1.265,-1.462 -4.568,-3.544 -6.561,-2.697c-1.436,0.61 -1.857,2.328 -1.136,3.639c0.737,1.34 2.499,2.002 3.928,2.21c1.383,0.203 4.074,-0.494 4.986,-0.747c0.28,0.709 0.562,1.42 0.801,2.12c0.153,0.482 0.334,0.935 0.459,1.427c0.136,0.485 0.269,0.966 0.402,1.44c0.222,0.926 0.457,1.879 0.65,2.786c0.14,0.631 0.261,1.234 0.385,1.841c-0.312,-0.684 -0.951,-2.01 -1.017,-2.114c-1.028,-1.637 -3.978,-4.195 -6.076,-3.66c-1.511,0.385 -2.188,2.021 -1.672,3.426c0.524,1.435 2.165,2.357 3.545,2.778c1.521,0.466 4.887,0.041 5.307,-0.015c0.202,1.005 0.389,1.986 0.549,2.914c0.361,2.047 0.634,3.882 0.84,5.434l1.42,0c-0.247,-1.605 -0.57,-3.521 -0.999,-5.67c-0.2,-1.022 -0.436,-2.111 -0.686,-3.225c0.253,-0.101 1.688,-0.682 2.96,-1.393c1.107,1.201 3.947,2.604 4.315,2.784c-0.387,0.949 -0.772,1.87 -1.15,2.733c-0.784,1.807 -1.531,3.408 -2.188,4.771l1.534,0c0.566,-1.255 1.188,-2.687 1.836,-4.272c0.397,-0.963 0.802,-2.001 1.206,-3.07c0.408,0.086 3.74,0.763 5.293,0.412c1.408,-0.318 3.113,-1.115 3.744,-2.507c0.617,-1.364 0.065,-3.045 -1.414,-3.541c-2.052,-0.69 -5.184,1.641 -6.332,3.196c-0.069,0.093 -0.691,1.17 -1.074,1.856c0.164,-0.437 0.327,-0.86 0.49,-1.313c0.327,-0.893 0.628,-1.793 0.954,-2.761c0.143,-0.472 0.285,-0.951 0.429,-1.432c0.154,-0.476 0.255,-0.997 0.386,-1.5c0.28,-1.171 0.505,-2.373 0.706,-3.587c0.782,0.284 3.574,1.256 5.022,1.154c1.441,-0.102 3.246,-0.63 4.081,-1.911c0.816,-1.253 0.525,-2.999 -0.861,-3.714c-1.925,-0.993 -5.373,0.837 -6.744,2.201c-0.085,0.084 -0.959,1.173 -1.427,1.781c0.115,-0.731 0.234,-1.46 0.325,-2.204c0.267,-2.147 0.469,-4.328 0.682,-6.502c0.064,-0.667 0.137,-1.33 0.207,-1.994c0.278,0.105 3.572,1.331 5.193,1.217c1.44,-0.1 3.247,-0.63 4.08,-1.911c0.817,-1.253 0.526,-2.999 -0.86,-3.714c-1.924,-0.992 -5.374,0.837 -6.744,2.201c-0.103,0.103 -1.357,1.672 -1.657,2.086c0.155,-1.462 0.323,-2.918 0.547,-4.347c0.305,-1.971 0.714,-3.889 1.247,-5.716c0.129,0.048 3.562,1.343 5.221,1.228c1.441,-0.102 3.248,-0.631 4.082,-1.912c0.816,-1.254 0.526,-3 -0.861,-3.714c-1.924,-0.992 -5.373,0.837 -6.744,2.2c-0.107,0.108 -1.456,1.797 -1.678,2.12c0.032,-0.108 0.053,-0.225 0.087,-0.333c0.594,-1.944 1.414,-3.753 2.264,-5.41c0.492,-0.963 1.017,-1.857 1.547,-2.714c0.615,0.306 3.44,1.678 4.944,1.738c1.443,0.058 3.297,-0.269 4.266,-1.451c0.95,-1.157 0.852,-2.923 -0.447,-3.786c-1.804,-1.197 -5.433,0.241 -6.944,1.446c-0.082,0.066 -0.845,0.825 -1.391,1.385c0.245,-0.383 0.489,-0.784 0.732,-1.146c0.906,-1.364 1.819,-2.556 2.637,-3.608c0.469,-0.592 0.905,-1.119 1.319,-1.609c0.76,-0.013 3.823,-0.106 5.163,-0.735c1.305,-0.613 2.8,-1.758 3.117,-3.253c0.31,-1.465 -0.592,-2.988 -2.142,-3.154c-2.152,-0.232 -4.71,2.717 -5.497,4.484c-0.067,0.152 -0.856,2.661 -0.817,2.66l0.046,0c-0.407,0.462 -0.838,0.963 -1.299,1.52c-0.842,1.034 -1.784,2.211 -2.722,3.56c-0.942,1.346 -1.927,2.835 -2.824,4.497c-0.9,1.665 -1.762,3.462 -2.411,5.429c-0.007,0.021 -0.011,0.046 -0.02,0.068c0.012,-0.635 -0.016,-2.408 -0.034,-2.544c-0.249,-1.917 -1.854,-5.475 -3.984,-5.869c-1.534,-0.283 -2.833,0.918 -2.955,2.41c-0.125,1.522 0.98,3.046 2.056,4.009c1.215,1.084 4.586,2.135 4.855,2.218c-0.601,1.878 -1.065,3.855 -1.424,5.882c-0.207,1.157 -0.379,2.33 -0.536,3.508c-0.009,-0.549 -0.02,-1.038 -0.029,-1.107c-0.249,-1.917 -1.856,-5.475 -3.985,-5.869c-1.533,-0.284 -2.832,0.919 -2.954,2.409c-0.125,1.524 0.98,3.048 2.056,4.01c1.093,0.975 3.949,1.93 4.708,2.171c-0.056,0.453 -0.117,0.905 -0.171,1.358c-0.26,2.172 -0.508,4.341 -0.819,6.461c-0.109,0.748 -0.244,1.479 -0.375,2.212c-0.008,-0.487 -0.019,-0.898 -0.027,-0.959c-0.248,-1.918 -1.855,-5.477 -3.983,-5.869c-1.535,-0.285 -2.833,0.917 -2.956,2.41c-0.125,1.521 0.98,3.046 2.057,4.009c1.042,0.931 3.671,1.834 4.571,2.127c-0.157,0.746 -0.314,1.493 -0.501,2.21c-0.139,0.486 -0.238,0.963 -0.405,1.444c-0.154,0.478 -0.307,0.953 -0.459,1.423c-0.325,0.893 -0.655,1.819 -0.994,2.682c-0.232,0.603 -0.463,1.173 -0.694,1.748c0.116,-0.743 0.315,-2.201 0.317,-2.325c0.031,-1.283 -0.426,-3.371 -1.334,-4.839c0.006,-0.19 -0.005,-0.378 -0.035,-0.567c-0.238,-1.477 -1.625,-2.575 -3.133,-2.173c-2.092,0.557 -3.418,4.229 -3.517,6.159c-0.006,0.115 0.069,1.358 0.129,2.141c-0.107,-0.455 -0.202,-0.899 -0.317,-1.366c-0.219,-0.925 -0.465,-1.841 -0.727,-2.829c-0.143,-0.472 -0.287,-0.95 -0.433,-1.433c-0.134,-0.48 -0.337,-0.97 -0.506,-1.462c-0.413,-1.131 -0.887,-2.258 -1.391,-3.382c0.811,-0.194 3.676,-0.924 4.827,-1.808c1.145,-0.878 2.36,-2.316 2.349,-3.845c-0.011,-1.496 -1.216,-2.791 -2.767,-2.622c-2.153,0.233 -4.019,3.662 -4.41,5.556c-0.024,0.118 -0.152,1.507 -0.208,2.272c-0.307,-0.673 -0.611,-1.347 -0.945,-2.018c-0.961,-1.938 -1.995,-3.868 -3.018,-5.799c-0.314,-0.591 -0.619,-1.184 -0.927,-1.777c0.288,-0.065 3.714,-0.86 5.002,-1.849c1.146,-0.878 2.36,-2.317 2.35,-3.845c-0.01,-1.496 -1.217,-2.791 -2.767,-2.623c-2.152,0.234 -4.019,3.662 -4.411,5.555c-0.029,0.143 -0.209,2.143 -0.231,2.654c-0.677,-1.304 -1.34,-2.611 -1.942,-3.926c-0.833,-1.813 -1.55,-3.638 -2.113,-5.456c0.134,-0.032 3.712,-0.845 5.032,-1.857c1.145,-0.879 2.361,-2.318 2.35,-3.846c-0.01,-1.496 -1.216,-2.791 -2.767,-2.623c-2.152,0.234 -4.02,3.663 -4.411,5.556c-0.031,0.149 -0.224,2.302 -0.231,2.693c-0.033,-0.107 -0.079,-0.216 -0.112,-0.324c-0.576,-1.951 -0.891,-3.911 -1.095,-5.762c-0.12,-1.075 -0.176,-2.109 -0.207,-3.117c0.682,-0.083 3.794,-0.498 5.084,-1.278c1.235,-0.748 2.6,-2.043 2.757,-3.564c0.154,-1.488 -0.902,-2.908 -2.462,-2.911c-2.165,-0.004 -4.398,3.199 -4.994,5.038c-0.032,0.099 -0.25,1.153 -0.396,1.921c-0.007,-0.454 -0.023,-0.924 -0.022,-1.359c0.003,-1.637 0.106,-3.136 0.209,-4.463c0.064,-0.755 0.137,-1.435 0.214,-2.071c0.626,-0.431 3.129,-2.197 3.9,-3.461c0.751,-1.233 1.365,-3.012 0.804,-4.433c-0.549,-1.392 -2.141,-2.165 -3.526,-1.45c-1.924,0.995 -2.43,4.866 -2.111,6.773c0.028,0.165 0.753,2.693 0.787,2.671c-0,-0 0.03,-0.022 0.037,-0.027c-0.084,0.61 -0.168,1.266 -0.244,1.985c-0.133,1.326 -0.269,2.827 -0.307,4.471c-0.043,1.642 -0.043,3.428 0.127,5.309c0.166,1.884 0.439,3.858 0.983,5.857c0.006,0.023 0.015,0.045 0.022,0.068c-0.341,-0.536 -1.344,-2 -1.434,-2.104c-1.264,-1.461 -4.568,-3.542 -6.56,-2.696c-1.436,0.61 -1.856,2.328 -1.135,3.639c0.737,1.34 2.499,2.002 3.927,2.21" style="fill:#233239;fill-rule:nonzero;"/><path d="M239.443,456.181c0.034,0.021 0.691,-2.525 0.714,-2.69c0.267,-1.915 -0.344,-5.771 -2.293,-6.713c-1.404,-0.679 -2.974,0.138 -3.486,1.544c-0.523,1.436 0.14,3.198 0.925,4.41c0.922,1.423 4.138,3.447 4.14,3.449" style="fill:#233239;fill-rule:nonzero;"/><path d="M209.098,27.241l0,17.077c-0.565,-0.163 -1.163,-0.239 -1.772,-0.239l-4.75,-0l0,-16.838c0,-2.217 -1.794,-4.011 -4.011,-4.011l-14.425,0c-2.217,0 -4.011,1.794 -4.011,4.011l-0,16.838l-5.294,-0c-0.424,-0 -0.837,0.044 -1.228,0.12l-0,-16.958c-0,-5.816 4.729,-10.533 10.533,-10.533l14.425,0c5.816,0 10.533,4.717 10.533,10.533Z" style="fill:none;fill-rule:nonzero;stroke:#233239;stroke-width:1px;stroke-linecap:butt;stroke-linejoin:miter;"/><path d="M214.185,50.949l0,30.067c0,3.794 -3.076,6.87 -6.859,6.87l-32.491,-0c-3.794,-0 -6.859,-3.076 -6.859,-6.87l0,-30.067c0,-3.37 2.424,-6.174 5.631,-6.75c0.391,-0.077 0.804,-0.119 1.228,-0.119l32.491,-0c0.609,-0 1.206,0.075 1.772,0.239c2.925,0.77 5.087,3.445 5.087,6.63Z" style="fill:#00c49a;fill-rule:nonzero;stroke:#233239;stroke-width:1px;"/><path d="M197.119,62.021c-0,-3.222 -2.612,-5.835 -5.836,-5.835c-3.222,-0 -5.835,2.613 -5.835,5.835c-0,1.76 0.782,3.333 2.014,4.403l-0,12.314l7.643,-0l0,-12.314c1.232,-1.07 2.014,-2.643 2.014,-4.403" style="fill:#233239;fill-rule:nonzero;"/><path d="M611.81,59.416l0,-0.682c0.426,-1.644 0.672,-3.358 0.672,-5.135c-0,-11.367 -9.215,-20.582 -20.582,-20.582c-3.399,0 -6.597,0.839 -9.423,2.298c-0.551,-14.09 -12.05,-25.363 -26.23,-25.554c-14.179,0.191 -25.678,11.464 -26.229,25.554c-2.826,-1.459 -6.024,-2.298 -9.423,-2.298c-11.367,0 -20.582,9.215 -20.582,20.582c0,1.777 0.245,3.491 0.671,5.135l0,0.682c-5.313,-0 -9.62,4.307 -9.62,9.62c0,5.312 4.307,9.619 9.62,9.619l111.126,0c5.314,0 9.621,-4.307 9.621,-9.619c-0,-5.313 -4.307,-9.62 -9.621,-9.62Z" style="fill:#00c49a;fill-rule:nonzero;stroke:#233239;stroke-width:1px;"/><path d="M575.112,67.532l-37.73,0l0,-13.496l4.621,0l0,8.875l28.488,0l0,-9.322l4.621,0l0,13.943Z" style="fill:#fff;fill-rule:nonzero;stroke:#233239;stroke-width:1px;"/><path d="M562.577,43.589l-0,-14.206l-12.659,-0l-0,14.206l-4.7,-0l11.029,12.834l11.03,-12.834l-4.7,-0Z" style="fill:#fff;fill-rule:nonzero;stroke:#233239;stroke-width:1px;"/><path d="M579.426,128.273l-0,14.206l12.659,-0l-0,-14.206l4.699,-0l-11.028,-12.834l-11.03,12.834l4.7,-0Z" style="fill:#00c49a;fill-rule:nonzero;stroke:#233239;stroke-width:1px;"/><path d="M554.084,88.768l-0,-1.314l-10.985,0l-0,19.15c-0,0.736 0.597,1.333 1.334,1.333l22.862,0c0.735,0 1.333,-0.597 1.333,-1.333l-0,-17.836l-14.544,0Z" style="fill:#fff;fill-rule:nonzero;stroke:#233239;stroke-width:1px;"/><path d="M554.084,123.309l-0,-1.313l-10.985,-0l-0,19.149c-0,0.736 0.597,1.333 1.334,1.333l22.862,0c0.735,0 1.333,-0.597 1.333,-1.333l-0,-17.836l-14.544,0Z" style="fill:#fff;fill-rule:nonzero;stroke:#233239;stroke-width:1px;"/><g opacity="0.3"><path d="M338.448,69.401l0,3.019l-22.971,-0l0,-4.201l9.884,0l0,1.182l13.087,-0Z" style="fill:none;fill-rule:nonzero;stroke:#000;stroke-width:1px;"/><path d="M338.448,72.42l0,13.029c0,0.663 -0.537,1.2 -1.2,1.2l-20.57,-0c-0.663,-0 -1.201,-0.537 -1.201,-1.2l0,-13.029l22.971,0Z" style="fill:none;fill-rule:nonzero;stroke:#000;stroke-width:1px;"/><path d="M338.448,95.814l0,3.019l-22.971,-0l0,-4.201l9.884,0l0,1.182l13.087,0Z" style="fill:none;fill-rule:nonzero;stroke:#000;stroke-width:1px;"/><path d="M338.448,98.833l0,13.029c0,0.663 -0.537,1.2 -1.2,1.2l-20.57,0c-0.663,0 -1.201,-0.537 -1.201,-1.2l0,-13.029l22.971,0Z" style="fill:none;fill-rule:nonzero;stroke:#000;stroke-width:1px;"/><path d="M372.579,69.401l0,3.019l-22.971,-0l0,-4.201l9.884,0l-0,1.182l13.087,-0Z" style="fill:none;fill-rule:nonzero;stroke:#000;stroke-width:1px;"/><path d="M372.579,72.42l0,13.029c0,0.663 -0.537,1.2 -1.2,1.2l-20.57,-0c-0.664,-0 -1.201,-0.537 -1.201,-1.2l0,-13.029l22.971,0Z" style="fill:none;fill-rule:nonzero;stroke:#000;stroke-width:1px;"/><path d="M372.579,95.814l0,3.019l-22.971,-0l0,-4.201l9.884,0l-0,1.182l13.087,0Z" style="fill:none;fill-rule:nonzero;stroke:#000;stroke-width:1px;"/><path d="M372.579,98.833l0,13.029c0,0.663 -0.537,1.2 -1.2,1.2l-20.57,0c-0.664,0 -1.201,-0.537 -1.201,-1.2l0,-13.029l22.971,0Z" style="fill:none;fill-rule:nonzero;stroke:#000;stroke-width:1px;"/><path d="M407.783,69.401l-0,3.019l-22.971,-0l-0,-4.201l9.883,0l0,1.182l13.088,-0Z" style="fill:none;fill-rule:nonzero;stroke:#000;stroke-width:1px;"/><path d="M407.783,72.42l-0,13.029c-0,0.663 -0.537,1.2 -1.2,1.2l-20.571,-0c-0.663,-0 -1.2,-0.537 -1.2,-1.2l-0,-13.029l22.971,0Z" style="fill:none;fill-rule:nonzero;stroke:#000;stroke-width:1px;"/><path d="M407.783,95.814l-0,3.019l-22.971,-0l-0,-4.201l9.883,0l0,1.182l13.088,0Z" style="fill:none;fill-rule:nonzero;stroke:#000;stroke-width:1px;"/><path d="M407.783,98.833l-0,13.029c-0,0.663 -0.537,1.2 -1.2,1.2l-20.571,0c-0.663,0 -1.2,-0.537 -1.2,-1.2l-0,-13.029l22.971,0Z" style="fill:none;fill-rule:nonzero;stroke:#000;stroke-width:1px;"/><path d="M442.987,69.401l-0,3.019l-22.972,-0l0,-4.201l9.884,0l0,1.182l13.088,-0Z" style="fill:none;fill-rule:nonzero;stroke:#000;stroke-width:1px;"/><path d="M442.987,72.42l-0,13.029c-0,0.663 -0.538,1.2 -1.201,1.2l-20.57,-0c-0.663,-0 -1.201,-0.537 -1.201,-1.2l0,-13.029l22.972,0Z" style="fill:none;fill-rule:nonzero;stroke:#000;stroke-width:1px;"/><path d="M442.987,95.814l-0,3.019l-22.972,-0l0,-4.201l9.884,0l0,1.182l13.088,0Z" style="fill:none;fill-rule:nonzero;stroke:#000;stroke-width:1px;"/><path d="M442.987,98.833l-0,13.029c-0,0.663 -0.538,1.2 -1.201,1.2l-20.57,0c-0.663,0 -1.201,-0.537 -1.201,-1.2l0,-13.029l22.972,0Z" style="fill:none;fill-rule:nonzero;stroke:#000;stroke-width:1px;"/><path d="M338.448,125.929l0,3.018l-22.971,0l0,-4.2l9.884,-0l0,1.182l13.087,-0Z" style="fill:none;fill-rule:nonzero;stroke:#000;stroke-width:1px;"/><path d="M338.448,128.948l0,13.028c0,0.663 -0.537,1.201 -1.2,1.201l-20.57,-0c-0.663,-0 -1.201,-0.538 -1.201,-1.201l0,-13.028l22.971,-0Z" style="fill:none;fill-rule:nonzero;stroke:#000;stroke-width:1px;"/><path d="M338.448,152.342l0,3.018l-22.971,0l0,-4.2l9.884,-0l0,1.182l13.087,-0Z" style="fill:none;fill-rule:nonzero;stroke:#000;stroke-width:1px;"/><path d="M338.448,155.361l0,13.028c0,0.663 -0.537,1.201 -1.2,1.201l-20.57,-0c-0.663,-0 -1.201,-0.538 -1.201,-1.201l0,-13.028l22.971,-0Z" style="fill:none;fill-rule:nonzero;stroke:#000;stroke-width:1px;"/><path d="M372.579,125.929l0,3.018l-22.971,0l0,-4.2l9.884,-0l-0,1.182l13.087,-0Z" style="fill:none;fill-rule:nonzero;stroke:#000;stroke-width:1px;"/><path d="M372.579,128.948l0,13.028c0,0.663 -0.537,1.201 -1.2,1.201l-20.57,-0c-0.664,-0 -1.201,-0.538 -1.201,-1.201l0,-13.028l22.971,-0Z" style="fill:none;fill-rule:nonzero;stroke:#000;stroke-width:1px;"/><path d="M372.579,152.342l0,3.018l-22.971,0l0,-4.2l9.884,-0l-0,1.182l13.087,-0Z" style="fill:none;fill-rule:nonzero;stroke:#000;stroke-width:1px;"/><path d="M372.579,155.361l0,13.028c0,0.663 -0.537,1.201 -1.2,1.201l-20.57,-0c-0.664,-0 -1.201,-0.538 -1.201,-1.201l0,-13.028l22.971,-0Z" style="fill:none;fill-rule:nonzero;stroke:#000;stroke-width:1px;"/><path d="M407.783,125.929l-0,3.018l-22.971,0l-0,-4.2l9.883,-0l0,1.182l13.088,-0Z" style="fill:none;fill-rule:nonzero;stroke:#000;stroke-width:1px;"/><path d="M407.783,128.948l-0,13.028c-0,0.663 -0.537,1.201 -1.2,1.201l-20.571,-0c-0.663,-0 -1.2,-0.538 -1.2,-1.201l-0,-13.028l22.971,-0Z" style="fill:none;fill-rule:nonzero;stroke:#000;stroke-width:1px;"/><path d="M407.783,152.342l-0,3.018l-22.971,0l-0,-4.2l9.883,-0l0,1.182l13.088,-0Z" style="fill:none;fill-rule:nonzero;stroke:#000;stroke-width:1px;"/><path d="M407.783,155.361l-0,13.028c-0,0.663 -0.537,1.201 -1.2,1.201l-20.571,-0c-0.663,-0 -1.2,-0.538 -1.2,-1.201l-0,-13.028l22.971,-0Z" style="fill:none;fill-rule:nonzero;stroke:#000;stroke-width:1px;"/><path d="M442.987,125.929l-0,3.018l-22.972,0l0,-4.2l9.884,-0l0,1.182l13.088,-0Z" style="fill:none;fill-rule:nonzero;stroke:#000;stroke-width:1px;"/><path d="M442.987,128.948l-0,13.028c-0,0.663 -0.538,1.201 -1.201,1.201l-20.57,-0c-0.663,-0 -1.201,-0.538 -1.201,-1.201l0,-13.028l22.972,-0Z" style="fill:none;fill-rule:nonzero;stroke:#000;stroke-width:1px;"/><path d="M442.987,152.342l-0,3.018l-22.972,0l0,-4.2l9.884,-0l0,1.182l13.088,-0Z" style="fill:none;fill-rule:nonzero;stroke:#000;stroke-width:1px;"/><path d="M442.987,155.361l-0,13.028c-0,0.663 -0.538,1.201 -1.201,1.201l-20.57,-0c-0.663,-0 -1.201,-0.538 -1.201,-1.201l0,-13.028l22.972,-0Z" style="fill:none;fill-rule:nonzero;stroke:#000;stroke-width:1px;"/><path d="M338.448,180.99l0,3.019l-22.971,-0l0,-4.201l9.884,0l0,1.182l13.087,0Z" style="fill:none;fill-rule:nonzero;stroke:#000;stroke-width:1px;"/><path d="M338.448,184.009l0,13.029c0,0.663 -0.537,1.2 -1.2,1.2l-20.57,0c-0.663,0 -1.201,-0.537 -1.201,-1.2l0,-13.029l22.971,0Z" style="fill:none;fill-rule:nonzero;stroke:#000;stroke-width:1px;"/><path d="M338.448,207.403l0,3.019l-22.971,-0l0,-4.201l9.884,0l0,1.182l13.087,0Z" style="fill:none;fill-rule:nonzero;stroke:#000;stroke-width:1px;"/><path d="M338.448,210.422l0,13.029c0,0.663 -0.537,1.2 -1.2,1.2l-20.57,0c-0.663,0 -1.201,-0.537 -1.201,-1.2l0,-13.029l22.971,0Z" style="fill:none;fill-rule:nonzero;stroke:#000;stroke-width:1px;"/><path d="M372.579,180.99l0,3.019l-22.971,-0l0,-4.201l9.884,0l-0,1.182l13.087,0Z" style="fill:none;fill-rule:nonzero;stroke:#000;stroke-width:1px;"/><path d="M372.579,184.009l0,13.029c0,0.663 -0.537,1.2 -1.2,1.2l-20.57,0c-0.664,0 -1.201,-0.537 -1.201,-1.2l0,-13.029l22.971,0Z" style="fill:none;fill-rule:nonzero;stroke:#000;stroke-width:1px;"/><path d="M372.579,207.403l0,3.019l-22.971,-0l0,-4.201l9.884,0l-0,1.182l13.087,0Z" style="fill:none;fill-rule:nonzero;stroke:#000;stroke-width:1px;"/><path d="M372.579,210.422l0,13.029c0,0.663 -0.537,1.2 -1.2,1.2l-20.57,0c-0.664,0 -1.201,-0.537 -1.201,-1.2l0,-13.029l22.971,0Z" style="fill:none;fill-rule:nonzero;stroke:#000;stroke-width:1px;"/><path d="M407.783,180.99l-0,3.019l-22.971,-0l-0,-4.201l9.883,0l0,1.182l13.088,0Z" style="fill:none;fill-rule:nonzero;stroke:#000;stroke-width:1px;"/><path d="M407.783,184.009l-0,13.029c-0,0.663 -0.537,1.2 -1.2,1.2l-20.571,0c-0.663,0 -1.2,-0.537 -1.2,-1.2l-0,-13.029l22.971,0Z" style="fill:none;fill-rule:nonzero;stroke:#000;stroke-width:1px;"/><path d="M407.783,207.403l-0,3.019l-22.971,-0l-0,-4.201l9.883,0l0,1.182l13.088,0Z" style="fill:none;fill-rule:nonzero;stroke:#000;stroke-width:1px;"/><path d="M407.783,210.422l-0,13.029c-0,0.663 -0.537,1.2 -1.2,1.2l-20.571,0c-0.663,0 -1.2,-0.537 -1.2,-1.2l-0,-13.029l22.971,0Z" style="fill:none;fill-rule:nonzero;stroke:#000;stroke-width:1px;"/><path d="M442.987,180.99l-0,3.019l-22.972,-0l0,-4.201l9.884,0l0,1.182l13.088,0Z" style="fill:none;fill-rule:nonzero;stroke:#000;stroke-width:1px;"/><path d="M442.987,184.009l-0,13.029c-0,0.663 -0.538,1.2 -1.201,1.2l-20.57,0c-0.663,0 -1.201,-0.537 -1.201,-1.2l0,-13.029l22.972,0Z" style="fill:none;fill-rule:nonzero;stroke:#000;stroke-width:1px;"/><path d="M442.987,207.403l-0,3.019l-22.972,-0l0,-4.201l9.884,0l0,1.182l13.088,0Z" style="fill:none;fill-rule:nonzero;stroke:#000;stroke-width:1px;"/><path d="M442.987,210.422l-0,13.029c-0,0.663 -0.538,1.2 -1.201,1.2l-20.57,0c-0.663,0 -1.201,-0.537 -1.201,-1.2l0,-13.029l22.972,0Z" style="fill:none;fill-rule:nonzero;stroke:#000;stroke-width:1px;"/><path d="M338.448,236.052l0,3.018l-22.971,0l0,-4.2l9.884,-0l0,1.182l13.087,-0Z" style="fill:none;fill-rule:nonzero;stroke:#000;stroke-width:1px;"/><path d="M338.448,239.071l0,13.028c0,0.663 -0.537,1.201 -1.2,1.201l-20.57,-0c-0.663,-0 -1.201,-0.538 -1.201,-1.201l0,-13.028l22.971,-0Z" style="fill:none;fill-rule:nonzero;stroke:#000;stroke-width:1px;"/><path d="M338.448,262.465l0,3.018l-22.971,0l0,-4.2l9.884,-0l0,1.182l13.087,-0Z" style="fill:none;fill-rule:nonzero;stroke:#000;stroke-width:1px;"/><path d="M338.448,265.484l0,13.028c0,0.663 -0.537,1.201 -1.2,1.201l-20.57,-0c-0.663,-0 -1.201,-0.538 -1.201,-1.201l0,-13.028l22.971,-0Z" style="fill:none;fill-rule:nonzero;stroke:#000;stroke-width:1px;"/><path d="M372.579,236.052l0,3.018l-22.971,0l0,-4.2l9.884,-0l-0,1.182l13.087,-0Z" style="fill:none;fill-rule:nonzero;stroke:#000;stroke-width:1px;"/><path d="M372.579,239.071l0,13.028c0,0.663 -0.537,1.201 -1.2,1.201l-20.57,-0c-0.664,-0 -1.201,-0.538 -1.201,-1.201l0,-13.028l22.971,-0Z" style="fill:none;fill-rule:nonzero;stroke:#000;stroke-width:1px;"/><path d="M372.579,262.465l0,3.018l-22.971,0l0,-4.2l9.884,-0l-0,1.182l13.087,-0Z" style="fill:none;fill-rule:nonzero;stroke:#000;stroke-width:1px;"/><path d="M372.579,265.484l0,13.028c0,0.663 -0.537,1.201 -1.2,1.201l-20.57,-0c-0.664,-0 -1.201,-0.538 -1.201,-1.201l0,-13.028l22.971,-0Z" style="fill:none;fill-rule:nonzero;stroke:#000;stroke-width:1px;"/><path d="M407.783,236.052l-0,3.018l-22.971,0l-0,-4.2l9.883,-0l0,1.182l13.088,-0Z" style="fill:none;fill-rule:nonzero;stroke:#000;stroke-width:1px;"/><path d="M407.783,239.071l-0,13.028c-0,0.663 -0.537,1.201 -1.2,1.201l-20.571,-0c-0.663,-0 -1.2,-0.538 -1.2,-1.201l-0,-13.028l22.971,-0Z" style="fill:none;fill-rule:nonzero;stroke:#000;stroke-width:1px;"/><path d="M407.783,262.465l-0,3.018l-22.971,0l-0,-4.2l9.883,-0l0,1.182l13.088,-0Z" style="fill:none;fill-rule:nonzero;stroke:#000;stroke-width:1px;"/><path d="M407.783,265.484l-0,13.028c-0,0.663 -0.537,1.201 -1.2,1.201l-20.571,-0c-0.663,-0 -1.2,-0.538 -1.2,-1.201l-0,-13.028l22.971,-0Z" style="fill:none;fill-rule:nonzero;stroke:#000;stroke-width:1px;"/><path d="M442.987,236.052l-0,3.018l-22.972,0l0,-4.2l9.884,-0l0,1.182l13.088,-0Z" style="fill:none;fill-rule:nonzero;stroke:#000;stroke-width:1px;"/><path d="M442.987,239.071l-0,13.028c-0,0.663 -0.538,1.201 -1.201,1.201l-20.57,-0c-0.663,-0 -1.201,-0.538 -1.201,-1.201l0,-13.028l22.972,-0Z" style="fill:none;fill-rule:nonzero;stroke:#000;stroke-width:1px;"/><path d="M442.987,262.465l-0,3.018l-22.972,0l0,-4.2l9.884,-0l0,1.182l13.088,-0Z" style="fill:none;fill-rule:nonzero;stroke:#000;stroke-width:1px;"/><path d="M442.987,265.484l-0,13.028c-0,0.663 -0.538,1.201 -1.201,1.201l-20.57,-0c-0.663,-0 -1.201,-0.538 -1.201,-1.201l0,-13.028l22.972,-0Z" style="fill:none;fill-rule:nonzero;stroke:#000;stroke-width:1px;"/><rect x="270.565" y="43.409" width="198.173" height="247.023" style="fill:none;stroke:#000;stroke-width:1px;"/><path d="M468.773,56.144l-0.035,-12.736l-198.174,0l-0.008,12.736l198.217,0Z" style="fill:none;fill-rule:nonzero;stroke:#000;stroke-width:1px;"/><path d="M305.022,57.185l-0,231.762" style="fill:none;fill-rule:nonzero;stroke:#000;stroke-width:1px;"/></g><path d="M235.867,160.434l-37.224,0l-0,-47.977l29.393,-0l7.831,8.237l-0,39.74Z" style="fill:#fff;fill-rule:nonzero;stroke:#233239;stroke-width:1px;"/><rect x="198.643" y="140.54" width="37.224" height="19.894" style="fill:#00c49a;stroke:#233239;stroke-width:1px;"/><path d="M235.867,120.694l-8.013,0l-0,-8.237l8.013,8.237Z" style="fill:#ccc;fill-rule:nonzero;stroke:#233239;stroke-width:1px;"/><path d="M207.307,127.704l19.896,0" style="fill:none;fill-rule:nonzero;stroke:#233239;stroke-width:1px;"/><path d="M207.307,131.72l19.896,0" style="fill:none;fill-rule:nonzero;stroke:#233239;stroke-width:1px;"/><path d="M207.307,135.736l19.896,0" style="fill:none;fill-rule:nonzero;stroke:#233239;stroke-width:1px;"/><path d="M209.981,148.36l0.791,0c0.328,0 0.581,-0.052 0.758,-0.157c0.178,-0.104 0.298,-0.27 0.362,-0.498c0.063,-0.228 0.095,-0.519 0.095,-0.873c0,-0.338 -0.025,-0.62 -0.075,-0.847c-0.05,-0.227 -0.161,-0.405 -0.335,-0.532c-0.172,-0.128 -0.446,-0.192 -0.818,-0.192l-0.778,0l-0,3.099Zm-2.253,6.375l-0,-11.056l3.509,-0c0.664,-0 1.204,0.124 1.624,0.374c0.418,0.251 0.73,0.612 0.935,1.086c0.204,0.473 0.307,1.047 0.307,1.72c-0,0.792 -0.134,1.41 -0.402,1.856c-0.269,0.446 -0.636,0.762 -1.099,0.948c-0.464,0.187 -0.997,0.28 -1.598,0.28l-1.023,-0l-0,4.792l-2.253,0Z" style="fill:#233239;fill-rule:nonzero;"/><path d="M217.433,153.165l0.479,-0c0.418,-0 0.716,-0.066 0.894,-0.198c0.177,-0.131 0.288,-0.328 0.334,-0.587c0.045,-0.259 0.068,-0.579 0.068,-0.962l-0,-4.559c-0,-0.382 -0.03,-0.689 -0.089,-0.922c-0.059,-0.232 -0.177,-0.403 -0.355,-0.511c-0.178,-0.11 -0.466,-0.165 -0.866,-0.165l-0.465,0l0,7.904Zm-2.252,1.57l-0,-11.056l2.703,-0c0.937,-0 1.667,0.12 2.19,0.361c0.524,0.241 0.895,0.618 1.113,1.132c0.218,0.515 0.328,1.172 0.328,1.973l0,4.027c0,0.819 -0.11,1.493 -0.328,2.021c-0.218,0.526 -0.585,0.916 -1.099,1.167c-0.514,0.249 -1.23,0.375 -2.15,0.375l-2.757,0Z" style="fill:#233239;fill-rule:nonzero;"/><path d="M223.002,154.735l0,-11.057l4.669,0l-0,1.529l-2.416,-0l-0,2.99l2.047,-0l0,1.569l-2.047,-0l-0,4.969l-2.253,-0Z" style="fill:#233239;fill-rule:nonzero;"/><path d="M205.115,191.097l-37.15,0l-0,-47.881l29.335,-0l7.815,8.22l0,39.661Z" style="fill:#fff;fill-rule:nonzero;stroke:#233239;stroke-width:1px;"/><rect x="167.965" y="171.242" width="37.15" height="19.855" style="fill:#00c49a;stroke:#233239;stroke-width:1px;"/><path d="M205.115,151.436l-7.997,0l0,-8.221l7.997,8.221Z" style="fill:#ccc;fill-rule:nonzero;stroke:#233239;stroke-width:1px;"/><path d="M176.611,158.432l19.858,0" style="fill:none;fill-rule:nonzero;stroke:#233239;stroke-width:1px;"/><path d="M176.611,162.44l19.858,0" style="fill:none;fill-rule:nonzero;stroke:#233239;stroke-width:1px;"/><path d="M176.611,166.448l19.858,-0" style="fill:none;fill-rule:nonzero;stroke:#233239;stroke-width:1px;"/><path d="M179.28,179.047l0.79,-0c0.327,-0 0.579,-0.052 0.756,-0.157c0.178,-0.104 0.298,-0.269 0.362,-0.497c0.063,-0.228 0.094,-0.518 0.094,-0.871c0,-0.337 -0.024,-0.618 -0.075,-0.846c-0.05,-0.226 -0.16,-0.403 -0.333,-0.53c-0.173,-0.128 -0.446,-0.192 -0.818,-0.192l-0.776,0l0,3.093Zm-2.248,6.362l-0,-11.034l3.502,-0c0.662,-0 1.202,0.125 1.621,0.374c0.417,0.25 0.729,0.611 0.933,1.083c0.204,0.472 0.306,1.044 0.306,1.717c0,0.79 -0.134,1.408 -0.402,1.853c-0.268,0.444 -0.633,0.76 -1.096,0.946c-0.464,0.186 -0.995,0.279 -1.595,0.279l-1.021,0l0,4.782l-2.248,0Z" style="fill:#233239;fill-rule:nonzero;"/><path d="M186.718,183.842l0.477,0c0.417,0 0.715,-0.065 0.892,-0.197c0.177,-0.132 0.288,-0.327 0.334,-0.586c0.045,-0.259 0.068,-0.579 0.068,-0.96l0,-4.551c0,-0.381 -0.03,-0.687 -0.089,-0.919c-0.059,-0.231 -0.177,-0.402 -0.353,-0.511c-0.178,-0.109 -0.466,-0.164 -0.866,-0.164l-0.463,-0l0,7.888Zm-2.248,1.567l-0,-11.034l2.698,-0c0.935,-0 1.663,0.12 2.187,0.36c0.522,0.242 0.891,0.618 1.11,1.131c0.217,0.513 0.326,1.169 0.326,1.969l-0,4.018c-0,0.818 -0.109,1.49 -0.326,2.017c-0.219,0.526 -0.584,0.914 -1.098,1.165c-0.513,0.249 -1.228,0.374 -2.145,0.374l-2.752,0Z" style="fill:#233239;fill-rule:nonzero;"/><path d="M192.276,185.409l-0,-11.034l4.659,-0l0,1.526l-2.411,-0l-0,2.983l2.043,-0l-0,1.566l-2.043,0l-0,4.959l-2.248,-0Z" style="fill:#233239;fill-rule:nonzero;"/><rect x="452.54" y="153.248" width="37.589" height="37.589" style="fill:#fff;stroke:#233239;stroke-width:1px;"/><path d="M490.129,166.349l-4.603,-3.895l-8.822,12.274l-8.822,-4.603l-15.342,20.713l37.589,-0l0,-24.489Z" style="fill:#233239;fill-rule:nonzero;stroke:#233239;stroke-width:1px;"/><path d="M470.184,163.221c0,2.754 -2.232,4.986 -4.986,4.986c-2.754,0 -4.986,-2.232 -4.986,-4.986c-0,-2.754 2.232,-4.986 4.986,-4.986c2.754,-0 4.986,2.232 4.986,4.986" style="fill:#233239;fill-rule:nonzero;"/><path d="M470.184,163.221c0,-2.752 -2.234,-4.986 -4.986,-4.986c-2.752,-0 -4.986,2.234 -4.986,4.986c-0,2.752 2.234,4.986 4.986,4.986c2.752,0 4.986,-2.234 4.986,-4.986Z" style="fill:none;stroke:#233239;stroke-width:1px;"/><path d="M374.097,80.21c-0,-0 -12.049,-2.511 -20.082,1.004c-8.033,3.514 -13.304,10.291 -15.563,19.831c-2.26,9.538 1.004,31.126 -2.26,36.398c-3.262,5.271 -18.045,17.402 -20.303,28.447c-2.259,11.045 4.74,19.498 5.493,22.259c0.754,2.762 -7.279,17.07 -6.526,23.345c0.753,6.275 4.769,6.025 4.016,14.811c-0.753,8.786 -11.296,19.579 4.017,31.879c15.312,12.3 59.742,14.057 69.784,9.037c10.04,-5.021 8.881,-41.096 7.057,-57.063c-1.826,-15.967 8.032,-28.114 8.283,-42.172c0.251,-14.057 -11.826,-30.543 -14.838,-36.066c-3.012,-5.522 -5.523,-16.819 -4.268,-18.827c1.256,-2.008 10.041,0.503 13.304,-6.777c3.264,-7.279 -2.258,-13.054 -2.258,-13.054c-0,0 4.517,1.507 2.509,-4.015c-2.008,-5.523 -16.066,-11.297 -20.081,-11.297c-4.016,-0 -8.284,2.26 -8.284,2.26Z" style="fill:#233239;fill-rule:nonzero;stroke:#233239;stroke-width:1px;"/><path d="M294.588,217.114c-0,0 -6.092,-5.158 -6.642,-8.727c-0.549,-3.569 7.961,-3.569 7.961,-3.569c0,0 1.479,8.396 -1.319,12.296Z" style="fill:#00c49a;fill-rule:nonzero;stroke:#233239;stroke-width:1px;"/><path d="M267.332,146.721c-0,-0 -9.324,-22.337 -12.042,-25.639c-2.72,-3.302 -6.41,-4.66 -9.518,-4.466c-3.107,0.194 -5.438,3.107 -4.079,4.466c1.36,1.36 3.885,-0.194 4.662,-0.194c0.777,-0 3.302,2.525 3.496,3.496c0.195,0.972 -0.389,3.497 -0.389,3.497c0,0 -3.496,-0.583 -4.661,0.582c-1.165,1.166 -1.359,4.079 -0.777,7.186c0.583,3.108 0.194,13.208 2.137,15.15c1.942,1.943 12.625,7.964 12.625,7.964c-0,-0 13.587,35.683 20.385,43.84c6.799,8.157 8.741,8.934 12.043,8.157c3.302,-0.777 5.827,-2.525 5.827,-2.525l-0.777,-26.221c0,0 -2.745,-2.467 -5.659,-5.575c-2.912,-3.108 -21.331,-25.834 -21.331,-25.834l-1.942,-3.884Z" style="fill:#fff;fill-rule:nonzero;stroke:#233239;stroke-width:1px;"/><path d="M245.591,127.907c0,-0 -2.397,-0.505 -3.407,1.64c-1.008,2.145 -1.513,3.911 -0.126,5.299c1.388,1.388 5.805,6.687 8.076,6.056c2.27,-0.631 1.387,-3.154 0.631,-4.416c-0.758,-1.261 -4.291,-6.308 -4.291,-6.308" style="fill:#fff;fill-rule:nonzero;stroke:#233239;stroke-width:1px;"/><path d="M242.563,135.855c0,0 -2.271,1.641 -1.514,3.911c0.758,2.272 6.183,6.309 7.444,6.561c1.262,0.253 3.029,-0.378 3.154,-1.387c0.126,-1.01 -1.514,-4.038 -1.514,-4.038c-0,-0 -5.172,-2.649 -7.57,-5.047Z" style="fill:#fff;fill-rule:nonzero;stroke:#233239;stroke-width:1px;"/><path d="M242.311,142.164c-0,-0 -1.515,3.407 -1.136,5.046c0.379,1.641 2.651,3.281 3.785,3.786c1.136,0.504 3.533,-0.505 2.65,-2.145c-0.883,-1.641 -2.271,-3.28 -2.271,-3.28l-0.253,-1.01l-2.775,-2.397Z" style="fill:#fff;fill-rule:nonzero;stroke:#233239;stroke-width:1px;"/><path d="M261.614,150.112c0,0 -3.154,-2.271 -4.163,-5.551c-1.009,-3.28 1.64,-9.336 1.64,-9.336c0,0 -2.145,-6.94 -3.028,-11.481c-0.884,-4.542 1.262,-5.931 2.272,-6.308c1.008,-0.379 3.154,6.055 3.532,7.19c0.378,1.136 4.037,7.318 4.037,7.318c0,-0 1.262,2.65 1.641,6.056c0.377,3.407 0.505,12.869 0.505,12.869" style="fill:#fff;fill-rule:nonzero;stroke:#233239;stroke-width:1px;"/><path d="M246.355,120.888c-0,0 2.077,-0.275 2.85,-1.822" style="fill:none;fill-rule:nonzero;stroke:#233239;stroke-width:1px;"/><path d="M344.096,161.041c-0,0 -8.999,-0.382 -12.444,-1.532c-3.446,-1.148 -9.381,-1.914 -16.274,1.532c-6.892,3.446 -13.019,12.828 -14.167,13.976c-1.15,1.148 -3.064,0.766 -3.829,1.914c-0.766,1.15 -1.532,2.49 -1.532,2.49c-0,0 -0.958,33.121 -1.34,35.418c-0.384,2.298 -0.574,2.489 1.148,2.489c1.724,-0 3.638,-1.914 3.638,-1.914c0,-0 3.637,1.34 6.701,-0.383c3.063,-1.723 10.53,-7.467 10.53,-7.467l6.126,-5.36c0,-0 3.829,32.738 3.829,35.801c-0,3.064 -1.723,5.744 -0.382,7.658c1.34,1.915 9.571,8.807 11.103,8.615c1.532,-0.19 65.478,-0.574 67.584,-1.722c2.105,-1.15 4.785,-7.275 5.169,-9.19c0.382,-1.915 0.191,-6.892 0.382,-7.466c0.192,-0.575 2.872,1.148 3.638,-0.958c0.766,-2.106 23.166,-13.019 24.507,-16.656c1.339,-3.638 1.722,-8.999 -0,-10.147c-1.724,-1.149 -4.596,-1.915 -4.596,-1.915c-0,0 -7.275,-23.166 -8.424,-28.909c-1.148,-5.744 -4.404,-10.531 -10.147,-13.976c-5.744,-3.446 -21.826,-4.404 -23.166,-4.212c-1.34,0.192 -48.054,1.914 -48.054,1.914Z" style="fill:#00c49a;fill-rule:nonzero;stroke:#233239;stroke-width:1px;"/><path d="M377.858,193.028c0,0.687 -0.556,1.244 -1.244,1.244c-0.687,0 -1.245,-0.557 -1.245,-1.244c-0,-0.687 0.558,-1.244 1.245,-1.244c0.688,-0 1.244,0.557 1.244,1.244" style="fill:#233239;fill-rule:nonzero;"/><path d="M377.858,193.028c0,-0.687 -0.557,-1.244 -1.244,-1.244c-0.687,-0 -1.245,0.557 -1.245,1.244c-0,0.687 0.558,1.244 1.245,1.244c0.687,0 1.244,-0.557 1.244,-1.244Z" style="fill:none;stroke:#233239;stroke-width:1px;"/><path d="M378.792,207.031c-0,0.687 -0.557,1.244 -1.244,1.244c-0.688,0 -1.246,-0.557 -1.246,-1.244c0,-0.687 0.558,-1.244 1.246,-1.244c0.687,-0 1.244,0.557 1.244,1.244" style="fill:#233239;fill-rule:nonzero;"/><path d="M378.792,207.031c-0,-0.687 -0.558,-1.244 -1.245,-1.244c-0.687,-0 -1.245,0.557 -1.245,1.244c0,0.687 0.558,1.244 1.245,1.244c0.687,0 1.245,-0.557 1.245,-1.244Z" style="fill:none;stroke:#233239;stroke-width:1px;"/><path d="M378.792,219.478c-0,0.687 -0.557,1.244 -1.244,1.244c-0.688,0 -1.246,-0.557 -1.246,-1.244c0,-0.687 0.558,-1.244 1.246,-1.244c0.687,-0 1.244,0.557 1.244,1.244" style="fill:#233239;fill-rule:nonzero;"/><path d="M378.792,219.478c-0,-0.687 -0.558,-1.244 -1.245,-1.244c-0.687,-0 -1.245,0.557 -1.245,1.244c0,0.687 0.558,1.244 1.245,1.244c0.687,0 1.245,-0.557 1.245,-1.244Z" style="fill:none;stroke:#233239;stroke-width:1px;"/><path d="M379.414,232.547c0,0.688 -0.557,1.245 -1.244,1.245c-0.687,-0 -1.245,-0.557 -1.245,-1.245c-0,-0.687 0.558,-1.244 1.245,-1.244c0.687,0 1.244,0.557 1.244,1.244" style="fill:#233239;fill-rule:nonzero;"/><path d="M379.414,232.547c0,-0.686 -0.558,-1.244 -1.245,-1.244c-0.687,0 -1.244,0.558 -1.244,1.244c-0,0.687 0.557,1.245 1.244,1.245c0.687,-0 1.245,-0.558 1.245,-1.245Z" style="fill:none;stroke:#233239;stroke-width:1px;"/><path d="M379.103,246.55c0,0.688 -0.557,1.245 -1.244,1.245c-0.688,-0 -1.246,-0.557 -1.246,-1.245c0,-0.687 0.558,-1.244 1.246,-1.244c0.687,-0 1.244,0.557 1.244,1.244" style="fill:#233239;fill-rule:nonzero;"/><path d="M379.103,246.55c0,-0.686 -0.558,-1.244 -1.245,-1.244c-0.687,-0 -1.245,0.558 -1.245,1.244c0,0.687 0.558,1.245 1.245,1.245c0.687,-0 1.245,-0.558 1.245,-1.245Z" style="fill:none;stroke:#233239;stroke-width:1px;"/><path d="M410.067,190.748c-0.991,2.214 -1.835,4.418 -1.835,5.52c0,2.68 3.255,11.297 2.872,16.848c-0.383,5.552 -1.532,20.486 -1.532,20.486" style="fill:none;fill-rule:nonzero;stroke:#233239;stroke-width:1px;"/><path d="M413.21,184.398c0,0 -0.628,1.16 -1.439,2.778" style="fill:none;fill-rule:nonzero;stroke:#233239;stroke-width:1px;"/><path d="M322.653,202.204c0,-0 -2.68,-7.85 -4.02,-12.636c-1.341,-4.787 -7.467,-11.296 -9.19,-12.253" style="fill:none;fill-rule:nonzero;stroke:#233239;stroke-width:1px;"/><path d="M307.145,179.804c0,-0 6.127,2.872 8.999,8.041" style="fill:none;fill-rule:nonzero;stroke:#233239;stroke-width:1px;"/><path d="M295.85,179.421c-0,-0 4.02,3.638 7.467,15.89" style="fill:none;fill-rule:nonzero;stroke:#233239;stroke-width:1px;"/><path d="M307.357,197.695c0.262,0.776 0.514,1.579 0.746,2.403" style="fill:none;fill-rule:nonzero;stroke:#233239;stroke-width:1px;"/><path d="M302.359,186.887c0,0 2.176,3.435 4.136,8.446" style="fill:none;fill-rule:nonzero;stroke:#233239;stroke-width:1px;"/><path d="M298.913,184.207c-0,-0 1.34,22.974 0.382,31.207" style="fill:none;fill-rule:nonzero;stroke:#233239;stroke-width:1px;"/><path d="M373.388,188.419c0,-0 0.382,9.764 0.957,17.996" style="fill:none;fill-rule:nonzero;stroke:#233239;stroke-width:1px;"/><path d="M375.685,241.834l0,10.913" style="fill:none;fill-rule:nonzero;stroke:#233239;stroke-width:1px;"/><path d="M418.188,197.034c-0,0 -6.893,11.87 -7.659,22.017" style="fill:none;fill-rule:nonzero;stroke:#233239;stroke-width:1px;"/><path d="M426.612,211.968c-0,-0 -10.53,10.913 -11.487,17.804" style="fill:none;fill-rule:nonzero;stroke:#233239;stroke-width:1px;"/><path d="M327.248,205.267c-0,-0 4.02,7.849 9.765,13.593" style="fill:none;fill-rule:nonzero;stroke:#233239;stroke-width:1px;"/><path d="M338.17,225.055c1.606,1.391 3.198,2.66 4.585,3.569" style="fill:none;fill-rule:nonzero;stroke:#233239;stroke-width:1px;"/><path d="M328.397,215.605c-0,0 3.029,3.227 6.653,6.628" style="fill:none;fill-rule:nonzero;stroke:#233239;stroke-width:1px;"/><path d="M350.222,247.961c0,-0 2.872,3.637 7.659,5.743" style="fill:none;fill-rule:nonzero;stroke:#233239;stroke-width:1px;"/><path d="M401.914,248.918c0,-0 -0.382,1.723 -3.254,4.02" style="fill:none;fill-rule:nonzero;stroke:#233239;stroke-width:1px;"/><path d="M357.592,156.399c0,-0 -5.069,-0.339 -6.928,-1.52c-1.859,-1.184 -4.394,-2.198 -5.07,-0.676c-0.675,1.52 -4.562,5.575 -4.223,6.59c0.337,1.013 -0.846,13.011 -1.183,16.39c-0.338,3.379 0.507,4.055 1.859,3.042c1.351,-1.014 9.462,-8.956 10.307,-8.28c0.845,0.676 0.845,2.703 2.365,3.886c1.522,1.183 6.253,2.535 6.253,2.535l19.263,-0.338c0,-0 2.704,-1.014 4.563,-2.365c1.859,-1.352 4.393,-4.225 4.393,-4.225c0,-0 6.083,7.604 6.929,7.773c0.844,0.169 -1.183,-10.138 -1.183,-14.195c-0,-4.055 -1.015,-10.137 -2.028,-11.152c-1.014,-1.014 -3.549,-2.027 -4.901,-1.69c-1.351,0.338 -3.717,2.705 -5.576,2.705c-1.859,-0 -24.84,1.52 -24.84,1.52Z" style="fill:#00c49a;fill-rule:nonzero;stroke:#233239;stroke-width:1px;"/><path d="M347.285,155.892l2.703,4.731" style="fill:none;fill-rule:nonzero;stroke:#233239;stroke-width:1px;"/><path d="M386.319,154.878l0.507,3.718" style="fill:none;fill-rule:nonzero;stroke:#233239;stroke-width:1px;"/><path d="M354.889,131.559c-0,0 3.379,15.715 1.859,20.447c-1.521,4.731 -6.76,8.617 -6.76,8.617c-0,0 5.577,13.012 10.983,17.743c5.408,4.732 13.012,7.772 13.012,7.772c-0,0 11.153,-13.011 12.673,-17.742c1.521,-4.731 0.169,-9.8 0.169,-9.8c0,-0 -3.717,0.337 -4.392,-3.718c-0.676,-4.055 -0.676,-10.308 -0.676,-10.308c-0,0 -11.154,-2.027 -15.209,-4.055c-4.055,-2.027 -11.659,-8.956 -11.659,-8.956Z" style="fill:#fff;fill-rule:nonzero;stroke:#233239;stroke-width:1px;"/><path d="M353.659,117.805c0,-0 -3.716,-6.017 -7.256,-1.947c-3.539,4.07 1.593,11.504 3.186,12.919c1.592,1.416 3.362,0.531 3.362,0.531c0,0 5.31,10.442 7.787,12.565c2.478,2.124 14.689,6.725 18.76,6.017c4.07,-0.708 9.379,-9.202 10.618,-11.326c1.239,-2.124 3.539,-23.006 3.539,-27.431c0,-0 -6.725,-2.655 -10.618,-6.725c-3.894,-4.07 -6.017,-6.548 -6.017,-6.548c-0,-0 2.123,5.663 -6.549,10.618c-8.671,4.955 -13.272,5.487 -13.272,5.487c0,-0 -0.355,1.77 -1.416,3.893c-1.062,2.124 -2.124,1.947 -2.124,1.947Z" style="fill:#fff;fill-rule:nonzero;stroke:#233239;stroke-width:1px;"/><path d="M372.772,96.568c0,-0 -3.539,7.255 -4.955,8.672c-1.416,1.415 3.894,-0.885 5.664,-4.779c1.77,-3.893 1.946,-7.078 -0.709,-3.893" style="fill:#fff;fill-rule:nonzero;"/><path d="M374.334,119.913c-0,-0 -3.064,-5.152 -10.304,-2.089" style="fill:none;fill-rule:nonzero;stroke:#233239;stroke-width:1px;"/><path d="M384.498,120.366c0,-0 2.089,-4.317 6.266,-2.368" style="fill:none;fill-rule:nonzero;stroke:#233239;stroke-width:1px;"/><path d="M375.866,113.508c-0,-0 -6.824,-5.291 -13.089,-0.279" style="fill:none;fill-rule:nonzero;stroke:#233239;stroke-width:1px;"/><path d="M384.22,113.229c-0,0 2.784,-4.177 7.937,-1.531" style="fill:none;fill-rule:nonzero;stroke:#233239;stroke-width:1px;"/><path d="M372.245,119.286c0,0.962 -0.778,1.741 -1.741,1.741c-0.961,0 -1.74,-0.779 -1.74,-1.741c0,-0.961 0.779,-1.741 1.74,-1.741c0.963,0 1.741,0.78 1.741,1.741" style="fill:#233239;fill-rule:nonzero;"/><path d="M390.068,119.112c0,0.788 -0.639,1.427 -1.427,1.427c-0.789,0 -1.428,-0.639 -1.428,-1.427c0,-0.788 0.639,-1.426 1.428,-1.426c0.788,-0 1.427,0.638 1.427,1.426" style="fill:#233239;fill-rule:nonzero;"/><path d="M382.967,129.66c-0,-0 -2.089,2.227 -4.873,1.392" style="fill:none;fill-rule:nonzero;stroke:#233239;stroke-width:1px;"/><path d="M383.245,136.065c0,-0 -5.43,2.784 -11.556,-1.392" style="fill:none;fill-rule:nonzero;stroke:#233239;stroke-width:1px;"/><path d="M337.203,254.279l-1.26,5.82l69.4,-0.908l-0.557,-6.635l-67.583,1.723Z" style="fill:#233239;fill-rule:nonzero;stroke:#233239;stroke-width:1px;"/><path d="M343.859,470.744c0,0 3.089,30.734 3.089,31.322c-0,0.588 -13.676,12.205 -16.617,14.263c-2.941,2.059 -3.382,8.235 1.617,11.029c5,2.793 11.911,2.059 15.882,-0c3.056,-1.584 8.823,-10.441 8.823,-10.441c0,0 5.587,0.295 6.617,-4.411c1.029,-4.705 -1.176,-15.882 -1.176,-15.882l1.176,-22.35l-19.411,-3.53Z" style="fill:#fff;fill-rule:nonzero;stroke:#233239;stroke-width:1px;"/><path d="M362.679,500.034c-2.871,2.375 -6.32,3.502 -6.32,3.502c0,-0 -2.206,-3.676 -4.853,-4.265c-2.647,-0.588 -4.558,2.794 -4.558,2.794c0,0.589 -13.677,12.206 -16.617,14.265c-2.941,2.058 -3.383,8.234 1.618,11.028c5,2.794 11.323,2.206 15.881,0c3.098,-1.499 8.823,-10.44 8.823,-10.44c-0,-0 5.588,0.293 6.617,-4.412c0.667,-3.046 -0.022,-8.79 -0.591,-12.472Z" style="fill:#fff;fill-rule:nonzero;stroke:#233239;stroke-width:1px;"/><path d="M363.535,509.351c-1.03,1.493 -2.321,3.08 -3.353,3.449c-2.058,0.736 -4.705,1.617 -7.353,5.883c-2.647,4.264 -7.646,8.528 -15.293,6.911c-7.646,-1.618 -9.263,-5.735 -9.263,-5.735l-0.01,-0.013c-0.47,2.586 0.502,5.733 3.686,7.512c4.999,2.793 11.322,2.205 15.881,-0c3.098,-1.5 8.823,-10.441 8.823,-10.441c-0,0 5.588,0.295 6.616,-4.411c0.19,-0.866 0.261,-1.961 0.266,-3.155Z" style="fill:#fff;fill-rule:nonzero;stroke:#233239;stroke-width:1px;"/><path d="M405.914,475.45l5.735,19.263c0,0 -2.205,11.322 -2.5,14.852c-0.293,3.529 3.088,4.706 5.294,6.03c2.206,1.322 9.705,2.793 11.616,4.264c1.912,1.471 10.001,7.794 14.853,8.234c4.852,0.441 9.176,-2.074 9.705,-4.853c0.588,-3.088 -3.087,-9.704 -12.352,-16.027c-9.264,-6.323 -11.911,-10.882 -12.499,-12.353c-0.588,-1.471 -1.912,-20.881 -1.912,-20.881l-17.94,1.471Z" style="fill:#fff;fill-rule:nonzero;stroke:#233239;stroke-width:1px;"/><path d="M420.178,497.948c-0.883,2.353 -1.029,4.265 -1.029,4.265c-0,-0 -3.382,-1.471 -5.882,-3.235c-0.833,-0.588 -1.556,-1.035 -2.166,-1.383c-0.674,3.599 -1.752,9.576 -1.952,11.97c-0.294,3.529 3.089,4.706 5.294,6.03c2.206,1.322 9.706,2.793 11.617,4.264c1.912,1.471 9.999,7.794 14.852,8.234c4.853,0.441 9.176,-2.074 9.705,-4.853c0.588,-3.088 -3.088,-9.704 -12.351,-16.027c-9.265,-6.323 -11.912,-10.882 -12.5,-12.353c0,0 -4.705,0.736 -5.588,3.088" style="fill:#fff;fill-rule:nonzero;"/><path d="M420.178,497.948c-0.883,2.353 -1.029,4.265 -1.029,4.265c-0,-0 -3.382,-1.471 -5.882,-3.235c-0.833,-0.588 -1.556,-1.035 -2.166,-1.383c-0.674,3.599 -1.752,9.576 -1.952,11.97c-0.294,3.529 3.089,4.706 5.294,6.03c2.206,1.322 9.706,2.793 11.617,4.264c1.912,1.471 9.999,7.794 14.852,8.234c4.853,0.441 9.176,-2.074 9.705,-4.853c0.588,-3.088 -3.088,-9.704 -12.351,-16.027c-9.265,-6.323 -11.912,-10.882 -12.5,-12.353c0,0 -4.705,0.736 -5.588,3.088Z" style="fill:none;fill-rule:nonzero;stroke:#233239;stroke-width:1px;"/><path d="M450.617,523.241c0.08,-0.417 0.074,-0.903 -0.004,-1.439c-1.572,1.814 -4.351,4.232 -8.083,4.232c-4.412,0 -11.618,-5.293 -13.235,-6.616c-1.618,-1.324 -6.323,-3.088 -10.881,-5c-3.385,-1.419 -7.413,-3.728 -9.266,-4.824c-0.271,3.505 3.095,4.68 5.295,6c2.206,1.324 9.705,2.794 11.617,4.264c1.912,1.471 9.999,7.794 14.851,8.235c4.854,0.441 9.177,-2.074 9.706,-4.852" style="fill:#fff;fill-rule:nonzero;"/><path d="M450.617,523.241c0.08,-0.417 0.074,-0.903 -0.004,-1.439c-1.572,1.814 -4.351,4.232 -8.083,4.232c-4.412,0 -11.618,-5.293 -13.235,-6.616c-1.618,-1.324 -6.323,-3.088 -10.881,-5c-3.385,-1.419 -7.413,-3.728 -9.266,-4.824c-0.271,3.505 3.095,4.68 5.295,6c2.206,1.324 9.705,2.794 11.617,4.264c1.912,1.471 9.999,7.794 14.851,8.235c4.854,0.441 9.177,-2.074 9.706,-4.852Z" style="fill:none;fill-rule:nonzero;stroke:#233239;stroke-width:1px;"/><path d="M335.943,260.099c0,-0 -11.361,20.564 -10.755,26.918c0.605,6.356 3.933,187.138 3.933,187.138l35.102,3.934l11.499,-108.937l11.802,107.423l37.824,-0.302c0,-0 -0.302,-71.112 0.303,-80.189c0.606,-9.079 -7.868,-98.777 -12.709,-115.118c-4.842,-16.341 -7.599,-21.774 -7.599,-21.774l-69.4,0.907Z" style="fill:#233239;fill-rule:nonzero;stroke:#233239;stroke-width:1px;"/><path d="M453.614,207.695c-0,-0 -26.276,11.442 -28.818,12.855c-2.543,1.413 -12.998,13.42 -11.726,15.963c1.271,2.542 5.792,7.204 11.726,6.215c5.932,-0.989 34.609,-27.123 34.609,-27.123c0,-0 19.637,-6.781 20.484,-8.758c0.848,-1.978 1.696,-4.097 1.696,-4.097c-0,-0 4.803,-0.423 6.78,-1.695c1.978,-1.272 2.684,-4.521 1.554,-4.662c-1.13,-0.141 -6.215,1.978 -9.041,2.26c-2.825,0.283 -8.618,-0.847 -11.583,0.848c-2.967,1.695 -5.369,4.38 -6.216,5.086c-0.848,0.706 -6.217,-0.141 -9.465,3.108Z" style="fill:#fff;fill-rule:nonzero;stroke:#233239;stroke-width:1px;"/><path d="M453.331,213.204c0,-0 5.227,4.38 7.064,4.945c1.835,0.565 3.955,-4.38 3.955,-4.38c0,-0 1.13,-6.499 -0.424,-5.51c-1.553,0.989 -3.39,5.228 -3.39,5.228" style="fill:#fff;fill-rule:nonzero;stroke:#233239;stroke-width:1px;"/><path d="M463.644,215.888c-0,0 4.52,0.989 5.367,0.283c0.848,-0.707 2.543,-8.476 1.837,-9.606c-0.706,-1.13 -2.684,-0.565 -3.391,1.27c-0.706,1.837 -1.554,4.521 -1.554,4.521l-1.553,1.413l-0.706,2.119Z" style="fill:#fff;fill-rule:nonzero;stroke:#233239;stroke-width:1px;"/><path d="M469.577,214.899c-0,0 2.967,0.283 4.096,0c1.13,-0.283 3.249,-8.052 3.249,-10.03c0,-1.977 -1.412,-3.249 -2.401,-1.977c-0.988,1.271 -2.825,6.78 -2.825,6.78l-0.706,1.554l-1.413,3.673Z" style="fill:#fff;fill-rule:nonzero;stroke:#233239;stroke-width:1px;"/><path d="M475.934,211.791c-0,0 4.521,-1.13 5.367,-2.826c0.848,-1.694 1.413,-6.921 1.131,-9.464c-0.283,-2.543 -1.836,-2.26 -2.684,-0.424c-0.847,1.837 -2.119,8.758 -2.119,8.758l-1.695,3.956Z" style="fill:#fff;fill-rule:nonzero;stroke:#233239;stroke-width:1px;"/><path d="M507.725,386.403l-11.043,-58.313l36.666,-0l-25.623,58.313Z" style="fill:#00c49a;fill-rule:nonzero;stroke:#233239;stroke-width:1px;"/><path d="M590.356,381.514l-82.899,0l-3.93,-59.671l86.829,-0l-0,59.671Z" style="fill:#fff;fill-rule:nonzero;stroke:#233239;stroke-width:1px;"/><rect x="507.457" y="321.843" width="86.829" height="59.672" style="fill:#fff;stroke:#233239;stroke-width:1px;"/><path d="M566.906,319.064l-1.716,4.166l-51.28,0l-6.185,63.173l87.47,-0l6.416,-67.649l-34.705,0.31Z" style="fill:#00c49a;fill-rule:nonzero;stroke:#233239;stroke-width:1px;"/><path d="M572.703,340.896l-3.581,35.595l-33.343,0l4.321,-42.977l26.168,-0l-0.739,7.382l7.174,0Z" style="fill:none;fill-rule:nonzero;stroke:#233239;stroke-width:1px;"/><path d="M572.703,340.896l-6.435,-7.382l0.162,-0l6.273,7.382Z" style="fill:none;fill-rule:nonzero;stroke:#233239;stroke-width:1px;"/><path d="M537.573,358.671l-1.795,17.821l33.343,-0l1.794,-17.821l-33.342,0Z" style="fill:none;fill-rule:nonzero;stroke:#233239;stroke-width:1px;"/><path d="M572.703,340.896l-7.174,0l0.739,-7.382l6.435,7.382Z" style="fill:none;fill-rule:nonzero;stroke:#233239;stroke-width:1px;"/><path d="M546.49,347.174l17.822,0" style="fill:none;fill-rule:nonzero;stroke:#233239;stroke-width:1px;"/><path d="M546.128,350.771l17.822,0" style="fill:none;fill-rule:nonzero;stroke:#233239;stroke-width:1px;"/><path d="M545.766,354.369l17.822,-0" style="fill:none;fill-rule:nonzero;stroke:#233239;stroke-width:1px;"/><path d="M540.974,371.769l0.485,0c0.425,0 0.736,-0.067 0.934,-0.201c0.197,-0.134 0.335,-0.333 0.414,-0.596c0.079,-0.263 0.144,-0.589 0.193,-0.977l0.583,-4.631c0.048,-0.388 0.057,-0.7 0.026,-0.936c-0.031,-0.237 -0.128,-0.409 -0.296,-0.52c-0.166,-0.111 -0.452,-0.166 -0.858,-0.166l-0.471,0l-1.01,8.027Zm-2.488,1.594l1.412,-11.229l2.745,-0c0.951,-0 1.679,0.122 2.179,0.367c0.5,0.245 0.83,0.63 0.985,1.151c0.157,0.522 0.183,1.19 0.08,2.003l-0.514,4.09c-0.104,0.832 -0.3,1.516 -0.59,2.052c-0.289,0.536 -0.711,0.931 -1.265,1.185c-0.555,0.254 -1.299,0.381 -2.231,0.381l-2.801,0Z" style="fill:#233239;fill-rule:nonzero;"/><path d="M549.752,371.866c0.296,0 0.521,-0.067 0.676,-0.201c0.156,-0.134 0.271,-0.314 0.345,-0.542c0.075,-0.225 0.128,-0.468 0.161,-0.726l0.667,-5.31c0.033,-0.259 0.041,-0.499 0.022,-0.721c-0.018,-0.223 -0.089,-0.4 -0.21,-0.534c-0.122,-0.134 -0.33,-0.201 -0.626,-0.201c-0.277,0 -0.493,0.067 -0.649,0.201c-0.155,0.134 -0.271,0.311 -0.345,0.534c-0.074,0.222 -0.128,0.462 -0.16,0.721l-0.668,5.31c-0.032,0.258 -0.042,0.501 -0.028,0.726c0.013,0.228 0.081,0.408 0.201,0.542c0.123,0.134 0.327,0.201 0.614,0.201m-0.208,1.65c-0.824,-0 -1.456,-0.148 -1.899,-0.444c-0.444,-0.295 -0.734,-0.718 -0.873,-1.268c-0.14,-0.55 -0.16,-1.209 -0.064,-1.976l0.526,-4.187c0.096,-0.767 0.283,-1.423 0.561,-1.968c0.276,-0.546 0.672,-0.962 1.189,-1.248c0.516,-0.287 1.185,-0.43 2.009,-0.43c0.831,0 1.473,0.146 1.921,0.437c0.448,0.291 0.742,0.707 0.881,1.248c0.141,0.54 0.163,1.194 0.066,1.961l-0.525,4.187c-0.097,0.767 -0.283,1.426 -0.562,1.976c-0.276,0.55 -0.676,0.973 -1.198,1.268c-0.523,0.296 -1.2,0.444 -2.032,0.444" style="fill:#233239;fill-rule:nonzero;"/><path d="M557.515,373.516c-0.832,-0 -1.47,-0.158 -1.916,-0.472c-0.445,-0.314 -0.731,-0.751 -0.854,-1.31c-0.124,-0.558 -0.139,-1.208 -0.046,-1.947l0.507,-4.035c0.098,-0.776 0.278,-1.444 0.543,-2.003c0.264,-0.56 0.658,-0.991 1.182,-1.297c0.523,-0.305 1.201,-0.457 2.033,-0.457c0.804,-0 1.419,0.135 1.843,0.402c0.423,0.268 0.699,0.648 0.827,1.137c0.128,0.49 0.151,1.058 0.07,1.705l-0.119,0.943l-2.218,-0l0.133,-1.054c0.032,-0.258 0.047,-0.5 0.05,-0.728c-0,-0.226 -0.052,-0.411 -0.16,-0.554c-0.107,-0.144 -0.313,-0.215 -0.617,-0.215c-0.306,-0 -0.536,0.074 -0.694,0.222c-0.157,0.149 -0.269,0.339 -0.336,0.575c-0.066,0.236 -0.118,0.497 -0.154,0.784l-0.641,5.102c-0.039,0.313 -0.048,0.588 -0.028,0.824c0.022,0.236 0.096,0.416 0.223,0.541c0.129,0.126 0.326,0.187 0.594,0.187c0.296,-0 0.515,-0.071 0.659,-0.215c0.141,-0.142 0.245,-0.334 0.307,-0.575c0.062,-0.24 0.111,-0.495 0.144,-0.762l0.138,-1.096l2.218,-0l-0.117,0.929c-0.082,0.656 -0.247,1.236 -0.495,1.74c-0.249,0.503 -0.618,0.901 -1.107,1.192c-0.489,0.291 -1.146,0.437 -1.969,0.437" style="fill:#233239;fill-rule:nonzero;"/><path d="M564.974,373.516c-0.693,-0 -1.255,-0.127 -1.685,-0.382c-0.43,-0.254 -0.731,-0.637 -0.903,-1.15c-0.171,-0.513 -0.225,-1.167 -0.162,-1.961l2.012,-0.333c-0.041,0.461 -0.041,0.847 -0,1.158c0.039,0.308 0.13,0.54 0.273,0.692c0.142,0.153 0.333,0.229 0.574,0.229c0.295,-0 0.508,-0.093 0.637,-0.277c0.13,-0.185 0.211,-0.398 0.241,-0.638c0.059,-0.472 -0.005,-0.867 -0.191,-1.186c-0.186,-0.317 -0.444,-0.64 -0.773,-0.963l-1.037,-1.012c-0.372,-0.351 -0.662,-0.748 -0.869,-1.192c-0.208,-0.444 -0.272,-0.989 -0.191,-1.636c0.117,-0.925 0.476,-1.633 1.079,-2.128c0.603,-0.495 1.376,-0.742 2.318,-0.742c0.565,-0 1.015,0.092 1.352,0.278c0.338,0.185 0.585,0.432 0.746,0.741c0.159,0.311 0.256,0.648 0.289,1.012c0.032,0.366 0.036,0.728 0.008,1.089l-1.991,0.29c0.025,-0.34 0.033,-0.642 0.023,-0.901c-0.009,-0.257 -0.067,-0.462 -0.172,-0.61c-0.107,-0.148 -0.285,-0.222 -0.535,-0.222c-0.268,0 -0.479,0.1 -0.633,0.298c-0.155,0.199 -0.246,0.42 -0.276,0.66c-0.051,0.396 -0.002,0.723 0.147,0.976c0.148,0.255 0.361,0.521 0.642,0.798l1.01,0.998c0.42,0.408 0.766,0.871 1.037,1.393c0.272,0.522 0.361,1.167 0.264,1.934c-0.066,0.527 -0.246,1.003 -0.541,1.428c-0.293,0.425 -0.669,0.758 -1.129,0.999c-0.461,0.239 -0.982,0.36 -1.564,0.36" style="fill:#233239;fill-rule:nonzero;"/><path d="M507.725,260.819l-11.043,-58.313l36.666,-0l-25.623,58.313Z" style="fill:#00c49a;fill-rule:nonzero;stroke:#233239;stroke-width:1px;"/><rect x="505.897" y="170.382" width="39.127" height="39.126" style="fill:#fff;stroke:#233239;stroke-width:1px;"/><path d="M545.024,184.018l-4.791,-4.054l-9.182,12.776l-9.183,-4.79l-15.971,21.559l39.127,0l0,-25.491Z" style="fill:#233239;fill-rule:nonzero;stroke:#233239;stroke-width:1px;"/><path d="M524.263,180.763c0,2.866 -2.323,5.191 -5.191,5.191c-2.866,-0 -5.189,-2.325 -5.189,-5.191c-0,-2.866 2.323,-5.19 5.189,-5.19c2.868,0 5.191,2.324 5.191,5.19" style="fill:#233239;fill-rule:nonzero;"/><path d="M524.263,180.764c0,-2.865 -2.326,-5.191 -5.19,-5.191c-2.865,0 -5.19,2.326 -5.19,5.191c-0,2.864 2.325,5.19 5.19,5.19c2.864,-0 5.19,-2.326 5.19,-5.19Z" style="fill:none;stroke:#233239;stroke-width:1px;"/><path d="M566.906,193.48l-1.716,4.167l-51.28,0l-6.185,63.172l87.47,-0l6.416,-67.648l-34.705,0.309Z" style="fill:#00c49a;fill-rule:nonzero;stroke:#233239;stroke-width:1px;"/><path d="M568.599,245.536l-33.338,0l4.598,-33.338l33.338,0l-4.598,33.338Z" style="fill:none;fill-rule:nonzero;stroke:#233239;stroke-width:1px;"/><path d="M571.594,223.817l-3.605,-3.455l-9.326,10.887l-7.261,-4.083l-16.141,18.371l33.338,-0l2.995,-21.72Z" style="fill:none;fill-rule:nonzero;stroke:#233239;stroke-width:1px;"/><path d="M554.287,221.043c-0.337,2.442 -2.59,4.423 -5.032,4.423c-2.442,-0 -4.149,-1.981 -3.813,-4.423c0.338,-2.442 2.591,-4.423 5.033,-4.423c2.442,0 4.15,1.981 3.812,4.423Z" style="fill:none;fill-rule:nonzero;stroke:#233239;stroke-width:1px;"/><path d="M151.086,386.403l-11.043,-58.313l36.666,-0l-25.623,58.313Z" style="fill:#00c49a;fill-rule:nonzero;stroke:#233239;stroke-width:1px;"/><path d="M233.716,381.514l-82.898,0l-3.93,-59.671l86.828,-0l0,59.671Z" style="fill:#fff;fill-rule:nonzero;stroke:#233239;stroke-width:1px;"/><rect x="150.818" y="321.843" width="86.829" height="59.672" style="fill:#fff;stroke:#233239;stroke-width:1px;"/><path d="M210.267,319.064l-1.716,4.166l-51.28,0l-6.185,63.173l87.469,-0l6.417,-67.649l-34.705,0.31Z" style="fill:#00c49a;fill-rule:nonzero;stroke:#233239;stroke-width:1px;"/><path d="M187.308,371.164l-8.691,-0l3.92,-31.145l8.691,-0l-3.92,31.145Z" style="fill:none;fill-rule:nonzero;stroke:#233239;stroke-width:1px;"/><path d="M199.259,371.164l-8.691,-0l2.669,-21.201l8.691,-0l-2.669,21.201Z" style="fill:none;fill-rule:nonzero;stroke:#233239;stroke-width:1px;"/><path d="M211.211,371.164l-8.692,-0l1.61,-12.791l8.692,0l-1.61,12.791Z" style="fill:none;fill-rule:nonzero;stroke:#233239;stroke-width:1px;"/><path d="M223.162,371.164l-8.692,-0l2.493,-19.812l8.692,0l-2.493,19.812Z" style="fill:none;fill-rule:nonzero;stroke:#233239;stroke-width:1px;"/><path d="M174.448,375.51l51.788,-0" style="fill:none;fill-rule:nonzero;stroke:#233239;stroke-width:1px;"/><path d="M179.371,336.397l51.789,0" style="fill:none;fill-rule:nonzero;stroke:#233239;stroke-width:1px;"/><path d="M173.577,336.397l3.984,0" style="fill:none;fill-rule:nonzero;stroke:#233239;stroke-width:1px;"/><path d="M172.592,344.22l3.984,-0" style="fill:none;fill-rule:nonzero;stroke:#233239;stroke-width:1px;"/><path d="M171.608,352.042l3.983,0" style="fill:none;fill-rule:nonzero;stroke:#233239;stroke-width:1px;"/><path d="M170.623,359.865l3.984,-0" style="fill:none;fill-rule:nonzero;stroke:#233239;stroke-width:1px;"/><path d="M169.638,367.687l3.984,0" style="fill:none;fill-rule:nonzero;stroke:#233239;stroke-width:1px;"/><path d="M168.654,375.51l3.983,-0" style="fill:none;fill-rule:nonzero;stroke:#233239;stroke-width:1px;"/><path d="M151.086,270.143l-11.043,-58.313l36.666,0l-25.623,58.313Z" style="fill:#00c49a;fill-rule:nonzero;stroke:#233239;stroke-width:1px;"/><path d="M187.728,242.277l-35.933,0l0,-46.313l28.373,0l7.56,7.952l-0,38.361Z" style="fill:#fff;fill-rule:nonzero;stroke:#233239;stroke-width:1px;"/><rect x="151.795" y="223.073" width="35.933" height="19.205" style="fill:#00c49a;stroke:#233239;stroke-width:1px;"/><path d="M187.728,203.916l-7.735,-0l-0,-7.951l7.735,7.951Z" style="fill:#ccc;fill-rule:nonzero;stroke:#233239;stroke-width:1px;"/><path d="M160.158,210.683l19.206,-0" style="fill:none;fill-rule:nonzero;stroke:#233239;stroke-width:1px;"/><path d="M160.158,214.559l19.206,0" style="fill:none;fill-rule:nonzero;stroke:#233239;stroke-width:1px;"/><path d="M160.158,218.436l19.206,-0" style="fill:none;fill-rule:nonzero;stroke:#233239;stroke-width:1px;"/><path d="M162.739,230.622l0.764,-0c0.317,-0 0.56,-0.051 0.733,-0.152c0.171,-0.1 0.286,-0.261 0.349,-0.48c0.061,-0.22 0.091,-0.502 0.091,-0.844c-0,-0.325 -0.023,-0.597 -0.072,-0.816c-0.048,-0.22 -0.156,-0.392 -0.323,-0.515c-0.167,-0.123 -0.43,-0.184 -0.791,-0.184l-0.751,-0l0,2.991Zm-2.174,6.153l0,-10.673l3.386,0c0.642,0 1.165,0.121 1.569,0.363c0.404,0.241 0.705,0.59 0.903,1.048c0.197,0.456 0.295,1.01 0.295,1.66c0,0.764 -0.129,1.361 -0.388,1.792c-0.26,0.43 -0.612,0.735 -1.06,0.915c-0.449,0.18 -0.963,0.27 -1.543,0.27l-0.988,0l0,4.625l-2.174,-0Z" style="fill:#233239;fill-rule:nonzero;"/><path d="M169.934,235.26l0.461,0c0.404,0 0.692,-0.063 0.863,-0.191c0.171,-0.128 0.278,-0.316 0.323,-0.567c0.044,-0.249 0.065,-0.56 0.065,-0.929l-0,-4.4c-0,-0.37 -0.028,-0.666 -0.086,-0.89c-0.056,-0.224 -0.171,-0.389 -0.342,-0.494c-0.171,-0.105 -0.45,-0.159 -0.836,-0.159l-0.448,0l-0,7.63Zm-2.175,1.515l0,-10.673l2.609,-0c0.906,-0 1.611,0.117 2.115,0.35c0.505,0.232 0.863,0.597 1.074,1.093c0.211,0.497 0.316,1.131 0.316,1.904l0,3.887c0,0.791 -0.105,1.441 -0.316,1.951c-0.211,0.509 -0.564,0.885 -1.061,1.126c-0.496,0.242 -1.188,0.362 -2.075,0.362l-2.662,-0Z" style="fill:#233239;fill-rule:nonzero;"/><path d="M175.309,236.775l0,-10.673l4.507,0l-0,1.477l-2.333,-0l0,2.885l1.977,-0l0,1.515l-1.977,0l0,4.796l-2.174,0Z" style="fill:#233239;fill-rule:nonzero;"/><path d="M210.267,202.804l-1.716,4.168l-51.28,-0l-6.185,63.171l87.469,-0l6.417,-67.648l-34.705,0.309Z" style="fill:#00c49a;fill-rule:nonzero;stroke:#233239;stroke-width:1px;"/><path d="M217.466,225.224l-3.582,35.595l-33.342,0l4.321,-42.977l26.168,-0l-0.74,7.382l7.175,-0Z" style="fill:none;fill-rule:nonzero;stroke:#233239;stroke-width:1px;"/><path d="M217.466,225.224l-6.435,-7.382l0.161,-0l6.274,7.382Z" style="fill:none;fill-rule:nonzero;stroke:#233239;stroke-width:1px;"/><path d="M182.335,242.999l-1.794,17.82l33.342,0l1.794,-17.82l-33.342,-0Z" style="fill:none;fill-rule:nonzero;stroke:#233239;stroke-width:1px;"/><path d="M217.466,225.224l-7.175,-0l0.74,-7.382l6.435,7.382Z" style="fill:none;fill-rule:nonzero;stroke:#233239;stroke-width:1px;"/><path d="M191.253,231.502l17.822,0" style="fill:none;fill-rule:nonzero;stroke:#233239;stroke-width:1px;"/><path d="M190.891,235.099l17.821,0" style="fill:none;fill-rule:nonzero;stroke:#233239;stroke-width:1px;"/><path d="M190.528,238.696l17.822,0" style="fill:none;fill-rule:nonzero;stroke:#233239;stroke-width:1px;"/><path d="M191.785,250.004l0.709,-0c0.294,-0 0.525,-0.047 0.692,-0.141c0.169,-0.094 0.293,-0.242 0.37,-0.446c0.077,-0.204 0.132,-0.465 0.164,-0.782c0.03,-0.302 0.034,-0.555 0.009,-0.758c-0.024,-0.204 -0.108,-0.363 -0.251,-0.477c-0.144,-0.115 -0.383,-0.171 -0.717,-0.171l-0.696,-0l-0.28,2.775Zm-2.593,5.709l0.997,-9.903l3.143,-0c0.595,-0 1.069,0.112 1.421,0.336c0.352,0.224 0.6,0.549 0.739,0.973c0.141,0.423 0.182,0.937 0.121,1.54c-0.072,0.709 -0.248,1.264 -0.528,1.662c-0.281,0.4 -0.637,0.683 -1.07,0.851c-0.432,0.166 -0.918,0.25 -1.456,0.25l-0.917,0l-0.432,4.291l-2.018,0Z" style="fill:#233239;fill-rule:nonzero;"/><path d="M198.027,254.308l0.428,-0c0.375,-0 0.648,-0.059 0.819,-0.178c0.171,-0.118 0.287,-0.294 0.352,-0.525c0.064,-0.233 0.113,-0.52 0.148,-0.863l0.411,-4.083c0.035,-0.343 0.036,-0.618 0.004,-0.826c-0.033,-0.208 -0.123,-0.36 -0.272,-0.457c-0.149,-0.098 -0.403,-0.148 -0.761,-0.148l-0.416,-0l-0.713,7.08Zm-2.159,1.406l0.997,-9.904l2.422,0c0.839,0 1.482,0.108 1.929,0.324c0.447,0.216 0.745,0.554 0.894,1.015c0.149,0.46 0.188,1.049 0.116,1.767l-0.363,3.607c-0.074,0.733 -0.232,1.336 -0.476,1.809c-0.243,0.472 -0.607,0.821 -1.09,1.045c-0.482,0.225 -1.135,0.337 -1.959,0.337l-2.47,-0Z" style="fill:#233239;fill-rule:nonzero;"/><path d="M202.874,255.713l0.997,-9.903l4.182,0l-0.139,1.369l-2.164,0l-0.269,2.678l1.834,0l-0.141,1.406l-1.835,0l-0.448,4.45l-2.017,0Z" style="fill:#233239;fill-rule:nonzero;"/></g></svg>