<?xml version="1.0" encoding="UTF-8" standalone="no"?><!DOCTYPE svg PUBLIC "-//W3C//DTD SVG 1.1//EN" "http://www.w3.org/Graphics/SVG/1.1/DTD/svg11.dtd"><svg width="100%" height="100%" viewBox="0 0 3125 2084" version="1.1" xmlns="http://www.w3.org/2000/svg" xmlns:xlink="http://www.w3.org/1999/xlink" xml:space="preserve" xmlns:serif="http://www.serif.com/" style="fill-rule:evenodd;clip-rule:evenodd;stroke-linecap:round;stroke-linejoin:round;stroke-miterlimit:10;"><g id="BACKGROUND"><path d="M1363.89,785.663c168.7,-95.888 198.766,-218.65 235.495,-328.721c71.38,-213.887 390.121,-403.108 456.484,-229.075c68.808,180.471 -133.646,387.408 -79.146,537.85c99.454,274.55 105.604,428.442 0.442,591.229c-77.163,119.442 -183.867,24.679 -316.055,-105.558c-86.679,-85.4 -179.133,-155.642 -358.25,-209.721c-164.583,-49.692 -107.804,-160.042 61.03,-256.004Z" style="fill:none;fill-rule:nonzero;stroke:#a7f9b9;stroke-width:8.33px;stroke-dasharray:0,29.17;"/><path d="M1405.09,790.141c137.449,-87.942 168.412,-190.542 204.483,-281.608c72.667,-183.484 322.871,-330.088 385.808,-200.421c67.417,138.887 -114.342,330.133 -89.862,496.696c30.191,205.416 100.866,313.441 24.929,447.65c-56.904,100.579 -133.988,37.516 -240.088,-54.938c-70.158,-61.129 -160.429,-120.308 -311.066,-172.892c-139.742,-49.291 -109.367,-148.008 25.795,-234.487Z" style="fill:none;fill-rule:nonzero;stroke:#a7f9b9;stroke-width:8.33px;stroke-linecap:butt;stroke-linejoin:miter;"/><path d="M1446.3,794.621c106.163,-80.225 144.558,-165.783 180.788,-237.329c82.291,-162.5 249.67,-253.904 307.82,-168.938c67.196,98.188 -98.841,278.217 -83.516,418.592c16.887,154.642 79.283,235.762 32.358,341.025c-36.546,81.975 -84.571,50.258 -164.129,-4.317c-53.954,-37.012 -141.888,-84.596 -263.883,-136.062c-115.046,-48.538 -110.996,-136.225 -9.438,-212.971Z" style="fill:none;fill-rule:nonzero;stroke:#a7f9b9;stroke-width:12.5px;stroke-linecap:butt;stroke-linejoin:miter;"/><path d="M1487.5,799.099c74.662,-72.929 108.792,-134.084 142.454,-187.396c77.221,-122.292 194.525,-184.067 244.475,-143.104c70.3,57.662 -72.846,219.771 -67.483,334.179c4.858,103.617 40.591,172.708 38.887,251.387c-0.921,42.63 -41.666,68.055 -96.962,35.617c-35.288,-20.696 -103.425,-63.812 -201.646,-103.671c-95.833,-38.887 -127.896,-120.421 -59.725,-187.012Z" style="fill:none;fill-rule:nonzero;stroke:#a7f9b9;stroke-width:4.17px;stroke-linecap:butt;stroke-linejoin:miter;"/><path d="M1528.7,803.577c42.267,-66.338 81.071,-104.167 111.437,-140.288c78.609,-93.496 127.671,-132.142 166.109,-128.912c78.275,6.57 -22.238,162.366 -30.138,250.741c-4.704,52.617 6.954,107.992 14.213,153.875c7.254,45.888 10.112,82.279 -12.204,96.925c-24.171,15.863 -100.367,-20.175 -169.513,-62.404c-79.442,-48.512 -115.471,-114.116 -79.904,-169.937Z" style="fill:none;fill-rule:nonzero;stroke:#a7f9b9;stroke-width:4.17px;stroke-linecap:butt;stroke-linejoin:miter;"/><path d="M1646.01,684.349c64.017,-70.629 107.634,-93.55 138.613,-90.738c61.471,5.434 -19.046,116.934 -25.567,188.971c-3.741,41.308 3.859,84.646 8.504,120.929c0.121,0.971 0.246,1.934 0.367,2.892c4.642,36.737 5.792,65.833 -12.017,77.558c-21.8,14.417 -86.316,-8.841 -138.108,-47.35c-51.787,-38.508 -91,-92.358 -61.779,-138.854c32.458,-51.654 63.371,-84.217 89.987,-113.408Z" style="fill:none;fill-rule:nonzero;stroke:#a7f9b9;stroke-width:4.17px;stroke-linecap:butt;stroke-linejoin:miter;"/><path d="M1651.88,705.406c46.717,-50.825 79.892,-69.359 103.417,-67.029c44.654,4.425 -8.15,85.966 -13.3,141.666c-2.888,31.379 1.358,64.192 3.37,91.596c0.059,0.729 0.113,1.454 0.167,2.175c2.025,27.588 1.454,49.363 -11.833,58.188c-19.463,12.925 -68.317,-3.371 -106.696,-32.292c-38.379,-28.921 -66.521,-70.583 -43.663,-107.771c22.705,-36.937 47.005,-63.1 68.538,-86.533Z" style="fill:none;fill-rule:nonzero;stroke:#a7f9b9;stroke-width:4.17px;stroke-linecap:butt;stroke-linejoin:miter;"/><path d="M1657.75,726.465c29.237,-31.179 52.154,-45.225 68.216,-43.321c27.846,3.296 2.742,55 -1.029,94.363c-2.046,21.441 -1.183,43.733 -1.758,62.258c-0.017,0.487 -0.029,0.975 -0.046,1.458c-0.588,18.438 -2.854,32.921 -11.65,38.821c-17.092,11.475 -50.317,2.096 -75.283,-17.237c-24.967,-19.33 -41.984,-48.771 -25.542,-76.688c13.05,-22.15 30.575,-42.042 47.092,-59.654Z" style="fill:none;fill-rule:nonzero;stroke:#a7f9b9;stroke-width:4.17px;stroke-linecap:butt;stroke-linejoin:miter;"/><path d="M1637.97,780.302c3.671,-7.208 14.042,-21.092 25.642,-32.779c11.6,-11.688 24.433,-21.179 33.025,-19.613c11.054,2.017 13.633,24.034 11.233,47.059c-1.196,11.512 -3.637,23.279 -6.883,32.925c-3.246,9.641 -7.3,17.166 -11.717,20.196c-14.692,10.07 -32.321,7.562 -43.879,-2.184c-11.55,-9.746 -17.033,-26.729 -7.421,-45.604Z" style="fill:none;fill-rule:nonzero;stroke:#a7f9b9;stroke-width:4.17px;stroke-linecap:butt;stroke-linejoin:miter;"/><path d="M-354.035,779.586c113.688,28.941 246.092,-7.575 309.588,-80.609c96.9,-111.816 -18.792,-307.591 -154.179,-194.316c-102.025,85.362 -241.609,252.979 -155.409,274.925Z" style="fill:none;fill-rule:nonzero;stroke:#fff;stroke-width:4.17px;stroke-linecap:butt;stroke-linejoin:miter;"/><path d="M2635.77,-334.835c49.779,525.967 -384.042,658.921 -519.1,536.142c-137.5,-125 -215.721,-109.592 -363.888,-16.584c-190.279,119.442 -200.696,359.025 -281.946,463.192c-81.25,104.167 -189.941,107.221 -151.387,-29.858c37.5,-133.334 -17.363,-231.6 -110.892,-268.059c-119.546,-46.6 -246.054,-12.5 -452.304,224.98c-130,149.683 -356.25,54.187 -412.5,-99.98c-103.383,-283.337 172.721,-503.691 481.646,-575.954" style="fill:none;fill-rule:nonzero;stroke:#a7f9b9;stroke-width:8.33px;stroke-miterlimit:4;stroke-dasharray:0,29.1;"/><path d="M2138.89,343.056c4.166,113.888 -124.742,184.817 -113.605,344.446c12.717,182.15 144.163,236.108 61.021,521.142c-89.192,305.766 -16.433,287.925 188.867,60.325c53.212,-58.988 142.508,-144.459 212.204,-250.679c69.692,-106.225 119.783,-233.205 94.592,-375.217c-25.196,-142.017 -144.35,-259.704 -253.017,-320.546c-108.663,-60.846 -193.242,-66.417 -190.063,20.529Z" style="fill:none;fill-rule:nonzero;stroke:#a7f9b9;stroke-width:8.33px;stroke-linecap:butt;stroke-linejoin:miter;"/><path d="M2179.96,386.11c19.392,127.096 -108.471,158.309 -95.879,305.05c8.208,95.675 43.738,154.263 59.579,253.917c10.742,69.071 11.521,136.879 -9.512,218.375c-59.788,231.604 -8.159,214.692 150.854,41.042c44.004,-48.063 116.483,-118.038 177.058,-205.017c63.813,-91.608 105.725,-201.775 88.329,-324.262c-10.8,-76.059 -47.8,-146.488 -94.416,-204.43c-37.738,-46.908 -81.088,-85.691 -122.367,-109.508c-87.083,-50.254 -165.192,-50.875 -153.646,24.833Z" style="fill:none;fill-rule:nonzero;stroke:#a7f9b9;stroke-width:12.5px;stroke-linecap:butt;stroke-linejoin:miter;"/><path d="M2221.03,429.167c11.633,117.571 -79.688,153.366 -78.155,265.658c1.067,78.321 19.984,131.367 34.509,228.967c11.487,77.162 15.579,137.987 4.604,194.471c-30.508,156.987 0.346,141.645 112.837,21.749c34.821,-37.116 90.684,-91.5 141.921,-159.341c58.104,-76.921 92.225,-170.488 82.067,-273.317c-7.096,-71.787 -36.696,-140.258 -74.633,-196.925c-32.746,-48.904 -70.517,-89.104 -105.921,-110.404c-65.604,-39.467 -123.754,-36.846 -117.229,29.142Z" style="fill:none;fill-rule:nonzero;stroke:#a7f9b9;stroke-width:4.17px;stroke-linecap:butt;stroke-linejoin:miter;"/><path d="M2262.09,472.223c3.417,108.112 -51.958,148.621 -60.433,226.262c-6.667,61.125 -4.171,108.53 9.445,204.025c11.913,85.3 19.692,138.055 18.717,170.559c-2.429,80.775 9.329,69.012 74.821,2.462c25.708,-26.121 65.2,-64.75 106.783,-113.666c52.721,-62.025 79.429,-139.296 75.796,-222.367c-2.954,-67.579 -25.229,-134.283 -54.842,-189.425c-27.454,-51.113 -60.012,-92.404 -89.479,-111.3c-44.283,-28.392 -82.587,-22.779 -80.808,33.45Z" style="fill:none;fill-rule:nonzero;stroke:#a7f9b9;stroke-width:4.17px;stroke-linecap:butt;stroke-linejoin:miter;"/><path d="M2303.16,515.277c-5.554,98.613 -26.388,143.392 -42.709,186.871c-16.32,43.479 -28.125,85.658 -15.625,179.075c12.5,93.417 16.367,139.325 32.834,146.65c8.229,3.667 19.616,-2.313 36.808,-16.821c17.188,-14.512 40.183,-37.546 71.642,-67.996c48.012,-46.475 67.487,-108.075 69.533,-171.421c2.046,-63.345 -13.342,-128.441 -35.058,-181.916c-21.717,-53.475 -49.767,-95.334 -73.038,-112.196c-23.271,-16.863 -41.766,-8.738 -44.387,37.754Z" style="fill:none;fill-rule:nonzero;stroke:#a7f9b9;stroke-width:4.17px;stroke-linecap:butt;stroke-linejoin:miter;"/><path d="M2295.86,-328.542c-124.905,61.75 -57.771,298.987 -229.196,361.875c-152.971,56.117 -268.75,29.167 -426.271,205.908c-211.917,237.779 -218.671,188.025 -162.683,-113.333c14.508,-78.108 28.12,-200.963 70.129,-320.863c42.008,-119.9 112.408,-236.845 240.496,-303.141c128.095,-66.296 293.97,-43.188 408.325,6.137c114.358,49.325 177.191,124.859 99.2,163.417Z" style="fill:none;fill-rule:nonzero;stroke:#a7f9b9;stroke-width:12.5px;stroke-linecap:butt;stroke-linejoin:miter;"/><path d="M1823.45,-474.162c123.337,-58.55 266.52,-29.491 338.862,16.609c76.225,48.579 122.604,102.504 60.65,135.8c-102.467,55.058 -6.496,216.958 -129.212,292.587c-125.388,77.271 -215.613,25.4 -412.43,183.025c-220.591,176.667 -202.812,170.013 -155.758,-99.492c12.817,-75.175 32.296,-180.541 76.071,-280.495c43.771,-99.955 111.312,-195.575 221.817,-248.034Z" style="fill:none;fill-rule:nonzero;stroke:#a7f9b9;stroke-width:4.17px;stroke-linecap:butt;stroke-linejoin:miter;"/><path d="M1858.56,-450.226c118.884,-50.396 247.55,-27.916 269.396,27.075c45.904,34.346 68.058,80.292 22.108,108.179c-80.004,48.559 -15.091,150.538 -102.15,210.805c-92.337,63.925 -133.333,58.333 -325.675,180.975c-209.429,133.537 -186.195,143.791 -148.825,-93.98c11.35,-72.208 36.467,-160.12 82.005,-240.129c45.537,-80.008 110.591,-153.696 203.141,-192.925Z" style="fill:none;fill-rule:nonzero;stroke:#a7f9b9;stroke-width:4.17px;stroke-linecap:butt;stroke-linejoin:miter;"/><path d="M1893.67,-426.292c114.842,-41.396 224.342,-20.283 199.934,37.546c11.675,26.854 13.621,58.333 -16.438,80.562c-57.396,42.442 -50.15,101.338 -101.725,145.788c-59.162,50.987 -103.991,66.471 -212.279,157.983c-165.429,139.808 -170.496,121.579 -141.896,-84.3c9.629,-69.279 40.642,-139.696 87.942,-199.762c47.3,-60.063 110.229,-111.055 184.462,-137.817Z" style="fill:none;fill-rule:nonzero;stroke:#a7f9b9;stroke-width:4.17px;stroke-linecap:butt;stroke-linejoin:miter;"/><path d="M2059.26,-354.342c-74.933,64.338 -97.837,108.096 -122.45,147.48c-24.612,39.383 -50.937,74.391 -132.721,121.233c-163.566,93.683 -155.225,99.317 -134.962,-74.625c7.733,-66.375 44.812,-119.275 93.875,-159.392c49.071,-40.121 110.116,-67.458 165.787,-82.708c111.329,-30.504 201.129,-12.654 130.471,48.012Z" style="fill:none;fill-rule:nonzero;stroke:#a7f9b9;stroke-width:4.17px;stroke-linecap:butt;stroke-linejoin:miter;"/><path d="M2350.78,618.791c-34.179,40.379 -79.979,183.679 -50.067,247.692c29.917,64.012 81.325,-1.575 94.167,-97.305c12.838,-95.729 -19.825,-179.07 -44.1,-150.387Z" style="fill:none;fill-rule:nonzero;stroke:#a7f9b9;stroke-width:12.5px;stroke-linecap:butt;stroke-linejoin:miter;"/><path d="M2455.83,1278.3c-108.113,382.113 -336.38,245.129 -419.713,167.442c-83.333,-77.692 -147.225,72.308 -58.333,250.087c88.887,177.78 -113.892,402.78 -66.667,619.446c47.221,216.667 1722.61,75.767 902.775,-208.333c-140.275,-48.613 -330.025,-324.921 -113.887,-616.667c342.504,-462.329 289.079,-686.883 86.112,-664.579c-252.779,27.779 -284.608,291.163 -330.287,452.604Z" style="fill:none;fill-rule:nonzero;stroke:#a7f9b9;stroke-width:8.33px;stroke-miterlimit:4;stroke-dasharray:0,29.19;"/><path d="M2651.39,1445.74c80.733,-48.1 124.483,-95.617 179.85,-183.184c55.366,-87.562 76.904,-167.054 77.095,-233.633c0.28,-97.679 -77.083,-193.537 -187.479,-141.429c-65.504,30.921 -117.071,109.046 -155.908,192.462c-38.838,83.413 -53.079,191.188 -58.1,245.038c-13.196,141.579 62.804,169.446 144.542,120.746Z" style="fill:none;fill-rule:nonzero;stroke:#a7f9b9;stroke-width:4.17px;stroke-linecap:butt;stroke-linejoin:miter;"/><path d="M2661.64,1380.8c60.254,-35.9 92.908,-71.37 134.233,-136.725c41.329,-65.358 57.4,-124.687 57.542,-174.379c0.208,-72.908 -57.53,-144.454 -139.93,-105.562c-48.891,23.079 -87.379,81.391 -116.366,143.654c-28.988,62.258 -39.621,142.696 -43.367,182.887c-9.85,105.671 46.875,126.475 107.888,90.125Z" style="fill:none;fill-rule:nonzero;stroke:#a7f9b9;stroke-width:4.17px;stroke-linecap:butt;stroke-linejoin:miter;"/><path d="M2671.88,1315.85c39.779,-23.7 61.342,-47.117 88.625,-90.267c27.279,-43.15 37.892,-82.317 37.988,-115.125c0.137,-48.133 -37.984,-95.367 -92.384,-69.692c-32.274,15.238 -57.687,53.734 -76.829,94.838c-19.133,41.104 -26.154,94.212 -28.629,120.75c-6.5,69.762 30.95,83.496 71.229,59.496Z" style="fill:none;fill-rule:nonzero;stroke:#a7f9b9;stroke-width:4.17px;stroke-linecap:butt;stroke-linejoin:miter;"/><path d="M2682.13,1250.9c19.308,-11.504 29.771,-22.866 43.008,-43.808c13.242,-20.942 18.392,-39.95 18.438,-55.871c0.066,-23.358 -18.434,-46.283 -44.834,-33.821c-15.662,7.392 -27.996,26.075 -37.283,46.025c-9.288,19.946 -12.696,45.721 -13.896,58.596c-3.158,33.859 15.021,40.525 34.567,28.879Z" style="fill:none;fill-rule:nonzero;stroke:#a7f9b9;stroke-width:12.5px;stroke-linecap:butt;stroke-linejoin:miter;"/><path d="M941.667,-54.167c-108.279,25.175 -230.913,81.659 -329.396,150.134c-98.483,68.475 -172.817,148.941 -184.492,222.087c-17.133,107.317 70.971,248.613 201.288,210.35c77.321,-22.704 147.458,-99.691 204.516,-184.687c57.055,-85 101.034,-178.004 126.034,-232.742c50,-109.471 119.896,-197.192 -17.95,-165.142Z" style="fill:none;fill-rule:nonzero;stroke:#a7f9b9;stroke-width:12.5px;stroke-linecap:butt;stroke-linejoin:miter;"/><path d="M638.163,118.49c-42.891,28.466 -81.083,59.904 -109.345,91.925c-26.555,29.975 -44.371,60.47 -49.005,89.487c-14.054,88.046 56.85,202.375 163.767,170.988c61.833,-18.155 118.025,-78.925 164.008,-146.463c20.238,-29.737 38.484,-60.783 54.363,-90.054c19.775,-36.567 35.8,-70.275 47.296,-95c9.979,-21.55 20.829,-42.079 29.954,-60.45c27.392,-55.163 39.171,-89.746 -37.888,-74.367c-79.291,15.829 -180.033,58.859 -263.15,113.934Z" style="fill:none;fill-rule:nonzero;stroke:#a7f9b9;stroke-width:4.17px;stroke-linecap:butt;stroke-linejoin:miter;"/><path d="M664.054,141.014c-34.766,21.458 -66.612,45.65 -90.433,70.466c-22.683,23.45 -38.134,47.492 -41.771,70.271c-10.979,68.775 42.725,156.142 126.242,131.625c46.341,-13.608 88.591,-58.162 123.504,-108.237c15.271,-21.938 29.121,-44.921 41.287,-66.788c14.784,-26.766 26.959,-51.691 35.992,-70.583c7.571,-15.979 15.667,-31.263 22.554,-45.046c20.259,-40.6 29.867,-65.979 -20.466,-59.442c-50.43,6.55 -129.155,36.055 -196.909,77.734Z" style="fill:none;fill-rule:nonzero;stroke:#a7f9b9;stroke-width:4.17px;stroke-linecap:butt;stroke-linejoin:miter;"/><path d="M689.948,163.538c-26.642,14.45 -52.096,31.437 -71.525,49.004c-18.767,16.975 -31.896,34.512 -34.538,51.058c-7.904,49.504 28.604,109.913 88.721,92.258c30.854,-9.058 59.158,-37.391 82.996,-70.008c10.304,-14.133 19.796,-29.037 28.212,-43.521c9.838,-16.941 18.163,-33.091 24.692,-46.162c5.196,-10.404 10.508,-20.45 15.154,-29.646c13.121,-26.038 20.088,-41.879 -3.05,-44.517c-22.271,-2.537 -78.275,13.254 -130.662,41.534Z" style="fill:none;fill-rule:nonzero;stroke:#a7f9b9;stroke-width:12.5px;stroke-linecap:butt;stroke-linejoin:miter;"/><path d="M2353.11,1341.67c14.6,93.392 -68.559,175.421 -119.913,139.425c-113.691,-79.683 105.763,-229.946 119.913,-139.425Z" style="fill:none;fill-rule:nonzero;stroke:#a7f9b9;stroke-width:4.17px;stroke-linecap:butt;stroke-linejoin:miter;"/><path d="M2892.52,181.714c59.529,51.225 51.092,147.912 -0.787,152.791c-114.846,10.813 -56.917,-202.445 0.787,-152.791Z" style="fill:none;fill-rule:nonzero;stroke:#a7f9b9;stroke-width:4.17px;stroke-linecap:butt;stroke-linejoin:miter;"/><path d="M2997.12,1011.71c-45.045,275.791 -168.475,362.746 -288.85,573.325c-133.8,234.066 7.68,512.983 439.459,627.579c431.779,114.592 -18.334,-326.042 185.225,-678.183c203.554,-352.142 -285.771,-829.205 -335.834,-522.721Z" style="fill:none;fill-rule:nonzero;stroke:#a7f9b9;stroke-width:8.33px;stroke-miterlimit:4;stroke-dasharray:0,29.23;"/><path d="M3009.19,1060.82c-43.929,249.763 -156.504,331.434 -265.067,523.634c-120.5,213.075 6.988,467.1 400.15,571.446c393.163,104.345 -16.691,-296.88 168.659,-617.53c185.354,-320.645 -253.921,-756.304 -303.742,-477.55Z" style="fill:none;fill-rule:nonzero;stroke:#a7f9b9;stroke-width:8.33px;stroke-linecap:butt;stroke-linejoin:miter;"/><path d="M3021.26,1109.92c-43.479,223.604 -144.525,300.113 -241.284,473.938c-107.2,192.083 6.3,421.221 360.846,515.316c354.55,94.096 -15.05,-267.716 152.096,-556.875c167.146,-289.15 -222.821,-683.558 -271.658,-432.379Z" style="fill:none;fill-rule:nonzero;stroke:#a7f9b9;stroke-width:12.5px;stroke-linecap:butt;stroke-linejoin:miter;"/><path d="M3033.32,1159.03c-42.641,197.504 -132.546,268.804 -217.496,424.242c-93.904,171.1 5.613,375.342 321.542,459.187c315.929,83.85 -13.412,-238.554 135.525,-496.212c148.942,-257.658 -191.304,-610.754 -239.571,-387.217Z" style="fill:none;fill-rule:nonzero;stroke:#a7f9b9;stroke-width:4.17px;stroke-linecap:butt;stroke-linejoin:miter;"/><path d="M3045.39,1208.14c-41.763,171.392 -120.567,237.487 -193.713,374.55c-80.604,150.104 4.93,329.458 282.238,403.058c277.312,73.596 -11.771,-209.4 118.962,-435.562c130.734,-226.163 -159.741,-537.963 -207.487,-342.046Z" style="fill:none;fill-rule:nonzero;stroke:#a7f9b9;stroke-width:4.17px;stroke-linecap:butt;stroke-linejoin:miter;"/><path d="M3057.45,1257.25c-40.821,145.271 -108.592,206.171 -169.93,324.854c-67.308,129.113 4.242,283.575 242.934,346.929c238.696,63.35 -10.134,-180.237 102.396,-374.904c112.529,-194.671 -128.109,-465.187 -175.4,-296.879Z" style="fill:none;fill-rule:nonzero;stroke:#a7f9b9;stroke-width:4.17px;stroke-linecap:butt;stroke-linejoin:miter;"/><path d="M3069.52,1306.35c-39.762,119.158 -96.387,174.971 -146.146,275.158c-53.762,108.254 3.554,237.704 203.634,290.8c200.07,53.1 -8.496,-151.075 85.825,-314.246c94.321,-163.175 -96.359,-392.412 -143.313,-251.712Z" style="fill:none;fill-rule:nonzero;stroke:#a7f9b9;stroke-width:4.17px;stroke-linecap:butt;stroke-linejoin:miter;"/><path d="M3081.58,1355.46c-38.525,93.063 -84.413,143.65 -122.359,225.463c-40.47,87.25 2.867,191.821 164.325,234.675c161.455,42.846 -6.854,-121.921 69.259,-253.596c76.116,-131.675 -64.413,-319.612 -111.225,-206.542Z" style="fill:none;fill-rule:nonzero;stroke:#a7f9b9;stroke-width:4.17px;stroke-linecap:butt;stroke-linejoin:miter;"/><path d="M3093.65,1404.57c-36.988,67.083 -72.484,112.3 -98.58,175.77c-27.225,66.221 2.184,145.938 125.025,178.538c122.834,32.6 -5.216,-92.758 52.692,-192.938c57.912,-100.179 -32.104,-246.679 -79.138,-161.37Z" style="fill:none;fill-rule:nonzero;stroke:#a7f9b9;stroke-width:4.17px;stroke-linecap:butt;stroke-linejoin:miter;"/><path d="M3105.72,1453.67c-34.967,41.546 -60.679,80.917 -74.792,126.079c-14.112,45.159 1.496,100.055 85.717,122.409c84.221,22.35 -3.575,-63.596 36.129,-132.279c39.7,-68.692 0.879,-173.15 -47.054,-116.209Z" style="fill:none;fill-rule:nonzero;stroke:#a7f9b9;stroke-width:12.5px;stroke-linecap:butt;stroke-linejoin:miter;"/><path d="M999.133,221.177c72.396,2.433 129.442,7.517 207.117,23.963c43.167,9.137 98.55,24.262 131.946,-4.167c33.392,-28.429 45.262,-91.713 20.146,-186.896c-18.654,-70.696 -25.909,-119.708 -44.692,-146.15c-18.779,-26.442 -49.083,-30.308 -113.837,-10.704c-63.713,19.287 -139.017,104.042 -185.825,182.092c-46.805,78.05 -65.65,140.154 -14.855,141.862Z" style="fill:none;fill-rule:nonzero;stroke:#a7f9b9;stroke-width:4.17px;stroke-linecap:butt;stroke-linejoin:miter;"/><path d="M1043.03,186.707c33.862,11.229 70.225,11.404 105.275,16.266c20.121,2.788 40.083,7.013 60.362,8.238c29.234,1.762 61.063,-4.475 83.938,-23.95c24.167,-20.575 28.554,-52.6 10.379,-121.479c-13.5,-51.163 -18.75,-86.634 -32.342,-105.771c-13.591,-19.134 -35.52,-21.934 -82.383,-7.746c-46.108,13.958 -100.604,75.296 -134.475,131.779c-33.875,56.483 -45.667,91.088 -10.754,102.663Z" style="fill:none;fill-rule:nonzero;stroke:#a7f9b9;stroke-width:4.17px;stroke-linecap:butt;stroke-linejoin:miter;"/><path d="M2415.9,141.321c117.433,-68.404 281.137,-331.208 315.712,-559.504c27.125,-179.129 2.225,-355.559 -85.987,-481.454c-191.225,-272.909 -708.43,-281.213 -569.821,122.233c138.604,403.446 318.279,288.354 129.621,641.733c-188.659,353.379 85.245,349.938 210.475,276.992Z" style="fill:none;fill-rule:nonzero;stroke:#a7f9b9;stroke-width:12.5px;stroke-linecap:butt;stroke-linejoin:miter;"/><path d="M2423.6,79.285c165.984,-150.117 274.613,-339.421 288.342,-502.496c13.729,-163.071 2.008,-320.742 -77.567,-434.309c-172.5,-246.191 -639.062,-253.679 -514.029,110.263c125.038,363.946 295.146,260.121 124.963,578.9c-170.188,318.779 79.6,336.896 178.291,247.642Z" style="fill:none;fill-rule:nonzero;stroke:#a7f9b9;stroke-width:4.17px;stroke-linecap:butt;stroke-linejoin:miter;"/><path d="M2431.3,17.247c145.779,-144.33 248.729,-300.109 260.971,-445.484c12.237,-145.371 1.791,-285.929 -69.15,-387.171c-153.775,-219.466 -569.696,-226.145 -458.234,98.296c111.463,324.446 272.013,231.888 120.296,516.067c-151.712,284.179 61.842,301.725 146.117,218.292Z" style="fill:none;fill-rule:nonzero;stroke:#fff;stroke-width:4.17px;stroke-linecap:butt;stroke-linejoin:miter;"/><path d="M2439,-44.79c100.062,-134.75 222.85,-260.795 233.6,-388.47c10.754,-127.675 1.57,-251.117 -60.729,-340.034c-135.055,-192.746 -500.334,-198.608 -402.442,86.329c97.891,284.942 248.879,203.655 115.633,453.234c-133.237,249.579 51.992,272.621 113.938,188.941Z" style="fill:none;fill-rule:nonzero;stroke:#fff;stroke-width:4.17px;stroke-linecap:butt;stroke-linejoin:miter;"/><path d="M839.583,-104.167c-293.27,161.763 -543.925,267.146 -445.137,547.221c98.783,280.079 324.421,117.079 468.35,-49.266c113.592,-131.288 328.346,-107.071 395.154,-78.509c104.3,44.588 257.379,-72.225 116.383,-355.558c-141,-283.334 -422.571,-125.763 -534.75,-63.888Z" style="fill:none;fill-rule:nonzero;stroke:#a7f9b9;stroke-width:8.33px;stroke-linecap:butt;stroke-linejoin:miter;"/><path d="M2117.43,1558.28c65.616,61.517 40.9,124.017 -7.017,141.725c-39.125,14.459 -91.667,5.771 -122.554,-64.062c-20.571,-46.521 -29.784,-145.621 7.629,-164.063c33.817,-16.666 84.833,51.604 121.942,86.4Z" style="fill:none;fill-rule:nonzero;stroke:#a7f9b9;stroke-width:12.5px;stroke-linecap:butt;stroke-linejoin:miter;"/><path d="M2085.8,1572.41c34.746,32.571 21.658,65.662 -3.713,75.042c-20.716,7.654 -48.533,3.054 -64.891,-33.921c-10.892,-24.634 -15.771,-77.104 4.042,-86.867c17.904,-8.825 44.916,27.325 64.562,45.746Z" style="fill:none;fill-rule:nonzero;stroke:#a7f9b9;stroke-width:4.17px;stroke-linecap:butt;stroke-linejoin:miter;"/><path d="M1374.36,521.44c15.363,-52.759 52.638,-88.296 83.254,-79.38c30.621,8.917 42.988,58.913 27.625,111.671c-15.362,52.754 -72.595,118.604 -103.212,109.688c-30.617,-8.917 -23.033,-89.225 -7.667,-141.979Z" style="fill:none;fill-rule:nonzero;stroke:#a7f9b9;stroke-width:12.5px;stroke-linecap:butt;stroke-linejoin:miter;"/><g><g><clipPath id="_clip1"><rect x="2448.12" y="-294.275" width="830.646" height="1105.76" clip-rule="nonzero"/></clipPath><g clip-path="url(#_clip1)"><path d="M2639.83,-93.63c-70.971,282.725 -192.559,271.888 -187.38,386.875c6.034,133.8 95.3,116.813 152.375,297.321c43.729,138.304 209.95,231.95 365.85,214.712c155.9,-17.233 301.471,-145.345 303.896,-450.554c2.421,-305.208 -131.267,-516.883 -278.058,-602.466c-146.788,-85.58 -306.684,-45.067 -356.684,154.112Z" style="fill:none;fill-rule:nonzero;stroke:#a7f9b9;stroke-width:8.33px;stroke-miterlimit:4;stroke-dasharray:0,29.04;"/><clipPath id="_clip2"><rect x="2501.58" y="-229.587" width="729.237" height="976.358" clip-rule="nonzero"/></clipPath><g clip-path="url(#_clip2)"><path d="M2667.04,-50.769c-60.737,241.962 -163.1,238.6 -159.096,339.508c3.042,79.546 38.009,102.283 75.588,155.354c19.329,27.296 40.912,61.6 59.1,113.529c40.804,116.517 181.579,195.884 314.996,181.134c136.929,-15.134 264.787,-127.659 266.916,-395.729c2.129,-268.067 -115.291,-453.988 -244.221,-529.155c-128.929,-75.166 -269.366,-39.583 -313.283,135.359Z" style="fill:none;fill-rule:nonzero;stroke:#a7f9b9;stroke-width:12.5px;stroke-linecap:butt;stroke-linejoin:miter;"/></g><clipPath id="_clip3"><rect x="2561.28" y="-158.65" width="615.337" height="834.45" clip-rule="nonzero"/></clipPath><g clip-path="url(#_clip3)"><path d="M2694.25,-7.906c-50.508,201.2 -133.637,205.304 -130.816,292.141c2.058,69.742 30.796,93.175 62.121,140.68c16.795,25.475 37.412,55.837 54.883,99.766c37.658,94.704 153.196,159.817 264.137,147.554c117.963,-13.041 228.105,-109.975 229.938,-340.904c1.829,-230.929 -99.317,-391.091 -210.383,-455.841c-111.067,-64.755 -232.05,-34.1 -269.88,116.604Z" style="fill:none;fill-rule:nonzero;stroke:#a7f9b9;stroke-width:4.17px;stroke-linecap:butt;stroke-linejoin:miter;"/></g><clipPath id="_clip4"><rect x="2616.82" y="-91.879" width="509.767" height="700.879" clip-rule="nonzero"/></clipPath><g clip-path="url(#_clip4)"><path d="M2721.46,34.955c-40.275,160.437 -104,172.012 -102.529,244.775c1.212,59.937 23.492,84.146 48.642,126.004c14.237,23.688 33.816,50.021 50.67,86.004c34.15,72.896 124.821,123.754 213.288,113.975c98.987,-10.946 191.412,-92.287 192.954,-286.079c1.537,-193.787 -83.346,-328.192 -176.55,-382.529c-93.204,-54.342 -194.729,-28.617 -226.475,97.85Z" style="fill:none;fill-rule:nonzero;stroke:#a7f9b9;stroke-width:4.17px;stroke-linecap:butt;stroke-linejoin:miter;"/></g><clipPath id="_clip5"><rect x="2672.34" y="-25.108" width="404.217" height="567.308" clip-rule="nonzero"/></clipPath><g clip-path="url(#_clip5)"><path d="M2748.67,77.818c-30.042,119.675 -74.525,138.721 -74.246,197.404c0.237,50.142 16.066,75.217 35.175,111.333c11.612,21.95 29.987,44.163 46.45,72.242c30,51.163 96.441,87.688 162.433,80.392c80.017,-8.846 154.733,-74.6 155.971,-231.25c1.246,-156.65 -67.367,-265.296 -142.708,-309.221c-75.346,-43.925 -157.413,-23.129 -183.075,79.1Z" style="fill:none;fill-rule:nonzero;stroke:#a7f9b9;stroke-width:4.17px;stroke-linecap:butt;stroke-linejoin:miter;"/></g><clipPath id="_clip6"><rect x="2727.79" y="41.663" width="298.737" height="433.754" clip-rule="nonzero"/></clipPath><g clip-path="url(#_clip6)"><path d="M2775.88,120.681c-19.813,78.912 -45.108,105.429 -45.967,150.037c-0.775,40.342 8.45,66.384 21.709,96.659c8.875,20.271 25.65,38.433 42.229,58.479c24.696,29.854 68.062,51.621 111.579,46.812c61.046,-6.75 118.046,-56.912 118.992,-176.425c0.954,-119.508 -51.396,-202.395 -108.871,-235.908c-57.479,-33.512 -120.096,-17.646 -139.671,60.346Z" style="fill:none;fill-rule:nonzero;stroke:#a7f9b9;stroke-width:4.17px;stroke-linecap:butt;stroke-linejoin:miter;"/></g><clipPath id="_clip7"><rect x="2778.55" y="104.267" width="202.108" height="308.679" clip-rule="nonzero"/></clipPath><g clip-path="url(#_clip7)"><path d="M2803.09,163.542c-9.579,38.154 -15.787,72.137 -17.683,102.675c-1.892,30.533 0.538,57.621 8.233,81.979c5.905,18.662 20.071,34.312 38.017,44.717c17.954,10.404 39.688,15.558 60.725,13.233c42.075,-4.654 81.363,-39.225 82.017,-121.596c0.654,-82.375 -35.429,-139.504 -75.042,-162.6c-39.617,-23.096 -82.775,-12.162 -96.267,41.592Z" style="fill:none;fill-rule:nonzero;stroke:#a7f9b9;stroke-width:12.5px;stroke-linecap:butt;stroke-linejoin:miter;"/></g></g></g></g><path d="M2548.28,1732.55c-73.283,350.783 265.346,403.079 321.375,503.6c241.454,433.171 -769.688,643.671 -876.133,42.587c-106.442,-601.083 672.258,-1108.64 554.758,-546.187Z" style="fill:none;fill-rule:nonzero;stroke:#a7f9b9;stroke-width:8.33px;stroke-linecap:butt;stroke-linejoin:miter;"/><path d="M2513.97,1781.4c-60.925,288.675 227.283,358.3 274.387,449.767c194.059,376.821 -665.741,557.608 -759.229,29.667c-93.496,-527.938 586.733,-962.234 484.842,-479.434Z" style="fill:none;fill-rule:nonzero;stroke:#a7f9b9;stroke-width:12.5px;stroke-linecap:butt;stroke-linejoin:miter;"/><path d="M2479.66,1830.25c-36.6,253.079 189.254,313.329 227.396,395.937c147.562,319.55 -561.792,471.538 -642.329,16.746c-80.538,-454.791 473.266,-816.087 414.933,-412.683Z" style="fill:none;fill-rule:nonzero;stroke:#a7f9b9;stroke-width:4.17px;stroke-linecap:butt;stroke-linejoin:miter;"/><path d="M2445.34,1879.11c-27.283,212.562 151.338,268.083 180.413,342.104c102.52,261.025 -457.842,385.479 -525.43,3.825c-67.583,-381.65 386.913,-672.308 345.017,-345.929Z" style="fill:none;fill-rule:nonzero;stroke:#a7f9b9;stroke-width:4.17px;stroke-linecap:butt;stroke-linejoin:miter;"/><path d="M2411.02,1927.96c2.987,140.429 113.762,222.425 133.421,288.271c59.971,200.812 -353.892,299.412 -408.521,-9.096c-54.638,-308.508 269.633,-536.304 275.1,-279.175Z" style="fill:none;fill-rule:nonzero;stroke:#a7f9b9;stroke-width:4.17px;stroke-linecap:butt;stroke-linejoin:miter;"/><path d="M2381.95,1968.05c24.679,142.629 83.333,140.279 81.196,243.196c-2.909,140.408 -249.942,213.354 -291.625,-22.012c-41.68,-235.367 180.175,-396.025 210.429,-221.184Z" style="fill:none;fill-rule:nonzero;stroke:#a7f9b9;stroke-width:4.17px;stroke-linecap:butt;stroke-linejoin:miter;"/><path d="M2342.39,2025.67c30.142,72.283 45.283,130.2 39.446,180.604c-8.946,77.233 -145.996,127.291 -174.725,-34.934c-28.725,-162.225 92.808,-247.512 135.279,-145.67Z" style="fill:none;fill-rule:nonzero;stroke:#a7f9b9;stroke-width:4.17px;stroke-linecap:butt;stroke-linejoin:miter;"/><path d="M1260.89,66.39c9.079,55.608 -51.034,75.004 -85.192,79.475c-34.162,4.471 -70.412,1.671 -74.879,-32.492c-4.471,-34.162 46.479,-100.454 80.642,-104.92c34.162,-4.471 73.879,23.933 79.429,57.937Z" style="fill:none;fill-rule:nonzero;stroke:#a7f9b9;stroke-width:12.5px;stroke-linecap:butt;stroke-linejoin:miter;"/><path d="M1141.67,913.485c87.333,-87.234 181.396,-227.288 133.333,-391.263c-48.063,-163.975 -210.704,-169.487 -342.629,-14.192c-155.288,182.792 -290.529,175.805 -362.229,267.796c-71.705,91.992 -58.888,320.204 265.629,280.292c183.675,-22.588 259.604,-96.396 305.896,-142.633Z" style="fill:none;fill-rule:nonzero;stroke:#a7f9b9;stroke-width:8.33px;stroke-dasharray:0,29.17;"/><path d="M1131.79,880.162c73.78,-75.596 152.734,-196.467 109.817,-336.254c-42.912,-139.788 -180.271,-141.417 -293.338,-8.4c-130.17,153.166 -246.679,153.604 -307.025,233.104c-60.354,79.496 -46.895,274.637 230.355,236.941c156.916,-21.337 221.083,-85.32 260.191,-125.391Z" style="fill:none;fill-rule:nonzero;stroke:#a7f9b9;stroke-width:8.33px;stroke-linecap:butt;stroke-linejoin:miter;"/><path d="M1121.92,846.838c60.225,-63.962 124.075,-165.645 86.304,-281.246c-37.767,-115.595 -149.842,-113.35 -244.046,-2.612c-105.058,123.546 -202.833,131.408 -251.829,198.412c-49,67.009 -34.9,229.071 195.079,193.592c130.167,-20.079 182.571,-74.241 214.492,-108.146Z" style="fill:none;fill-rule:nonzero;stroke:#a7f9b9;stroke-width:12.5px;stroke-linecap:butt;stroke-linejoin:miter;"/><path d="M1112.05,813.517c46.667,-52.325 95.417,-134.825 62.792,-226.233c-32.625,-91.409 -119.413,-85.284 -194.754,3.171c-79.942,93.92 -158.988,109.208 -196.634,163.72c-37.645,54.513 -22.904,183.505 159.809,150.242c103.412,-18.825 144.05,-63.167 168.787,-90.9Z" style="fill:none;fill-rule:nonzero;stroke:#a7f9b9;stroke-width:4.17px;stroke-linecap:butt;stroke-linejoin:miter;"/><path d="M1102.17,780.194c33.112,-40.691 66.754,-104.004 39.279,-171.225c-27.479,-67.221 -88.983,-57.212 -145.462,8.963c-54.834,64.296 -115.142,87.008 -141.434,129.029c-26.296,42.021 -10.908,137.933 124.529,106.892c76.663,-17.575 105.538,-52.092 123.088,-73.659Z" style="fill:none;fill-rule:nonzero;stroke:#a7f9b9;stroke-width:4.17px;stroke-linecap:butt;stroke-linejoin:miter;"/><path d="M1092.3,746.871c19.554,-29.054 38.095,-73.183 15.762,-116.217c-22.333,-43.029 -58.55,-29.141 -96.171,14.754c-29.712,34.671 -71.291,64.809 -86.233,94.338c-14.942,29.525 1.087,92.367 89.258,63.537c49.909,-16.316 67.021,-41.012 77.384,-56.412Z" style="fill:none;fill-rule:nonzero;stroke:#a7f9b9;stroke-width:4.17px;stroke-linecap:butt;stroke-linejoin:miter;"/><path d="M1818.75,2320.83c127.479,-284.375 136.242,-650.008 -56.25,-875c-160.417,-187.5 -333.333,-302.083 -572.917,-370.833c-354.554,-101.742 -382.245,123.013 -310.416,495.833c87.5,454.167 -425,595.834 -491.667,770.834c-78.996,207.366 102.083,414.583 450,535.416c173.958,60.417 392.188,-18.229 580.467,-142.187c188.283,-123.959 346.616,-293.229 400.783,-414.063Z" style="fill:none;fill-rule:nonzero;stroke:#a7f9b9;stroke-width:8.33px;stroke-dasharray:0,29.17;"/><path d="M1706.35,1492.86c-144.854,-171.259 -301.804,-273.7 -513.271,-329.684c-245.263,-64.925 -311.35,43.709 -298.467,255.934c3.538,58.229 13.042,124.175 26.463,196.304c62.65,331.658 -229.625,480.496 -371.646,613.25c-30.15,28.187 -53.317,55.254 -63.929,83.35c-71.684,190.817 91.395,376.4 402.096,480.479c156.57,52.446 352.754,-19.954 520.783,-133.75c93.692,-63.192 178.562,-139.425 243.608,-213.779c50.85,-58.129 89.709,-114.783 110.55,-163.333c111.325,-257.559 115.913,-586.021 -56.187,-788.771Z" style="fill:none;fill-rule:nonzero;stroke:#a7f9b9;stroke-width:8.33px;stroke-linecap:butt;stroke-linejoin:miter;"/><path d="M1650.2,1539.88c-129.288,-155.013 -270.205,-245.313 -453.621,-288.53c-212.246,-50.012 -267.529,46.05 -256.229,234.463c3.1,51.708 11.066,110.221 22.637,174.175c52.504,290.142 -197.683,425.421 -323.692,547.892c-26.104,25.37 -46.433,49.437 -55.787,74.47c-64.375,174.271 80.733,338.184 354.187,425.542c139.2,44.471 313.109,-21.979 461.1,-125.304c81.975,-57.233 155.921,-126.038 212.434,-193.5c43.708,-52.183 77.179,-102.879 95.104,-146.667c94.558,-230.987 95.579,-522.033 -56.133,-702.541Z" style="fill:none;fill-rule:nonzero;stroke:#a7f9b9;stroke-width:12.5px;stroke-linecap:butt;stroke-linejoin:miter;"/><path d="M1594.05,1586.91c-114.15,-138.425 -238.504,-216.912 -393.971,-247.379c-179.137,-35.104 -223.712,48.392 -213.995,213c2.666,45.179 9.12,104.771 11.137,161.358c8.988,252.371 -158.083,360.938 -268.062,473.217c-22.067,22.525 -39.617,43.592 -47.65,65.592c-57.538,157.554 70.116,299.92 306.283,370.608c121.846,36.475 273.571,-23.829 401.417,-116.867c70.325,-51.175 133.287,-112.616 181.258,-173.221c36.571,-46.208 64.712,-90.937 79.658,-129.995c78.142,-204.25 74.767,-457.646 -56.075,-616.313Z" style="fill:none;fill-rule:nonzero;stroke:#a7f9b9;stroke-width:4.17px;stroke-linecap:butt;stroke-linejoin:miter;"/><path d="M1537.9,1633.93c-98.696,-122.1 -206.629,-188.512 -334.325,-206.229c-145.854,-20.233 -179.896,50.738 -171.758,191.538c2.229,38.65 -1.288,85.35 1.512,133.533c10.133,174.458 -120.4,311.325 -214.308,413.546c-18.054,19.65 -32.742,37.767 -39.513,56.721c-50.341,140.962 59.563,261.562 258.375,315.666c104.529,28.455 234.05,-25.65 341.738,-108.42c58.679,-45.105 110.666,-99.159 150.079,-152.942c29.462,-40.2 52.262,-78.996 64.212,-113.329c61.784,-177.479 54.325,-393.571 -56.012,-530.084Z" style="fill:none;fill-rule:nonzero;stroke:#a7f9b9;stroke-width:4.17px;stroke-linecap:butt;stroke-linejoin:miter;"/><path d="M1481.75,1680.97c-83.209,-105.813 -174.425,-160.175 -274.675,-165.079c-112.271,-5.496 -136.08,53.071 -129.525,170.066c4.929,88.059 7.325,179.888 -28.246,262.563c-32.367,75.225 -88.371,135.179 -140.421,197.033c-14.071,16.721 -25.863,31.942 -31.371,47.838c-43.104,124.4 49.092,223.066 210.471,260.737c87.25,20.367 194.537,-27.433 282.05,-99.983c47.046,-39.008 88.083,-85.638 118.904,-132.663c22.383,-34.15 39.821,-67.041 48.767,-96.666c45.5,-150.646 33.937,-329.542 -55.954,-443.846Z" style="fill:none;fill-rule:nonzero;stroke:#a7f9b9;stroke-width:4.17px;stroke-linecap:butt;stroke-linejoin:miter;"/><path d="M1425.6,1727.99c-67.658,-89.575 -141.591,-132.142 -215.029,-123.929c-78.104,8.733 -92.258,55.416 -87.287,148.608c1.362,25.592 6.67,54.054 7.345,85.65c2.7,126.263 -70.562,203.6 -131.883,286.45c-10.154,13.721 -18.971,26.121 -23.233,38.963c-35.792,107.862 38.762,184.291 162.562,205.8c70.05,12.166 155.067,-29.138 222.367,-91.546c35.437,-32.863 65.579,-72.017 87.733,-112.38c15.375,-28.012 27.409,-55.07 33.321,-79.995c29.363,-123.746 13.621,-265.592 -55.896,-357.621Z" style="fill:none;fill-rule:nonzero;stroke:#a7f9b9;stroke-width:4.17px;stroke-linecap:butt;stroke-linejoin:miter;"/><path d="M1369.45,1775.02c-51.975,-73.446 -107.917,-105.708 -155.384,-82.775c-43.254,20.892 -48.437,57.754 -45.05,127.138c0.93,19.071 1.942,40.25 3.525,63.521c5.559,81.704 -39.712,147.216 -83.933,221.087c-6.358,10.625 -12.058,20.313 -15.092,30.088c-28.329,91.375 28.609,144.908 114.659,150.862c52.941,3.663 115.704,-30.7 162.683,-83.1c23.888,-26.646 43.292,-58.254 56.554,-92.1c8.534,-21.779 15.05,-43.092 17.875,-63.329c13.513,-96.771 -6.546,-201.746 -55.837,-271.392Z" style="fill:none;fill-rule:nonzero;stroke:#a7f9b9;stroke-width:4.17px;stroke-linecap:butt;stroke-linejoin:miter;"/><path d="M1217.57,1780.42c-12,29.762 -4.621,60.1 -2.817,105.675c1.8,45.579 -1.97,106.396 -36.279,197.117c-34.308,90.72 7.029,125.9 59.796,117.137c52.771,-8.758 116.971,-61.458 128.379,-146.479c11.417,-85.021 -17.433,-174.271 -53.346,-231.825c-35.912,-57.55 -78.891,-83.4 -95.733,-41.625Z" style="fill:none;fill-rule:nonzero;stroke:#a7f9b9;stroke-width:12.5px;stroke-linecap:butt;stroke-linejoin:miter;"/></g></svg>