<?xml version="1.0" encoding="UTF-8" standalone="no"?><!DOCTYPE svg PUBLIC "-//W3C//DTD SVG 1.1//EN" "http://www.w3.org/Graphics/SVG/1.1/DTD/svg11.dtd"><svg width="100%" height="100%" viewBox="0 0 750 539" version="1.1" xmlns="http://www.w3.org/2000/svg" xmlns:xlink="http://www.w3.org/1999/xlink" xml:space="preserve" xmlns:serif="http://www.serif.com/" style="fill-rule:evenodd;clip-rule:evenodd;stroke-linecap:round;stroke-linejoin:round;stroke-miterlimit:10;"><g id="Picture-2" serif:id="Picture 2"><path d="M230.228,502.73c30.767,30.908 104.09,17.493 135.476,-3.36c101.874,-67.682 280.587,-180.566 284.905,-337.795c1.834,-66.83 -57.886,-100.416 -82.732,-110.088c-59.665,-23.227 -124.635,-29.032 -188.648,-30.307c-66.863,-1.331 -138.448,2.772 -197.793,36.849c-22.478,12.908 -43.58,29.271 -57.759,51.245c-14.402,22.321 -22.355,48.674 -23.98,75.118c-2.623,42.652 9.884,85.043 28.168,123.667c18.282,38.626 42.27,74.213 64.384,110.779c14.427,23.856 12.059,57.852 37.979,83.892" style="fill:#00c49a;fill-rule:nonzero;"/><g opacity="0.7"><path d="M230.228,502.73c30.767,30.908 104.09,17.493 135.476,-3.36c101.874,-67.682 280.587,-180.566 284.905,-337.795c1.834,-66.83 -57.886,-100.416 -82.732,-110.088c-59.665,-23.227 -124.635,-29.032 -188.648,-30.307c-66.863,-1.331 -138.448,2.772 -197.793,36.849c-22.478,12.908 -43.58,29.271 -57.759,51.245c-14.402,22.321 -22.355,48.674 -23.98,75.118c-2.623,42.652 9.884,85.043 28.168,123.667c18.282,38.626 42.27,74.213 64.384,110.779c14.427,23.856 12.059,57.852 37.979,83.892" style="fill:#fff;fill-rule:nonzero;"/></g><rect x="122.465" y="11.636" width="506.62" height="21.851" style="fill:none;stroke:#1a2e35;stroke-width:1px;"/><path d="M621.663,27.061c2.484,-2.484 2.484,-6.517 0,-9.001c-2.484,-2.484 -6.517,-2.484 -9.001,-0c-2.484,2.484 -2.484,6.517 -0,9.001c2.484,2.484 6.517,2.484 9.001,0Z" style="fill:none;stroke:#1a2e35;stroke-width:1px;"/><path d="M619.481,20.242l-4.637,4.637" style="fill:none;fill-rule:nonzero;stroke:#1a2e35;stroke-width:1px;"/><path d="M619.481,24.88l-4.637,-4.637" style="fill:none;fill-rule:nonzero;stroke:#1a2e35;stroke-width:1px;"/><path d="M604.422,22.561c0,-3.512 -2.852,-6.364 -6.365,-6.364c-3.513,-0 -6.365,2.852 -6.365,6.364c0,3.513 2.852,6.364 6.365,6.364c3.513,0 6.365,-2.851 6.365,-6.364Z" style="fill:none;stroke:#1a2e35;stroke-width:1px;"/><path d="M598.058,25.84l0,-6.558l3.279,-0l0,3.278l-6.559,0l0,3.28l3.28,0Z" style="fill:none;fill-rule:nonzero;stroke:#1a2e35;stroke-width:1px;"/><path d="M585.318,22.561c-0,-3.512 -2.852,-6.364 -6.365,-6.364c-3.512,-0 -6.364,2.852 -6.364,6.364c0,3.513 2.852,6.364 6.364,6.364c3.513,0 6.365,-2.851 6.365,-6.364Z" style="fill:none;stroke:#1a2e35;stroke-width:1px;"/><path d="M582.232,22.561l-6.557,0" style="fill:none;fill-rule:nonzero;stroke:#1a2e35;stroke-width:1px;"/><path d="M121.638,153.038l0,-113.525l95.332,0" style="fill:none;fill-rule:nonzero;stroke:#1a2e35;stroke-width:1px;"/><path d="M629.086,218.215l-0,-178.702l-50.132,-0" style="fill:none;fill-rule:nonzero;stroke:#1a2e35;stroke-width:1px;"/><path d="M629.086,230.286l-0,39.379" style="fill:none;fill-rule:nonzero;stroke:#1a2e35;stroke-width:1px;"/><path d="M629.086,299.635l-0,15.44" style="fill:none;fill-rule:nonzero;stroke:#1a2e35;stroke-width:1px;"/><path d="M121.57,163.376l0,18.106" style="fill:none;fill-rule:nonzero;stroke:#1a2e35;stroke-width:1px;"/><path d="M227.531,39.513l135.383,0" style="fill:none;fill-rule:nonzero;stroke:#1a2e35;stroke-width:1px;"/><path d="M406.199,39.513l8.613,0" style="fill:none;fill-rule:nonzero;stroke:#1a2e35;stroke-width:1px;"/><path d="M518.699,432.207l-8.144,-0c-2.511,-0 -4.869,-2.03 -5.269,-4.531l-1.974,-12.383" style="fill:none;fill-rule:nonzero;stroke:#1a2e35;stroke-width:1px;"/><path d="M547.864,415.294l1.975,12.381c0.398,2.503 -1.313,4.532 -3.823,4.532l-23.294,0" style="fill:none;fill-rule:nonzero;stroke:#1a2e35;stroke-width:1px;"/><path d="M531.772,398.379l8.85,0c2.509,0 4.868,2.03 5.267,4.532l1.197,7.504" style="fill:none;fill-rule:nonzero;stroke:#1a2e35;stroke-width:1px;"/><path d="M525.589,398.379l2.816,0" style="fill:none;fill-rule:nonzero;stroke:#1a2e35;stroke-width:1px;"/><path d="M502.764,411.858l-1.427,-8.946c-0.399,-2.504 1.312,-4.532 3.823,-4.532l14.712,0" style="fill:none;fill-rule:nonzero;stroke:#1a2e35;stroke-width:1px;"/><path d="M535.625,391.509l-3.274,0c-0.57,0 -1.082,0.35 -1.29,0.882l-1.091,2.806l-19.416,-0c-2,-0 -3.698,1.294 -4.306,3.088" style="fill:none;fill-rule:nonzero;stroke:#1a2e35;stroke-width:1px;"/><path d="M550.561,399.742c-0,-2.398 -1.864,-4.342 -4.219,-4.511l-1.105,-2.839c-0.207,-0.533 -0.719,-0.884 -1.29,-0.884l-6.143,0" style="fill:none;fill-rule:nonzero;stroke:#1a2e35;stroke-width:1px;"/><path d="M546.016,432.207c2.511,-0 4.545,-2.035 4.545,-4.545l-0,-23.265" style="fill:none;fill-rule:nonzero;stroke:#1a2e35;stroke-width:1px;"/><path d="M437.346,419.825l-2.696,-16.914c-0.401,-2.502 1.311,-4.532 3.822,-4.532l5.84,0" style="fill:none;fill-rule:nonzero;stroke:#1a2e35;stroke-width:1px;"/><path d="M464.087,432.207l-20.221,-0c-2.51,-0 -4.868,-2.03 -5.268,-4.531l-0.625,-3.925" style="fill:none;fill-rule:nonzero;stroke:#1a2e35;stroke-width:1px;"/><path d="M473.807,432.207l-6.702,-0" style="fill:none;fill-rule:nonzero;stroke:#1a2e35;stroke-width:1px;"/><path d="M449.438,398.379l24.495,0c2.511,0 4.869,2.03 5.268,4.532l3.95,24.765c0.399,2.501 -1.312,4.53 -3.822,4.53" style="fill:none;fill-rule:nonzero;stroke:#1a2e35;stroke-width:1px;"/><path d="M455.205,395.197l-11.34,0c-1.999,0 -3.698,1.294 -4.305,3.088" style="fill:none;fill-rule:nonzero;stroke:#1a2e35;stroke-width:1px;"/><path d="M483.873,415.294l0,-15.552c0,-2.398 -1.864,-4.342 -4.219,-4.511l-1.104,-2.839c-0.209,-0.532 -0.721,-0.883 -1.292,-0.883l-11.595,-0c-0.57,-0 -1.084,0.351 -1.289,0.883l-1.092,2.806l-4.382,-0" style="fill:none;fill-rule:nonzero;stroke:#1a2e35;stroke-width:1px;"/><path d="M479.329,432.207c2.511,-0 4.544,-2.035 4.544,-4.545l0,-9.36" style="fill:none;fill-rule:nonzero;stroke:#1a2e35;stroke-width:1px;"/><path d="M452.012,370.963l-8.146,0c-2.51,0 -4.867,-2.029 -5.268,-4.531l-1.973,-12.383" style="fill:none;fill-rule:nonzero;stroke:#1a2e35;stroke-width:1px;"/><path d="M481.176,354.049l1.975,12.382c0.398,2.503 -1.312,4.533 -3.822,4.533l-23.296,-0" style="fill:none;fill-rule:nonzero;stroke:#1a2e35;stroke-width:1px;"/><path d="M465.083,337.136l8.851,0c2.51,0 4.868,2.03 5.266,4.531l1.199,7.504" style="fill:none;fill-rule:nonzero;stroke:#1a2e35;stroke-width:1px;"/><path d="M458.9,337.136l2.817,0" style="fill:none;fill-rule:nonzero;stroke:#1a2e35;stroke-width:1px;"/><path d="M436.077,350.614l-1.427,-8.947c-0.399,-2.502 1.311,-4.53 3.822,-4.53l14.713,-0" style="fill:none;fill-rule:nonzero;stroke:#1a2e35;stroke-width:1px;"/><path d="M468.937,330.265l-3.273,-0c-0.571,-0 -1.084,0.35 -1.29,0.881l-1.092,2.808l-19.417,-0c-1.999,-0 -3.698,1.292 -4.304,3.087" style="fill:none;fill-rule:nonzero;stroke:#1a2e35;stroke-width:1px;"/><path d="M483.873,338.499c0,-2.399 -1.864,-4.343 -4.219,-4.513l-1.104,-2.839c-0.209,-0.531 -0.721,-0.882 -1.292,-0.882l-6.141,0" style="fill:none;fill-rule:nonzero;stroke:#1a2e35;stroke-width:1px;"/><path d="M479.329,370.963c2.511,0 4.544,-2.035 4.544,-4.544l0,-23.266" style="fill:none;fill-rule:nonzero;stroke:#1a2e35;stroke-width:1px;"/><path d="M504.035,358.58l-2.698,-16.913c-0.399,-2.501 1.312,-4.531 3.823,-4.531l5.839,0" style="fill:none;fill-rule:nonzero;stroke:#1a2e35;stroke-width:1px;"/><path d="M530.775,370.963l-20.22,0c-2.511,0 -4.869,-2.029 -5.269,-4.531l-0.625,-3.926" style="fill:none;fill-rule:nonzero;stroke:#1a2e35;stroke-width:1px;"/><path d="M540.495,370.963l-6.703,0" style="fill:none;fill-rule:nonzero;stroke:#1a2e35;stroke-width:1px;"/><path d="M516.127,337.136l24.494,0c2.511,0 4.868,2.03 5.269,4.531l3.948,24.764c0.399,2.503 -1.311,4.532 -3.821,4.532" style="fill:none;fill-rule:nonzero;stroke:#1a2e35;stroke-width:1px;"/><path d="M521.893,333.954l-11.339,0c-2,0 -3.698,1.293 -4.307,3.087" style="fill:none;fill-rule:nonzero;stroke:#1a2e35;stroke-width:1px;"/><path d="M550.561,354.049l-0,-15.55c-0,-2.399 -1.864,-4.342 -4.219,-4.512l-1.105,-2.839c-0.207,-0.532 -0.719,-0.884 -1.29,-0.884l-11.596,0c-0.57,0 -1.083,0.352 -1.29,0.884l-1.091,2.806l-4.381,-0" style="fill:none;fill-rule:nonzero;stroke:#1a2e35;stroke-width:1px;"/><path d="M546.016,370.963c2.511,0 4.545,-2.035 4.545,-4.544l-0,-9.361" style="fill:none;fill-rule:nonzero;stroke:#1a2e35;stroke-width:1px;"/><path d="M174.901,279.429l-35.463,-0c-2.51,-0 -4.868,-2.03 -5.267,-4.532l-3.949,-24.764c-0.4,-2.502 1.312,-4.531 3.822,-4.531l35.462,-0c2.51,-0 4.867,2.029 5.266,4.531l3.95,24.764c0.399,2.502 -1.311,4.532 -3.821,4.532Z" style="fill:none;fill-rule:nonzero;stroke:#1a2e35;stroke-width:1px;"/><path d="M174.901,279.429c2.51,-0 4.544,-2.036 4.544,-4.545l0,-27.92c0,-2.399 -1.864,-4.342 -4.22,-4.511l-1.103,-2.841c-0.207,-0.531 -0.721,-0.882 -1.291,-0.882l-11.595,0c-0.571,0 -1.083,0.351 -1.29,0.882l-1.092,2.807l-19.416,0c-2,0 -3.698,1.293 -4.305,3.087" style="fill:none;fill-rule:nonzero;stroke:#1a2e35;stroke-width:1px;"/><path d="M444.652,370.775c0,3.734 -3.027,6.758 -6.759,6.758c-3.734,0 -6.76,-3.024 -6.76,-6.758c0,-3.734 3.026,-6.76 6.76,-6.76c3.732,0 6.759,3.026 6.759,6.76" style="fill:#fff;fill-rule:nonzero;"/><path d="M444.652,370.774c0,-3.73 -3.029,-6.759 -6.759,-6.759c-3.731,0 -6.76,3.029 -6.76,6.759c0,3.731 3.029,6.759 6.76,6.759c3.73,0 6.759,-3.028 6.759,-6.759Z" style="fill:none;stroke:#1a2e35;stroke-width:1px;"/><path d="M436.624,368.232c0.78,-0 0.956,-0.376 1.112,-0.808l0.68,-0l-0,6.434l-1.012,-0l0,-4.909l-0.78,-0l0,-0.717Z" style="fill:#1a2e35;fill-rule:nonzero;"/><path d="M516.127,370.775c-0,3.734 -3.027,6.758 -6.76,6.758c-3.733,0 -6.761,-3.024 -6.761,-6.758c0,-3.734 3.028,-6.76 6.761,-6.76c3.733,0 6.76,3.026 6.76,6.76" style="fill:#fff;fill-rule:nonzero;"/><path d="M516.127,370.774c-0,-3.73 -3.029,-6.759 -6.76,-6.759c-3.731,0 -6.761,3.029 -6.761,6.759c0,3.731 3.03,6.759 6.761,6.759c3.731,0 6.76,-3.028 6.76,-6.759Z" style="fill:none;stroke:#1a2e35;stroke-width:1px;"/><path d="M509.395,368.269c-0.322,0 -0.523,0.176 -0.523,0.634l-0,0.69l-0.957,0l-0,-0.625c-0,-1.031 0.515,-1.619 1.507,-1.619c0.994,0 1.507,0.588 1.507,1.619c0,0.855 -0.311,1.544 -1.249,2.546c-0.597,0.644 -0.762,0.946 -0.762,1.286c-0,0.047 -0,0.092 0.009,0.138l1.911,0l-0,0.919l-2.923,0l-0,-0.79c-0,-0.717 0.258,-1.26 1.012,-2.05c0.771,-0.817 0.992,-1.323 0.992,-2.012c0,-0.58 -0.202,-0.736 -0.524,-0.736" style="fill:#1a2e35;fill-rule:nonzero;"/><path d="M444.652,432.207c0,3.733 -3.027,6.759 -6.759,6.759c-3.734,0 -6.76,-3.026 -6.76,-6.759c0,-3.734 3.026,-6.759 6.76,-6.759c3.732,0 6.759,3.025 6.759,6.759" style="fill:#fff;fill-rule:nonzero;"/><path d="M444.652,432.207c0,-3.73 -3.029,-6.759 -6.759,-6.759c-3.731,0 -6.76,3.029 -6.76,6.759c0,3.731 3.029,6.759 6.76,6.759c3.73,0 6.759,-3.028 6.759,-6.759Z" style="fill:none;stroke:#1a2e35;stroke-width:1px;"/><path d="M438.391,430.437c0,-0.58 -0.202,-0.736 -0.523,-0.736c-0.322,0 -0.524,0.175 -0.524,0.634l0,0.413l-0.955,0l-0,-0.348c-0,-1.031 0.513,-1.619 1.505,-1.619c0.994,0 1.509,0.588 1.509,1.619l-0,0.165c-0,0.69 -0.221,1.112 -0.708,1.314l0,0.018c0.506,0.221 0.708,0.69 0.708,1.342l-0,0.507c-0,1.028 -0.515,1.617 -1.509,1.617c-0.992,-0 -1.505,-0.589 -1.505,-1.617l-0,-0.534l0.955,0l0,0.598c0,0.46 0.202,0.634 0.524,0.634c0.321,-0 0.523,-0.156 0.523,-0.726l0,-0.506c0,-0.597 -0.202,-0.818 -0.662,-0.818l-0.339,0l-0,-0.92l0.394,-0c0.377,-0 0.607,-0.164 0.607,-0.68l0,-0.357Z" style="fill:#1a2e35;fill-rule:nonzero;"/><path d="M516.127,432.207c-0,3.733 -3.027,6.759 -6.76,6.759c-3.733,0 -6.761,-3.026 -6.761,-6.759c0,-3.734 3.028,-6.759 6.761,-6.759c3.733,0 6.76,3.025 6.76,6.759" style="fill:#fff;fill-rule:nonzero;"/><path d="M516.127,432.207c-0,-3.73 -3.029,-6.759 -6.76,-6.759c-3.731,0 -6.761,3.029 -6.761,6.759c0,3.731 3.03,6.759 6.761,6.759c3.731,0 6.76,-3.028 6.76,-6.759Z" style="fill:none;stroke:#1a2e35;stroke-width:1px;"/><path d="M509.606,433.203l0,-2.38l-0.019,-0l-0.982,2.38l1.001,0Zm-1.93,0l1.839,-4.347l1.103,-0l-0,4.347l0.478,0l-0,0.919l-0.478,0l-0,1.168l-1.012,-0l0,-1.168l-1.93,0l0,-0.919Z" style="fill:#1a2e35;fill-rule:nonzero;"/><path d="M558.594,232.373l24.39,-0" style="fill:none;fill-rule:nonzero;stroke:#1a2e35;stroke-width:1px;"/><path d="M548.873,248.826l0,-16.454l5.699,0" style="fill:none;fill-rule:nonzero;stroke:#1a2e35;stroke-width:1px;"/><path d="M553.734,286.493l-4.861,-0l0,-34.685" style="fill:none;fill-rule:nonzero;stroke:#1a2e35;stroke-width:1px;"/><path d="M562.617,286.493l-6.118,-0" style="fill:none;fill-rule:nonzero;stroke:#1a2e35;stroke-width:1px;"/><path d="M594.85,285.624l0,0.869l-25.866,0" style="fill:none;fill-rule:nonzero;stroke:#1a2e35;stroke-width:1px;"/><path d="M594.85,244.238l0,38.104" style="fill:none;fill-rule:nonzero;stroke:#1a2e35;stroke-width:1px;"/><path d="M602.475,236.613l0,42.255l-45.977,0l-0,-54.121l34.111,0l11.866,11.866Z" style="fill:#fff;fill-rule:nonzero;stroke:#1a2e35;stroke-width:1px;"/><path d="M602.475,236.613l-11.866,0l0,-11.866l11.866,11.866Z" style="fill:#fff;fill-rule:nonzero;stroke:#1a2e35;stroke-width:1px;"/><path d="M579.487,246.027l0,11.563" style="fill:none;fill-rule:nonzero;stroke:#1a2e35;stroke-width:1px;"/><path d="M585.268,251.808l-11.563,0" style="fill:none;fill-rule:nonzero;stroke:#1a2e35;stroke-width:1px;"/><path d="M275.761,134.14l-0,68.383l-74.408,0l0,-87.585l55.205,-0l19.203,19.202Z" style="fill:#00c49a;fill-rule:nonzero;stroke:#1a2e35;stroke-width:1px;"/><path d="M217.899,128.105l48.26,-0" style="fill:none;fill-rule:nonzero;stroke:#1a2e35;stroke-width:1px;"/><path d="M211.112,136.866l55.047,-0" style="fill:none;fill-rule:nonzero;stroke:#1a2e35;stroke-width:1px;"/><path d="M211.112,145.627l55.047,0" style="fill:none;fill-rule:nonzero;stroke:#1a2e35;stroke-width:1px;"/><path d="M211.112,154.388l55.047,-0" style="fill:none;fill-rule:nonzero;stroke:#1a2e35;stroke-width:1px;"/><path d="M211.112,163.149l55.047,-0" style="fill:none;fill-rule:nonzero;stroke:#1a2e35;stroke-width:1px;"/><path d="M211.112,171.91l55.047,-0" style="fill:none;fill-rule:nonzero;stroke:#1a2e35;stroke-width:1px;"/><path d="M211.112,180.67l55.047,0" style="fill:none;fill-rule:nonzero;stroke:#1a2e35;stroke-width:1px;"/><path d="M211.112,189.432l48.26,-0" style="fill:none;fill-rule:nonzero;stroke:#1a2e35;stroke-width:1px;"/><path d="M275.761,134.14l-19.203,-0l0,-19.202l19.203,19.202Z" style="fill:#00c49a;fill-rule:nonzero;stroke:#1a2e35;stroke-width:1px;"/><path d="M519.488,112.412l-0,68.383l-74.408,0l0,-87.586l55.205,0l19.203,19.203Z" style="fill:#00c49a;fill-rule:nonzero;stroke:#1a2e35;stroke-width:1px;"/><path d="M461.626,106.376l48.261,0" style="fill:none;fill-rule:nonzero;stroke:#1a2e35;stroke-width:1px;"/><path d="M454.839,115.137l55.047,-0" style="fill:none;fill-rule:nonzero;stroke:#1a2e35;stroke-width:1px;"/><path d="M454.839,123.898l55.047,0" style="fill:none;fill-rule:nonzero;stroke:#1a2e35;stroke-width:1px;"/><path d="M454.839,132.659l55.047,0" style="fill:none;fill-rule:nonzero;stroke:#1a2e35;stroke-width:1px;"/><path d="M454.839,141.42l55.047,-0" style="fill:none;fill-rule:nonzero;stroke:#1a2e35;stroke-width:1px;"/><path d="M454.839,150.181l55.047,0" style="fill:none;fill-rule:nonzero;stroke:#1a2e35;stroke-width:1px;"/><path d="M454.839,158.942l55.047,0" style="fill:none;fill-rule:nonzero;stroke:#1a2e35;stroke-width:1px;"/><path d="M454.839,167.703l48.26,-0" style="fill:none;fill-rule:nonzero;stroke:#1a2e35;stroke-width:1px;"/><path d="M519.488,112.412l-19.203,-0l0,-19.203l19.203,19.203Z" style="fill:#00c49a;fill-rule:nonzero;stroke:#1a2e35;stroke-width:1px;"/><path d="M527.531,184.168l-0,7.625l-7.625,0" style="fill:none;fill-rule:nonzero;stroke:#1a2e35;stroke-width:1px;stroke-miterlimit:4;"/><path d="M504.857,191.793l-52.67,0" style="fill:none;fill-rule:nonzero;stroke:#1a2e35;stroke-width:1px;stroke-miterlimit:4;stroke-dasharray:11.84,11.84;"/><path d="M444.662,191.793l-7.625,0l0,-7.625" style="fill:none;fill-rule:nonzero;stroke:#1a2e35;stroke-width:1px;stroke-miterlimit:4;"/><path d="M437.037,170.693l0,-74.119" style="fill:none;fill-rule:nonzero;stroke:#1a2e35;stroke-width:1px;stroke-miterlimit:4;stroke-dasharray:10.6,10.6;"/><path d="M437.037,89.835l0,-7.625l7.625,0" style="fill:none;fill-rule:nonzero;stroke:#1a2e35;stroke-width:1px;stroke-miterlimit:4;"/><path d="M459.711,82.21l52.67,0" style="fill:none;fill-rule:nonzero;stroke:#1a2e35;stroke-width:1px;stroke-miterlimit:4;stroke-dasharray:11.84,11.84;"/><path d="M519.906,82.21l7.625,0l-0,7.625" style="fill:none;fill-rule:nonzero;stroke:#1a2e35;stroke-width:1px;stroke-miterlimit:4;"/><path d="M527.531,103.312l-0,74.118" style="fill:none;fill-rule:nonzero;stroke:#1a2e35;stroke-width:1px;stroke-miterlimit:4;stroke-dasharray:10.6,10.6;"/><path d="M284.853,160.784l135.51,-21.298" style="fill:none;fill-rule:nonzero;stroke:#1a2e35;stroke-width:1px;stroke-dasharray:12,12;"/><path d="M423.054,138.853l-4.148,-1.582l0.989,4.7l3.159,-3.118Z" style="fill:#1a2e35;fill-rule:nonzero;"/><path d="M286.236,160.784c0,0.764 -0.618,1.383 -1.382,1.383c-0.764,-0 -1.383,-0.619 -1.383,-1.383c0,-0.764 0.619,-1.383 1.383,-1.383c0.764,0 1.382,0.619 1.382,1.383" style="fill:#1a2e35;fill-rule:nonzero;"/><path d="M535.817,85.523c0,6.197 -5.023,11.222 -11.221,11.222c-6.197,-0 -11.22,-5.025 -11.22,-11.222c-0,-6.196 5.023,-11.22 11.22,-11.22c6.198,-0 11.221,5.024 11.221,11.22" style="fill:#fff;fill-rule:nonzero;"/><path d="M535.817,85.524c0,-6.193 -5.028,-11.221 -11.22,-11.221c-6.193,-0 -11.221,5.028 -11.221,11.221c-0,6.193 5.028,11.221 11.221,11.221c6.192,-0 11.22,-5.028 11.22,-11.221Z" style="fill:none;stroke:#1a2e35;stroke-width:1px;"/><path d="M524.596,79.742l-0,11.563" style="fill:none;fill-rule:nonzero;stroke:#1a2e35;stroke-width:1px;"/><path d="M530.378,85.523l-11.564,0" style="fill:none;fill-rule:nonzero;stroke:#1a2e35;stroke-width:1px;"/><path d="M336.792,268.975c-1.509,0 -4.429,-4.111 -6.137,-6.73c-0.046,5.406 0.062,19.239 2.403,18.348c2.904,-1.106 5.946,-11.618 3.734,-11.618" style="fill:#fff;fill-rule:nonzero;"/><path d="M336.792,268.975c-1.509,0 -4.429,-4.111 -6.137,-6.73c-0.046,5.406 0.062,19.239 2.403,18.348c2.904,-1.106 5.946,-11.618 3.734,-11.618Z" style="fill:none;fill-rule:nonzero;stroke:#1a2e35;stroke-width:1px;"/><path d="M330.229,306.909c-0.813,0.992 -1.944,1.843 -3.342,2.556c-3.711,1.906 -9.303,2.808 -15.72,2.566c-25.875,-0.991 -65.27,-20.663 -49.804,-69.272c9.48,-29.839 52.638,-19.903 63.656,-8.541c3.863,3.979 7.078,12.339 9.137,22.15c0.75,3.585 -0.75,7.36 -0.33,11.184c0.368,3.456 2.694,6.951 2.757,10.395c0.216,12.009 -1.639,23.207 -6.354,28.962" style="fill:#fff;fill-rule:nonzero;"/><path d="M330.229,306.909c-0.813,0.992 -1.944,1.843 -3.342,2.556c-3.711,1.906 -9.303,2.808 -15.72,2.566c-25.875,-0.991 -65.27,-20.663 -49.804,-69.272c9.48,-29.839 52.638,-19.903 63.656,-8.541c3.863,3.979 7.078,12.339 9.137,22.15c0.75,3.585 -0.75,7.36 -0.33,11.184c0.368,3.456 2.694,6.951 2.757,10.395c0.216,12.009 -1.639,23.207 -6.354,28.962Z" style="fill:none;fill-rule:nonzero;stroke:#1a2e35;stroke-width:1px;"/><path d="M326.886,309.465c-3.711,1.906 -9.302,2.808 -15.72,2.567c1.767,-3.038 4.372,-6.469 4.372,-6.469c-0,0 8.54,1.258 11.348,3.902" style="fill:#1a2e35;fill-rule:nonzero;"/><path d="M319.027,305.357c-0,-0 -2.346,29.428 1.526,36.067c3.872,6.639 -33.471,13.278 -48.409,0c0,0 8.534,-21.903 7.704,-43.064" style="fill:#fff;fill-rule:nonzero;stroke:#1a2e35;stroke-width:1px;"/><path d="M325.024,249.174c0,-0 11.624,-4.923 7.7,-21.25c-5.533,-23.008 -17.981,-8.793 -22.129,-12.22c-6.438,-5.317 -18.811,-10.183 -28.768,-1.772c-9.958,8.411 -16.044,9.338 -28.768,21.322c-12.724,11.984 -12.724,38.854 0,49.484c12.724,10.631 16.043,21.801 28.214,25.344c12.171,3.542 30.32,-1.218 33.97,-10.455c3.649,-9.238 3.649,-15.601 3.649,-15.601c0,0 10.557,-18.655 6.132,-34.852" style="fill:#1a2e35;fill-rule:nonzero;"/><path d="M324.149,277.803c-0,0 -2.629,-11.478 -4.288,-12.309c-1.66,-0.83 -6.778,9.072 -6.639,13.042c0.138,3.969 5.532,11.024 8.16,12.683c2.628,1.66 3.551,-3.042 3.642,-3.595" style="fill:#fff;fill-rule:nonzero;stroke:#1a2e35;stroke-width:1px;"/><path d="M320.414,271.856c0,-0 -2.075,6.786 0.969,12.31" style="fill:none;fill-rule:nonzero;stroke:#1a2e35;stroke-width:1px;"/><g opacity="0.2"><path d="M323.331,236.077c-0.312,3.627 -1.248,7.992 -4.304,10.332" style="fill:none;fill-rule:nonzero;stroke:#fff;stroke-width:1px;"/></g><g opacity="0.2"><path d="M302.975,221.775c4.076,-1.837 9.711,-4.072 14.216,-2.891c5.561,1.458 6.213,9.375 6.258,14.119" style="fill:none;fill-rule:nonzero;stroke:#fff;stroke-width:1px;"/></g><g opacity="0.2"><path d="M311.609,256.438c-0.616,2.011 -1.43,3.958 -2.434,5.807" style="fill:none;fill-rule:nonzero;stroke:#fff;stroke-width:1px;"/></g><g opacity="0.2"><path d="M291.849,231.159c5.031,-1.436 11.344,-2.417 15.733,1.182c5.71,4.683 6.106,14.605 4.757,21.226" style="fill:none;fill-rule:nonzero;stroke:#fff;stroke-width:1px;"/></g><g opacity="0.2"><path d="M296.911,249.68c4.377,8.04 4.306,24.443 -5.834,28.332" style="fill:none;fill-rule:nonzero;stroke:#fff;stroke-width:1px;"/></g><g opacity="0.2"><path d="M282.53,240.544c4.326,-2.623 10.556,3.653 12.804,6.67" style="fill:none;fill-rule:nonzero;stroke:#fff;stroke-width:1px;"/></g><g opacity="0.2"><path d="M293.861,215.879c-1.666,-1.943 -4.095,-3.026 -6.639,-2.315" style="fill:none;fill-rule:nonzero;stroke:#fff;stroke-width:1px;"/></g><g opacity="0.2"><path d="M297.571,223.332c-0.481,-1.783 -1.179,-3.517 -2.084,-5.124" style="fill:none;fill-rule:nonzero;stroke:#fff;stroke-width:1px;"/></g><g opacity="0.2"><path d="M284.876,232.536c0,-0 0.67,-13.104 -8.882,-9.502" style="fill:none;fill-rule:nonzero;stroke:#fff;stroke-width:1px;"/></g><g opacity="0.2"><path d="M265.335,232.638c-1.926,-0.341 -3.881,0.143 -5.596,1.035" style="fill:none;fill-rule:nonzero;stroke:#fff;stroke-width:1px;"/></g><g opacity="0.2"><path d="M273.313,241.214c-1.044,-3.039 -2.923,-6.15 -5.775,-7.776" style="fill:none;fill-rule:nonzero;stroke:#fff;stroke-width:1px;"/></g><g opacity="0.2"><path d="M265.78,285.437c1.406,1.001 2.921,1.868 4.516,2.532" style="fill:none;fill-rule:nonzero;stroke:#fff;stroke-width:1px;"/></g><g opacity="0.2"><path d="M260.181,254.108c-2.539,8.132 -3.448,22.904 3.325,29.464" style="fill:none;fill-rule:nonzero;stroke:#fff;stroke-width:1px;"/></g><g opacity="0.2"><path d="M273.313,246.061c-5.48,-2.476 -10.007,0.508 -12.237,5.647" style="fill:none;fill-rule:nonzero;stroke:#fff;stroke-width:1px;"/></g><path d="M268.78,331.195l6.223,-17.967c0,0 44.902,-5.907 55.645,8.984c10.742,14.89 -61.868,8.983 -61.868,8.983Z" style="fill:#00c49a;fill-rule:nonzero;stroke:#1a2e35;stroke-width:1px;"/><path d="M188.336,305.357c-0,-0 -5.03,-8.317 -4.671,-10.441c0.36,-2.125 -0.893,-12.054 -0.017,-16.856c0.916,-5.028 4.688,-3.951 4.688,-3.951c-0,0 1.537,-9.69 5.556,-8.97c-0,-0 0.551,-11.866 1.989,-14.381c1.436,-2.515 2.155,-4.068 2.155,-4.068c-0,-0 2.875,-1.322 2.875,2.99l-0,12.216l3.231,-12.934l4.672,-6.444c-0,-0 3.233,3.39 0.539,8.24c-1.989,3.58 -0.06,25.866 -0.06,25.866c4.55,-1.077 5.987,-5.389 5.987,-5.389c-0,-0 1.639,-4.566 5.849,-5.696c4.211,-1.13 0.281,3.9 -1.258,11.085c-1.537,7.186 -11.358,22.992 -16.418,26.225" style="fill:#fff;fill-rule:nonzero;stroke:#1a2e35;stroke-width:1px;"/><path d="M206.218,296.897l-12.496,71.756l38.389,-22.443l-7.81,55.431c-0,0 -49.483,22.833 -60.603,25.272c-11.119,2.439 -13.9,-29.253 -12.231,-37.593c1.667,-8.34 32.356,-71.601 36.193,-89.454" style="fill:#fff;fill-rule:nonzero;stroke:#1a2e35;stroke-width:1px;"/><path d="M164.44,383.204c-0,-0 8.155,-7.043 21.499,-11.491" style="fill:none;fill-rule:nonzero;stroke:#1a2e35;stroke-width:1px;"/><path d="M245.909,332.352l-1.652,51.697l-0.737,23.066l-37.604,9.442l-10.027,2.517c-20.702,-13.967 -17.652,-50.338 -17.652,-50.338l10.091,-7.257l6.049,1.208c-0,-0 38.049,-28.162 51.532,-30.335" style="fill:#00c49a;fill-rule:nonzero;"/><g><clipPath id="_clip1"><path d="M194.377,362.687l-6.049,-1.208l-10.091,7.257c0,-0 -3.05,36.372 17.652,50.338l10.026,-2.518l37.605,-9.441l0.737,-23.066l1.652,-51.697c-13.482,2.173 -51.532,30.335 -51.532,30.335Z" clip-rule="nonzero"/></clipPath><g clip-path="url(#_clip1)"><g opacity="0.2"><g opacity="0.7"><path d="M244.257,384.049l-0.737,23.066l-37.604,9.442c-3.317,-10.001 3.545,-7.256 3.545,-7.256c-3.698,-5.44 -3.52,-11.4 -3.52,-11.4l6.926,3.19c-4.181,-10.559 2.872,-22.43 2.872,-22.43l1.233,11.388c-1.233,-11.388 12.264,-30.692 12.264,-30.692c-0,-0 9.95,7.828 15.021,24.692" style="fill-rule:nonzero;"/></g></g></g></g><path d="M245.909,332.352l-1.652,51.697l-0.737,23.066l-37.604,9.442l-10.027,2.517c-20.702,-13.967 -17.652,-50.338 -17.652,-50.338l10.091,-7.257l6.049,1.208c-0,-0 38.049,-28.162 51.532,-30.335Z" style="fill:none;fill-rule:nonzero;stroke:#1a2e35;stroke-width:1px;"/><path d="M214.491,384.41c0,0 -0.143,10.664 4.955,19.453" style="fill:none;fill-rule:nonzero;stroke:#1a2e35;stroke-width:1px;"/><path d="M205.945,401.089c-0,-0 8.082,9.894 13.844,11.985" style="fill:none;fill-rule:nonzero;stroke:#1a2e35;stroke-width:1px;"/><path d="M194.383,362.688c-0,0 -6.639,13.794 -2.817,27.354" style="fill:none;fill-rule:nonzero;stroke:#1a2e35;stroke-width:1px;"/><path d="M227.531,349.09c-5.705,16.798 -7.622,47.536 -8.005,76.452c-0.483,35.926 1.423,69.032 1.423,69.032c29.967,50.922 97.551,29.826 121.95,20.066c0.09,-0.025 0.127,-0.038 0.127,-0.038c5.591,-2.249 8.884,-3.876 8.884,-3.876c7.917,-32.775 12.924,-61.724 15.986,-86.607l-0,-0.013c4.791,-38.621 4.907,-67.443 4.055,-85.502c-0.675,-14.614 -1.996,-22.176 -1.996,-22.176c-0,0 -21.414,0.267 -46.715,2.059l-0.014,0c-13.7,0.966 -28.529,2.364 -41.721,4.41c-9.799,1.512 -17.906,3.457 -24.54,5.49c-4.293,1.316 -11.33,3.702 -14.475,4.87c-1.835,0.682 -5.208,2.562 -5.208,2.562" style="fill:#00c49a;fill-rule:nonzero;"/><g opacity="0.2"><g opacity="0.7"><path d="M323.226,318.487c-13.852,5.947 -35.227,13.293 -43.043,13.053c-8.54,-0.256 -18.77,-0.878 -23.218,-3.153c6.634,-2.034 14.742,-3.978 24.54,-5.49c13.191,-2.046 28.022,-3.444 41.721,-4.41" style="fill-rule:nonzero;"/></g></g><g opacity="0.2"><g opacity="0.7"><path d="M342.899,514.64c-24.4,9.761 -91.983,30.855 -121.949,-20.066c-0,0 -1.906,-33.106 -1.424,-69.031c9.633,19.823 41.379,32.66 41.379,32.66c-0,0 -3.508,-38.849 -0,-48.228c3.495,-9.393 13.458,-63.899 13.458,-63.899c-0,0 3.812,10.943 -2.224,40.769c-6.024,29.826 -3.355,71.358 -3.355,71.358c14.792,3.214 50.249,0 50.249,0c-25.519,36.168 -81.753,42.268 -81.753,42.268c38.887,32.673 102.455,15.072 105.619,14.169" style="fill-rule:nonzero;"/></g></g><g opacity="0.2"><g opacity="0.7"><path d="M367.896,424.106c-1.067,-8.439 -2.071,-14.805 -2.071,-14.805c-2.504,20.041 -29.001,26.472 -22.799,19.698c6.202,-6.786 17.258,-27.907 17.258,-27.907c-5.694,-16.597 3.596,-65.272 3.596,-65.272c0,0 3.228,0.879 8.07,2.785c0.851,18.058 0.737,46.88 -4.054,85.501" style="fill-rule:nonzero;"/></g></g><path d="M351.91,510.726c7.917,-32.774 12.924,-61.724 15.987,-86.607l-0,-0.012c4.791,-38.622 4.905,-67.444 4.054,-85.502c-0.674,-14.615 -1.996,-22.177 -1.996,-22.177c0,-0 -21.413,0.266 -46.715,2.058l-0.013,0c-13.7,0.966 -28.53,2.365 -41.722,4.41c-9.798,1.514 -17.906,3.458 -24.539,5.491c-4.293,1.317 -11.33,3.702 -14.475,4.87c-1.835,0.683 -5.208,2.561 -5.208,2.561" style="fill:none;fill-rule:nonzero;stroke:#1a2e35;stroke-width:1px;"/><path d="M227.531,349.09c-5.705,16.798 -7.622,47.536 -8.005,76.452c-0.483,35.926 1.423,69.032 1.423,69.032" style="fill:none;fill-rule:nonzero;stroke:#1a2e35;stroke-width:1px;"/><path d="M326.361,318.27c-0.002,-0 -46.529,18.556 -57.581,17.506" style="fill:none;fill-rule:nonzero;stroke:#1a2e35;stroke-width:1px;"/><path d="M274.747,343.396c0,0 -13.501,91.375 -8.976,122.546c0,0 -3.745,29.943 -7.904,48.656" style="fill:none;fill-rule:nonzero;stroke:#1a2e35;stroke-width:1px;"/><path d="M232.111,450.357c0,-0 -2.034,14.077 33.661,15.585c35.695,1.509 55.61,-13.07 55.61,-13.07" style="fill:none;fill-rule:nonzero;stroke:#1a2e35;stroke-width:1px;"/><path d="M471.706,234.177c-0.914,-7.494 -1.576,-26.995 -0,-28.24c1.576,-1.245 9.876,-14.177 9.876,-14.177c1.798,0.139 1.244,2.974 1.244,2.974c-0,0 10.787,-18.62 13.276,-22.379c2.49,-3.761 4.151,-1.271 3.735,2.878c0,0 2.962,-6.079 4.288,-4.219c2.627,3.691 -3.458,22.06 -3.458,22.06c-0,0 5.49,-0.414 5.235,5.809c-0,0 3.339,-1.037 3.616,4.392c0.185,3.612 -1.553,14.211 -5.266,11.998c0,0 -2.34,15.104 -16.447,22.385" style="fill:#fff;fill-rule:nonzero;stroke:#1a2e35;stroke-width:1px;"/><path d="M482.826,194.734c-0,0 -3.458,6.155 -5.809,10.442c-2.351,4.288 -2.351,6.639 -2.351,6.639" style="fill:none;fill-rule:nonzero;stroke:#1a2e35;stroke-width:1px;"/><path d="M499.837,175.233c-0,-0 -8.033,17.011 -9.693,19.501" style="fill:none;fill-rule:nonzero;stroke:#1a2e35;stroke-width:1px;"/><path d="M500.667,193.075c0,-0 -3.181,3.181 -3.596,3.665" style="fill:none;fill-rule:nonzero;stroke:#1a2e35;stroke-width:1px;"/><path d="M505.902,198.884c-0,-0 -1.224,1.037 -3.299,2.696" style="fill:none;fill-rule:nonzero;stroke:#1a2e35;stroke-width:1px;"/><path d="M504.253,215.273c-0,-0 0.702,-4.841 0.702,-5.256c0,-0.415 2.213,-1.936 2.904,-4.148" style="fill:none;fill-rule:nonzero;stroke:#1a2e35;stroke-width:1px;"/><path d="M472.43,227.858c-0,0 -2.218,7.174 -17.155,34.388c-14.938,27.212 -21.011,42.274 -21.011,42.274l-28.434,7.785l7.342,45.51c-0,-0 48.959,-25.841 50.62,-29.346c1.659,-3.504 13.693,-40.326 17.841,-57.03c4.149,-16.703 9.213,-37.08 9.213,-37.08" style="fill:#fff;fill-rule:nonzero;stroke:#1a2e35;stroke-width:1px;"/><path d="M430.179,339.024c-2.554,10.281 -7.269,15.834 -11.271,18.795c-3.812,2.847 -6.977,3.343 -6.977,3.343l-41.976,23.243c-0,0 -8.908,-20.231 -6.684,-43.87c0.749,-7.865 2.731,-16.113 6.684,-24.107l40.31,-7.129l3.738,-3.736l6.632,-0c0,-0 14.527,13.394 9.544,33.461" style="fill:#00c49a;fill-rule:nonzero;"/><g><clipPath id="_clip2"><path d="M414.002,305.563l-3.736,3.736l-40.311,7.129c-3.952,7.994 -5.935,16.242 -6.684,24.107c-2.224,23.639 6.684,43.87 6.684,43.87l41.976,-23.243c-0,-0 3.164,-0.496 6.977,-3.343c4.003,-2.961 8.717,-8.514 11.272,-18.795c4.983,-20.067 -9.544,-33.461 -9.544,-33.461l-6.634,-0Z" clip-rule="nonzero"/></clipPath><g clip-path="url(#_clip2)"><g opacity="0.2"><g opacity="0.7"><path d="M418.908,357.819c-3.812,2.847 -6.977,3.343 -6.977,3.343l-41.977,23.243c0,0 -8.907,-20.231 -6.683,-43.87c7.917,0.891 5.299,27.566 8.083,27.871c3.011,0.343 16.087,-19.317 18.77,-19.317c4.282,-0 0.14,18.719 0.011,19.317c0.585,-0.204 19.293,-7.206 24.68,-17.424c2.694,-5.134 4.64,-0.749 4.093,6.837" style="fill-rule:nonzero;"/></g></g></g></g><path d="M430.179,339.024c-2.554,10.281 -7.269,15.834 -11.271,18.795c-3.812,2.847 -6.977,3.343 -6.977,3.343l-41.976,23.243c-0,0 -8.908,-20.231 -6.684,-43.87c0.749,-7.865 2.731,-16.113 6.684,-24.107l40.31,-7.129l3.738,-3.736l6.632,-0c0,-0 14.527,13.394 9.544,33.461Z" style="fill:none;fill-rule:nonzero;stroke:#1a2e35;stroke-width:1px;"/><path d="M410.267,309.303c-0,0 10.854,10.176 8.842,27.351" style="fill:none;fill-rule:nonzero;stroke:#1a2e35;stroke-width:1px;"/><path d="M385.942,357.815c0,-0 -12.276,16.177 -15.987,26.596c0,-0 -10.17,33.401 -24.246,42.636" style="fill:none;fill-rule:nonzero;stroke:#1a2e35;stroke-width:1px;"/><path d="M434.264,304.52c-0,0 6.464,-1.886 9.982,0.836" style="fill:none;fill-rule:nonzero;stroke:#1a2e35;stroke-width:1px;"/></g></svg>