<?xml version="1.0" encoding="UTF-8" standalone="no"?><!DOCTYPE svg PUBLIC "-//W3C//DTD SVG 1.1//EN" "http://www.w3.org/Graphics/SVG/1.1/DTD/svg11.dtd"><svg width="100%" height="100%" viewBox="0 0 750 539" version="1.1" xmlns="http://www.w3.org/2000/svg" xmlns:xlink="http://www.w3.org/1999/xlink" xml:space="preserve" xmlns:serif="http://www.serif.com/" style="fill-rule:evenodd;clip-rule:evenodd;stroke-linecap:round;stroke-linejoin:round;stroke-miterlimit:10;"><path d="M560.846,122.319c-0,0 -59.86,-68.764 -117.539,-80.251c-57.678,-11.487 -141.919,8.829 -173.627,50.003c-31.708,41.175 -104.767,23.226 -167.828,57.687c-63.062,34.461 -96.511,100.965 -81.13,160.554c15.38,59.589 54.982,72.058 74.978,98.622c19.995,26.564 106.896,101.229 215.332,91.178c108.435,-10.052 125.354,-44.512 182.263,-35.179c56.909,9.333 144.58,38.769 195.337,-22.974c50.757,-61.743 7.179,-61.576 27.174,-121.164c19.995,-59.589 16.394,-108.653 -8.983,-148.858c-25.379,-40.204 -126.75,-30.234 -145.977,-49.618" style="fill:#00c49a;fill-rule:nonzero;"/><g opacity="0.7"><path d="M560.846,122.319c-0,0 -59.86,-68.764 -117.539,-80.251c-57.678,-11.487 -141.919,8.829 -173.627,50.003c-31.708,41.175 -104.767,23.226 -167.828,57.687c-63.062,34.461 -96.511,100.965 -81.13,160.554c15.38,59.589 54.982,72.058 74.978,98.622c19.995,26.564 106.896,101.229 215.332,91.178c108.435,-10.052 125.354,-44.512 182.263,-35.179c56.909,9.333 144.58,38.769 195.337,-22.974c50.757,-61.743 7.179,-61.576 27.174,-121.164c19.995,-59.589 16.394,-108.653 -8.983,-148.858c-25.379,-40.204 -126.75,-30.234 -145.977,-49.618" style="fill:#fff;fill-rule:nonzero;"/></g><path d="M714.524,459.997l9.981,0" style="fill:none;fill-rule:nonzero;stroke:#1a2e35;stroke-width:1px;"/><path d="M30.868,459.997l675.039,0" style="fill:none;fill-rule:nonzero;stroke:#1a2e35;stroke-width:1px;"/><path d="M620.808,195.256c-0,0 -1.306,-9.134 -12.18,-12.179c-10.874,-3.045 -15.659,12.179 -18.268,13.484c-2.611,1.305 -6.525,-7.395 -13.485,-6.525c-6.96,0.87 -7.394,10.005 -8.699,11.309c-1.306,1.306 -5.22,-3.479 -9.135,-0.869c-3.915,2.61 -4.784,5.654 -4.784,5.654l-9.135,3.48l99.609,0c-0,0 -0.869,-9.569 -7.395,-13.049c-6.524,-3.48 -10.004,0.435 -12.178,0.87c-2.175,0.435 -4.35,-2.175 -4.35,-2.175Z" style="fill:none;fill-rule:nonzero;stroke:#1a2e35;stroke-width:1px;"/><path d="M388.751,297.425c-0,-0 -1.305,-9.135 -12.179,-12.18c-10.875,-3.044 -15.659,12.18 -18.269,13.485c-2.61,1.304 -6.525,-7.395 -13.485,-6.525c-6.959,0.87 -7.394,10.005 -8.699,11.31c-1.305,1.305 -5.22,-3.481 -9.135,-0.87c-3.914,2.609 -4.784,5.654 -4.784,5.654l-9.135,3.48l99.609,-0c-0,-0 -0.87,-9.569 -7.394,-13.049c-6.525,-3.48 -10.005,0.435 -12.179,0.87c-2.175,0.434 -4.35,-2.175 -4.35,-2.175Z" style="fill:none;fill-rule:nonzero;stroke:#1a2e35;stroke-width:1px;"/><path d="M209.221,179.245c-0,-0 -2.189,-15.325 -20.433,-20.433c-18.244,-5.109 -26.271,20.433 -30.65,22.622c-4.378,2.189 -10.946,-12.406 -22.622,-10.946c-11.676,1.459 -12.406,16.784 -14.595,18.973c-2.189,2.19 -8.757,-5.838 -15.325,-1.459c-6.567,4.378 -8.027,9.487 -8.027,9.487l-15.325,5.838l167.113,-0c-0,-0 -1.459,-16.055 -12.406,-21.893c-10.946,-5.838 -16.784,0.729 -20.433,1.459c-3.649,0.73 -7.297,-3.648 -7.297,-3.648Z" style="fill:none;fill-rule:nonzero;stroke:#1a2e35;stroke-width:1px;"/><path d="M377.982,46.738c-77.41,0.125 -140.124,59.726 -140.124,133.236c-0,0.369 0.002,0.736 0.005,1.102c0.344,39.988 33.6,72.115 73.577,71.118c6.209,-0.155 12.831,0.164 19.454,1.231c13.249,2.138 23.505,9.909 30.459,18.892c3.841,4.963 9.614,8.096 15.89,8.119c0.246,0.001 0.493,0.002 0.739,0.002c0.247,-0 0.493,-0.001 0.739,-0.002c6.276,-0.023 12.049,-3.156 15.891,-8.119c6.953,-8.983 17.209,-16.754 30.458,-18.892c6.623,-1.067 13.245,-1.386 19.454,-1.231c39.977,0.997 73.233,-31.13 73.577,-71.118c0.003,-0.366 0.005,-0.733 0.005,-1.102c-0,-73.51 -62.714,-133.111 -140.124,-133.236" style="fill:#00c49a;fill-rule:nonzero;"/><path d="M426.452,210.48l-30.996,6.702l36.989,-46.085l-50.513,47.088l-0.31,3.263l-2.258,-49.494l-3.566,78.175l-49.807,-46.43l36.989,46.084l-30.996,-6.701l39.183,16.902l3.957,4.929l-6.89,195.085l22.26,-0l-8.313,-226.278l5.088,-6.339l39.183,-16.902Z" style="fill:#1a2e35;fill-rule:nonzero;"/><path d="M350.125,165.077c0,0 -3.16,-9.028 -9.931,-12.188c-6.771,-3.16 -11.285,-4.062 -11.285,-4.062c0,0 3.612,18.507 21.216,16.25" style="fill:#1a2e35;fill-rule:nonzero;"/><path d="M300.316,129.636c-0,-0 -3.16,-9.028 -9.931,-12.188c-6.771,-3.159 -11.284,-4.062 -11.284,-4.062c-0,-0 3.611,18.507 21.215,16.25" style="fill:#1a2e35;fill-rule:nonzero;"/><path d="M358.302,141.082c0,-0 -0.521,-9.551 -6.144,-14.472c-5.622,-4.92 -9.706,-7.045 -9.706,-7.045c0,-0 -1.687,18.781 15.85,21.517" style="fill:#1a2e35;fill-rule:nonzero;"/><path d="M433.538,214.214c0,-0 -6.058,-7.402 -13.5,-8.056c-7.444,-0.652 -11.995,0.043 -11.995,0.043c0,-0 9.724,16.156 25.495,8.013" style="fill:#1a2e35;fill-rule:nonzero;"/><path d="M439.285,237.682c0,-0 -6.057,-7.402 -13.5,-8.056c-7.444,-0.652 -11.995,0.043 -11.995,0.043c0,-0 9.724,16.156 25.495,8.013" style="fill:#1a2e35;fill-rule:nonzero;"/><path d="M315.326,211.953c0,-0 6.057,-7.402 13.5,-8.056c7.444,-0.652 11.995,0.043 11.995,0.043c0,-0 -9.724,16.156 -25.495,8.013" style="fill:#1a2e35;fill-rule:nonzero;"/><path d="M290.421,233.026c0,-0 6.058,-7.402 13.501,-8.056c7.443,-0.652 11.994,0.043 11.994,0.043c0,-0 -9.724,16.156 -25.495,8.013" style="fill:#1a2e35;fill-rule:nonzero;"/><path d="M331.67,132.956c0,0 -0.521,-9.551 -6.144,-14.471c-5.623,-4.921 -9.707,-7.045 -9.707,-7.045c0,0 -1.686,18.781 15.851,21.516" style="fill:#1a2e35;fill-rule:nonzero;"/><path d="M420.144,138.373c-0,0 0.521,-9.551 6.143,-14.472c5.623,-4.92 9.708,-7.044 9.708,-7.044c-0,-0 1.685,18.781 -15.851,21.516" style="fill:#1a2e35;fill-rule:nonzero;"/><path d="M376.098,126.086c-0,0 5.516,-7.814 4.156,-15.162c-1.359,-7.347 -3.244,-11.546 -3.244,-11.546c-0,0 -12.972,13.686 -0.912,26.708" style="fill:#1a2e35;fill-rule:nonzero;"/><path d="M382.24,162.044c0,-0 0.896,-9.523 -3.938,-15.22c-4.835,-5.697 -8.561,-8.401 -8.561,-8.401c0,-0 -4.441,18.326 12.499,23.621" style="fill:#1a2e35;fill-rule:nonzero;"/><path d="M359.521,118.542c0,-0 2.856,-9.128 -0.689,-15.706c-3.544,-6.578 -6.626,-9.998 -6.626,-9.998c0,-0 -8.155,17.003 7.315,25.704" style="fill:#1a2e35;fill-rule:nonzero;"/><path d="M335.914,102.725c-0,0 1.158,-9.495 -3.518,-15.323c-4.676,-5.828 -8.325,-8.634 -8.325,-8.634c-0,0 -4.945,18.197 11.843,23.957" style="fill:#1a2e35;fill-rule:nonzero;"/><path d="M366.743,189.411c0,-0 2.856,-9.128 -0.688,-15.706c-3.545,-6.578 -6.627,-9.997 -6.627,-9.997c0,-0 -8.154,17.002 7.315,25.703" style="fill:#1a2e35;fill-rule:nonzero;"/><path d="M388.14,178.69c-0,0 8.079,-5.12 9.625,-12.43c1.547,-7.31 1.406,-11.911 1.406,-11.911c-0,0 -17.211,7.703 -11.031,24.341" style="fill:#1a2e35;fill-rule:nonzero;"/><path d="M389.1,118.542c0,-0 -2.856,-9.128 0.689,-15.706c3.544,-6.578 6.626,-9.998 6.626,-9.998c0,-0 8.154,17.003 -7.315,25.704" style="fill:#1a2e35;fill-rule:nonzero;"/><path d="M382.63,86.147c-0,-0.001 -5.191,-8.034 -3.534,-15.32c1.658,-7.284 3.714,-11.403 3.714,-11.403c-0,-0 12.401,14.203 -0.18,26.723" style="fill:#1a2e35;fill-rule:nonzero;"/><path d="M400.364,141.491c-0,-0 8.06,-5.151 9.578,-12.467c1.518,-7.316 1.359,-11.917 1.359,-11.917c-0,-0 -17.182,7.77 -10.937,24.384" style="fill:#1a2e35;fill-rule:nonzero;"/><path d="M426.227,100.302c-0,0 8.06,-5.151 9.577,-12.467c1.519,-7.316 1.36,-11.917 1.36,-11.917c-0,0 -17.182,7.77 -10.937,24.384" style="fill:#1a2e35;fill-rule:nonzero;"/><path d="M422.1,166.491c0,0 9.259,-2.4 12.969,-8.886c3.71,-6.486 4.985,-10.909 4.985,-10.909c0,0 -18.744,2.064 -17.954,19.795" style="fill:#1a2e35;fill-rule:nonzero;"/><path d="M456.583,142.065c0,0 9.259,-2.4 12.97,-8.886c3.71,-6.486 4.984,-10.909 4.984,-10.909c0,0 -18.743,2.064 -17.954,19.795" style="fill:#1a2e35;fill-rule:nonzero;"/><path d="M424.178,188.82c0,-0 8.686,4.006 15.665,1.336c6.978,-2.669 10.766,-5.286 10.766,-5.286c0,-0 -15.812,-10.272 -26.431,3.95" style="fill:#1a2e35;fill-rule:nonzero;"/><path d="M461.972,190.466c-0,-0 6.597,6.926 14.067,7.018c7.472,0.092 11.957,-0.944 11.957,-0.944c-0,-0 -10.911,-15.379 -26.024,-6.074" style="fill:#1a2e35;fill-rule:nonzero;"/><path d="M447.236,209.186c0,-0 5.214,8.019 12.542,9.48c7.327,1.461 11.927,1.266 11.927,1.266c0,0 -7.905,-17.12 -24.469,-10.746" style="fill:#1a2e35;fill-rule:nonzero;"/><path d="M436.366,168.507c0,-0 8.686,4.006 15.664,1.336c6.98,-2.669 10.767,-5.286 10.767,-5.286c0,-0 -15.813,-10.272 -26.431,3.95" style="fill:#1a2e35;fill-rule:nonzero;"/><path d="M472.766,163.238c-0,0 8.686,4.006 15.664,1.337c6.979,-2.67 10.766,-5.287 10.766,-5.287c-0,0 -15.813,-10.272 -26.43,3.95" style="fill:#1a2e35;fill-rule:nonzero;"/><path d="M314.772,181.483c0,-0 5.835,7.579 13.256,8.453c7.421,0.873 11.99,0.313 11.99,0.313c0,-0 -9.241,-16.437 -25.246,-8.766" style="fill:#1a2e35;fill-rule:nonzero;"/><path d="M295.814,155.302c-0,-0 5.835,7.579 13.256,8.453c7.42,0.874 11.99,0.313 11.99,0.313c-0,-0 -9.241,-16.437 -25.246,-8.766" style="fill:#1a2e35;fill-rule:nonzero;"/><path d="M253.225,163.807c0,-0 7.942,5.329 15.256,3.797c7.313,-1.532 11.467,-3.516 11.467,-3.516c0,-0 -13.989,-12.645 -26.723,-0.281" style="fill:#1a2e35;fill-rule:nonzero;"/><path d="M271.439,193.345c0,0 7.253,6.235 14.697,5.583c7.443,-0.652 11.803,-2.13 11.803,-2.13c0,0 -12.388,-14.216 -26.5,-3.453" style="fill:#1a2e35;fill-rule:nonzero;"/><path d="M419.139,346.621l-5.143,53.768c-0,0 -2.901,8.16 -2.901,8.704c-0,0.544 -3.264,33.909 -3.264,33.909c-0,0 -2.901,1.633 -2.539,2.721c0.363,1.087 1.813,7.072 1.813,7.072c-0,0 -3.082,9.066 -3.082,9.792c-0,0.724 6.165,1.088 7.979,0.906c1.813,-0.182 4.533,0.544 5.44,-1.994c0.906,-2.539 1.632,-8.16 1.632,-8.16l5.802,-7.798l-1.813,-8.523l8.704,-45.877l7.798,-19.041l5.077,0.182l1.813,42.432c-0,0 -4.17,25.024 -2.72,27.563c1.451,2.538 2.72,9.429 2.72,9.429l-0,5.44c-0,0 -0.363,2.539 0.907,3.627c1.269,1.088 12.512,0.907 13.6,1.088c1.088,0.182 7.072,1.088 8.523,0.726c1.45,-0.363 4.715,-1.995 3.989,-3.445c-0.726,-1.452 -6.891,-4.171 -8.522,-5.623c-1.632,-1.45 -3.809,-5.802 -3.809,-5.802c-0,0 1.088,-8.341 1.269,-9.611c0.182,-1.269 -0.181,-5.984 -0.181,-8.16c-0,-2.176 4.896,-28.288 4.896,-31.189c-0,-2.902 -0.725,-39.168 -0.725,-39.168l-47.263,-12.968Z" style="fill:#1a2e35;fill-rule:nonzero;stroke:#1a2e35;stroke-width:1px;"/><path d="M407.105,452.795c0,-0 -3.083,9.066 -3.083,9.792c0,0.725 6.166,1.088 7.979,0.906c1.813,-0.181 4.534,0.544 5.44,-1.995c0.907,-2.538 1.632,-8.159 1.632,-8.159c0,-0 -6.792,-2.646 -8.618,-2.646c-1.826,-0 -3.35,2.102 -3.35,2.102Z" style="fill:#fff;fill-rule:nonzero;stroke:#1a2e35;stroke-width:1px;"/><path d="M469.484,462.587c1.45,-0.363 4.715,-1.995 3.989,-3.445c-0.725,-1.451 -6.89,-4.171 -8.522,-5.622c-0.534,-0.474 -1.124,-1.259 -1.679,-2.1l-1.014,0.415c0,-0 -10.498,2.054 -13.464,2.281c-1.214,0.094 -1.915,0.148 -2.339,0.181l0,2.85c0,-0 -0.364,2.539 0.906,3.627c1.269,1.087 12.513,0.906 13.601,1.087c1.087,0.182 7.071,1.088 8.522,0.726" style="fill:#fff;fill-rule:nonzero;"/><path d="M469.484,462.587c1.45,-0.363 4.715,-1.995 3.989,-3.445c-0.725,-1.451 -6.89,-4.171 -8.522,-5.622c-0.534,-0.474 -1.124,-1.259 -1.679,-2.1l-1.014,0.415c0,-0 -10.498,2.054 -13.464,2.281c-1.214,0.094 -1.915,0.148 -2.339,0.181l0,2.85c0,-0 -0.364,2.539 0.906,3.627c1.269,1.087 12.513,0.906 13.601,1.087c1.087,0.182 7.071,1.088 8.522,0.726Z" style="fill:none;fill-rule:nonzero;stroke:#1a2e35;stroke-width:1px;"/><path d="M477.366,265.844c0,0 -3.243,1.699 -4.479,2.625c-1.235,0.927 -10.502,1.545 -16.372,1.545c-5.869,0 -14.054,6.951 -15.599,10.657c-1.544,3.707 -21.778,65.95 -21.778,65.95l46.335,14.673l13.284,-41.701l1.853,-3.399l0.154,10.194c0,0 8.65,1.544 10.04,1.236c1.389,-0.309 3.707,-0.309 3.707,-0.309l1.853,-20.079c0,0 -0.464,-6.641 -2.317,-13.436c-1.854,-6.796 -5.097,-12.665 -5.097,-12.665l-4.17,-8.032l1.235,-8.031c0,0 -5.251,-1.854 -8.649,0.772Z" style="fill:#fff;fill-rule:nonzero;stroke:#1a2e35;stroke-width:1px;"/><path d="M484.78,273.103l1.235,-8.032c0,0 -5.251,-1.853 -8.649,0.773c0,0 -3.243,1.698 -4.479,2.625c-0.587,0.441 -3,0.811 -5.991,1.078c0.307,1.384 2.823,11.967 8.308,12.977c4.805,0.886 10.433,-2.781 12.317,-4.141l-2.741,-5.28Z" style="fill:none;fill-rule:nonzero;stroke:#1a2e35;stroke-width:1px;"/><path d="M503.777,263.991c0,-0 2.317,-0.463 2.472,-2.163c0.154,-1.698 0.308,-6.641 -6.796,-11.737c-7.104,-5.098 -11.738,-5.561 -17.916,-1.236c-6.178,4.324 -6.024,13.592 -5.714,14.982c0.308,1.389 0.462,2.316 1.543,2.008c1.082,-0.31 3.399,-2.163 3.399,-2.163c-0,-0 4.478,4.016 12.046,4.325c7.57,0.309 10.966,-4.016 10.966,-4.016Z" style="fill:#1a2e35;fill-rule:nonzero;stroke:#1a2e35;stroke-width:1px;"/><path d="M503.777,263.991c0,-0 -2.315,8.495 -3.397,8.958c-1.082,0.463 -1.853,0.155 -2.471,0.618c-0.618,0.464 -1.391,5.406 -1.855,5.715c-0.462,0.308 -3.089,0.772 -3.089,0.772c0,-0 -4.168,2.008 -4.324,2.625c-0.154,0.618 0,1.854 -0.926,2.009c-3.394,0.563 -7.627,-3.731 -9.113,-6.488c-1.081,-2.007 1.236,-9.112 1.236,-9.112c0,-0 -2.162,-4.788 -1.236,-7.722c0.928,-2.936 3.553,-4.017 4.634,-2.781c1.08,1.236 1.544,4.943 1.544,4.943l1.236,1.544l2.935,-0.772c-0,-0 4.325,1.545 7.567,0.926c3.243,-0.617 7.26,-1.235 7.26,-1.235Z" style="fill:#fff;fill-rule:nonzero;stroke:#1a2e35;stroke-width:1px;"/><path d="M479.838,269.087l-1.467,6.507c-0.102,1.086 -0.07,2.046 0.232,2.606c1.484,2.757 5.718,7.051 9.111,6.487c0.928,-0.155 0.773,-1.391 0.928,-2.009c0.154,-0.617 4.324,-2.625 4.324,-2.625c-0,0 0.396,-0.07 0.907,-0.174l-0.289,-0.907c-0,0 -1.39,-2.008 -3.707,-2.163c-2.316,-0.154 -6.332,-1.852 -6.332,-1.852l2.471,-9.886l-1.236,-1.544l-2.471,3.706l-2.471,1.854Z" style="fill:#1a2e35;fill-rule:nonzero;stroke:#1a2e35;stroke-width:1px;"/><path d="M496.673,272.176c0,0 -1.081,-1.39 -3.243,-1.39" style="fill:none;fill-rule:nonzero;stroke:#1a2e35;stroke-width:1px;"/><path d="M495.438,273.412l-0.772,1.39c-0,0 -1.854,0 -2.472,-1.39" style="fill:none;fill-rule:nonzero;stroke:#1a2e35;stroke-width:1px;"/><path d="M488.333,279.59c0,-0 -1.545,-0.617 -1.545,-2.471" style="fill:none;fill-rule:nonzero;stroke:#fff;stroke-width:1px;"/><path d="M480.611,316.194c-0,0 6.023,-8.648 6.95,-13.128" style="fill:#fff;fill-rule:nonzero;stroke:#1a2e35;stroke-width:1px;"/><path d="M482.178,327.13c-0,-0 -0.907,11.424 -0.907,20.672c-0,9.248 -2.72,18.134 -2.72,18.134l-1.088,2.538c-0,-0 1.632,7.254 1.632,10.336c-0,3.083 -0.906,7.254 -0.906,7.254c-0,-0 4.715,-7.979 5.077,-10.88c0.362,-2.902 1.088,-9.792 1.088,-9.792c-0,-0 8.522,-28.108 8.522,-29.921l-0,-7.979c-0,-0 -8.885,-0.544 -10.698,-0.362Z" style="fill:#fff;fill-rule:nonzero;stroke:#1a2e35;stroke-width:1px;"/><path d="M473.834,392.256c-0.316,-0 -0.637,-0.082 -0.93,-0.254c-0.877,-0.515 -1.17,-1.642 -0.655,-2.518c2.022,-3.442 3.091,-7.383 3.091,-11.4c0,-12.428 -10.11,-22.539 -22.539,-22.539c-12.428,-0 -22.539,10.111 -22.539,22.539c0,1.467 0.141,2.934 0.421,4.359c0.195,0.998 -0.455,1.964 -1.453,2.16c-0.997,0.204 -1.963,-0.454 -2.16,-1.452c-0.325,-1.658 -0.489,-3.363 -0.489,-5.067c0,-14.458 11.762,-26.22 26.22,-26.22c14.458,-0 26.22,11.762 26.22,26.22c0,4.672 -1.245,9.258 -3.598,13.264c-0.343,0.583 -0.957,0.908 -1.589,0.908" style="fill:#00c49a;fill-rule:nonzero;"/><path d="M473.834,392.256c-0.316,-0 -0.637,-0.082 -0.93,-0.254c-0.877,-0.515 -1.17,-1.642 -0.655,-2.518c2.022,-3.442 3.091,-7.383 3.091,-11.4c0,-12.428 -10.11,-22.539 -22.539,-22.539c-12.428,-0 -22.539,10.111 -22.539,22.539c0,1.467 0.141,2.934 0.421,4.359c0.195,0.998 -0.455,1.964 -1.453,2.16c-0.997,0.204 -1.963,-0.454 -2.16,-1.452c-0.325,-1.658 -0.489,-3.363 -0.489,-5.067c0,-14.458 11.762,-26.22 26.22,-26.22c14.458,-0 26.22,11.762 26.22,26.22c0,4.672 -1.245,9.258 -3.598,13.264c-0.343,0.583 -0.957,0.908 -1.589,0.908Z" style="fill:none;fill-rule:nonzero;stroke:#1a2e35;stroke-width:1px;"/><path d="M448.711,358.659l-26.817,21.081c-1.26,0.99 -1.484,2.813 -0.502,4.078l21.51,27.746c0.968,1.248 2.754,1.499 4.029,0.565l27.904,-20.463c1.335,-0.98 1.588,-2.873 0.556,-4.168l-22.598,-28.364c-0.999,-1.253 -2.822,-1.466 -4.082,-0.475Z" style="fill:#00c49a;fill-rule:nonzero;stroke:#1a2e35;stroke-width:1px;"/><path d="M454.434,271.097c-0,0 -6.891,-0.544 -11.243,3.446c-4.352,3.989 -12.149,26.112 -12.149,26.112l14.87,6.347l6.709,-11.243" style="fill:#fff;fill-rule:nonzero;stroke:#1a2e35;stroke-width:1px;"/><path d="M431.042,300.655l-3.627,17.045l23.755,29.558l1.632,4.17c-0,0 3.808,4.534 3.99,5.078c0.18,0.544 2.538,1.813 4.533,1.813c1.995,0 3.989,-0.544 3.989,-0.544c-0,0 1.088,2.72 2.176,1.45c1.088,-1.268 1.088,-4.533 0.725,-6.709c-0.362,-2.175 0.544,-4.533 -1.631,-6.528c-2.176,-1.994 -5.803,-3.627 -7.073,-3.989c-1.269,-0.363 -18.496,-27.382 -18.496,-27.382l3.445,-8.703l-13.418,-5.259Z" style="fill:#fff;fill-rule:nonzero;stroke:#1a2e35;stroke-width:1px;"/><path d="M502.59,424.789c-0,0 14.08,9.505 19.713,29.219" style="fill:none;fill-rule:nonzero;stroke:#1a2e35;stroke-width:0.75px;stroke-dasharray:2,2;"/><path d="M508.926,420.213c-0,-0 12.673,6.688 18.657,16.897" style="fill:none;fill-rule:nonzero;stroke:#1a2e35;stroke-width:0.75px;stroke-dasharray:2,2;"/><path d="M511.742,413.524c0,0 10.209,4.225 13.729,9.153" style="fill:none;fill-rule:nonzero;stroke:#1a2e35;stroke-width:0.75px;stroke-dasharray:2,2;"/><path d="M467.853,396.943l6.527,7.798l34.454,5.621c-0,0 -0,3.808 -1.995,7.072c-1.994,3.264 -7.434,6.347 -7.434,6.347l-5.077,-10.518l-43.339,-4.171l16.864,-12.149Z" style="fill:#00c49a;fill-rule:nonzero;stroke:#1a2e35;stroke-width:1px;"/><path d="M304.392,377.077l-8.535,16.409c0,0 -18.791,4.919 -23.84,6.041c-5.049,1.122 -8.474,0.412 -8.474,0.412l-7.797,-1.054c0,0 -7.717,4.511 -8.177,4.755c-0.459,0.244 -0.369,1.131 0.793,1.103c1.163,-0.028 3.215,-1.187 3.215,-1.187c0,0 -3.644,2.073 -3.371,2.655c0.275,0.582 1.161,1.012 1.957,0.554c0.796,-0.458 4.102,-1.277 4.102,-1.277c0,0 -4.627,3.876 -2.884,4.094c1.743,0.217 3.429,-1.89 3.429,-1.89c0,0 -1.779,2.78 -0.555,2.477c1.224,-0.304 3.644,-2.073 3.644,-2.073c0,0 5.844,-0.54 7.863,-0.781c2.019,-0.241 3.673,-1.43 3.673,-1.43c0,0 13.276,-0.433 18.753,-1.402c5.477,-0.968 12.393,-2.423 13.099,-3.248c0.705,-0.824 11.786,-21.113 11.786,-21.113l-8.681,-3.045Z" style="fill:#fff;fill-rule:nonzero;stroke:#1a2e35;stroke-width:1px;"/><path d="M258.679,400.236c0,0 -6.337,2.74 -7.103,3.32c-0.766,0.579 -1.227,1.864 0.211,1.897c1.437,0.033 6.365,-1.578 6.365,-1.578c0,0 2.259,2.298 5.107,0.682l2.848,-1.615" style="fill:none;fill-rule:nonzero;stroke:#1a2e35;stroke-width:1px;"/><path d="M308.279,437.25l3.405,13.495c-0,0 -5.171,3.531 -6.558,4.288c-1.388,0.757 -6.432,2.018 -7.693,2.523c-1.261,0.504 -2.144,1.765 -0.631,2.648c1.514,0.883 9.459,1.513 12.99,1.387c3.531,-0.126 8.829,-0.757 8.829,-0.757c-0,-0 5.17,-0 5.675,-1.135c0.504,-1.135 0.126,-5.045 -0.883,-6.305c-1.009,-1.262 -2.775,-4.289 -3.027,-5.55c-0.252,-1.261 -1.387,-8.828 -1.387,-8.828l-10.72,-1.766Z" style="fill:#fff;fill-rule:nonzero;stroke:#1a2e35;stroke-width:1px;"/><path d="M324.295,459.699c0.505,-1.135 0.126,-5.045 -0.883,-6.306c-0.205,-0.257 -0.447,-0.6 -0.696,-0.974c-2.938,1.327 -9.141,1.604 -9.141,1.604c0,0 -0.504,-1.512 -0.631,-2.269c-0.126,-0.757 -1.26,-1.009 -1.26,-1.009c0,0 -5.171,3.531 -6.558,4.288c-1.388,0.756 -6.433,2.018 -7.694,2.522c-1.261,0.504 -2.144,1.765 -0.631,2.649c1.514,0.883 9.459,1.513 12.991,1.387c3.531,-0.126 8.828,-0.757 8.828,-0.757c0,0 5.171,0 5.675,-1.135" style="fill:#fff;fill-rule:nonzero;"/><path d="M324.295,459.699c0.505,-1.135 0.126,-5.045 -0.883,-6.306c-0.205,-0.257 -0.447,-0.6 -0.696,-0.974c-2.938,1.327 -9.141,1.604 -9.141,1.604c0,0 -0.504,-1.512 -0.631,-2.269c-0.126,-0.757 -1.26,-1.009 -1.26,-1.009c0,0 -5.171,3.531 -6.558,4.288c-1.388,0.756 -6.433,2.018 -7.694,2.522c-1.261,0.504 -2.144,1.765 -0.631,2.649c1.514,0.883 9.459,1.513 12.991,1.387c3.531,-0.126 8.828,-0.757 8.828,-0.757c0,0 5.171,0 5.675,-1.135Z" style="fill:none;fill-rule:nonzero;stroke:#1a2e35;stroke-width:1px;"/><path d="M339.304,444.313l7.819,3.279c-0,-0 0.126,3.658 -1.513,6.559c-1.64,2.899 -2.649,5.043 -4.54,6.053c-1.892,1.008 -3.91,2.522 -2.649,3.531c1.261,1.01 13.242,0.883 14.63,0.378c1.387,-0.503 5.675,-7.063 6.684,-8.827c1.009,-1.767 2.649,-7.19 2.018,-7.947c-0.631,-0.755 -4.162,-4.666 -4.162,-4.666l-1.135,-0.63l-14.378,-2.019l-2.774,4.288Z" style="fill:#fff;fill-rule:nonzero;stroke:#1a2e35;stroke-width:1px;"/><path d="M361.753,447.34c-0.63,-0.757 -4.162,-4.667 -4.162,-4.667l-1.135,-0.63l-0.083,-0.012c-0.023,0.997 -0.043,2.071 -0.043,2.913c-0,2.144 -2.648,4.666 -2.648,4.666c-0,-0 -2.144,-1.513 -4.667,-2.396c-2.522,-0.883 -1.891,0.378 -1.891,0.378c-0,-0 0.126,3.657 -1.514,6.559c-1.64,2.9 -2.649,5.043 -4.54,6.053c-1.892,1.009 -3.91,2.522 -2.649,3.532c1.262,1.008 13.243,0.882 14.63,0.377c1.388,-0.503 5.675,-7.062 6.684,-8.828c1.009,-1.765 2.649,-7.188 2.018,-7.945" style="fill:#fff;fill-rule:nonzero;"/><path d="M361.753,447.34c-0.63,-0.757 -4.162,-4.667 -4.162,-4.667l-1.135,-0.63l-0.083,-0.012c-0.023,0.997 -0.043,2.071 -0.043,2.913c-0,2.144 -2.648,4.666 -2.648,4.666c-0,-0 -2.144,-1.513 -4.667,-2.396c-2.522,-0.883 -1.891,0.378 -1.891,0.378c-0,-0 0.126,3.657 -1.514,6.559c-1.64,2.9 -2.649,5.043 -4.54,6.053c-1.892,1.009 -3.91,2.522 -2.649,3.532c1.262,1.008 13.243,0.882 14.63,0.377c1.388,-0.503 5.675,-7.062 6.684,-8.828c1.009,-1.765 2.649,-7.188 2.018,-7.945Z" style="fill:none;fill-rule:nonzero;stroke:#1a2e35;stroke-width:1px;"/><path d="M331.736,410.387l-0.756,2.271c0,-0 -9.712,-7.315 -19.423,-10.72c-9.711,-3.405 -17.026,-4.162 -19.8,-0.505c-2.775,3.657 -1.009,11.225 1.766,15.008c2.774,3.784 9.711,21.818 9.711,21.818l4.162,0.253l4.288,3.531c0,-0 12.99,3.027 14.503,3.657c1.513,0.631 9.837,4.792 9.837,4.792c0,-0 3.91,-3.404 5.045,-4.917c1.135,-1.514 2.774,-5.045 2.774,-5.045l14.756,1.639c0,-0 6.937,-5.297 7.82,-13.368c0.882,-8.072 -0.631,-13.621 -1.514,-15.009c-0.883,-1.386 -2.774,-4.414 -2.774,-4.414l-1.514,-1.891l-28.881,2.9Z" style="fill:#1a2e35;fill-rule:nonzero;stroke:#1a2e35;stroke-width:1px;"/><path d="M355.536,426.534c1.152,0.589 2.307,1.257 3.442,2.014" style="fill:none;fill-rule:nonzero;stroke:#fff;stroke-width:1px;"/><path d="M306.135,436.367c-0,0 -3.531,-4.414 -1.766,-7.819c1.766,-3.406 22.702,-7.567 35.187,-6.432c-0,0 6.715,0.246 14.075,3.509" style="fill:none;fill-rule:nonzero;stroke:#fff;stroke-width:1px;"/><path d="M341.574,421.233c-0,0 8.198,-0.505 16.521,0.757" style="fill:none;fill-rule:nonzero;stroke:#fff;stroke-width:1px;"/><path d="M331.989,413.666c-0,0 4.162,3.405 5.297,5.676" style="fill:none;fill-rule:nonzero;stroke:#1a2e35;stroke-width:1px;"/><path d="M297.937,410.009c0,-0 13.495,9.585 16.773,13.873" style="fill:none;fill-rule:nonzero;stroke:#fff;stroke-width:1px;"/><path d="M343.844,440.529c-0,0 -9.081,-4.162 -13.999,-5.171c-4.918,-1.009 -5.675,-0.378 -9.207,-2.143" style="fill:none;fill-rule:nonzero;stroke:#fff;stroke-width:1px;"/><path d="M314.963,435.484c-0,0 4.667,0.379 7.188,-0.757" style="fill:none;fill-rule:nonzero;stroke:#fff;stroke-width:1px;"/><path d="M318.873,356.03c-0,0 -6.612,4.498 -8,7.777c-1.387,3.28 -6.48,13.27 -6.48,13.27l8.931,4.807c-0,0 8.702,14.882 10.846,19.674c2.144,4.793 6.306,6.559 6.306,6.559c-0,0 0.756,1.766 2.018,2.017c1.261,0.252 28.124,-2.648 28.124,-2.648c-0,0 -0.505,-3.152 -1.261,-5.297c-0.757,-2.143 -4.414,-6.936 -5.045,-9.711c-0.63,-2.774 -2.648,-17.656 -6.18,-24.089c-3.531,-6.431 -11.602,-11.98 -12.99,-13.368c-1.387,-1.387 -0.756,-1.261 -2.144,-1.765c-1.387,-0.504 -9.08,-0.504 -14.125,2.774Z" style="fill:#fff;fill-rule:nonzero;stroke:#1a2e35;stroke-width:1px;"/><path d="M335.678,405.525c5.917,0.532 17.297,1.587 19.187,1.985" style="fill:none;fill-rule:nonzero;stroke:#1a2e35;stroke-width:1px;"/><path d="M332.111,405.208c0,-0 0.799,0.069 2.099,0.186" style="fill:none;fill-rule:nonzero;stroke:#1a2e35;stroke-width:1px;"/><path d="M354.643,405.632l2.389,0.524" style="fill:none;fill-rule:nonzero;stroke:#1a2e35;stroke-width:1px;"/><path d="M341.592,402.77l9.655,2.117" style="fill:none;fill-rule:nonzero;stroke:#1a2e35;stroke-width:1px;"/><path d="M347.547,388.68c1.405,0.526 2.569,0.94 3.119,1.088" style="fill:none;fill-rule:nonzero;stroke:#1a2e35;stroke-width:1px;"/><path d="M338.206,385.026c-0,0 3.769,1.518 7.216,2.846" style="fill:none;fill-rule:nonzero;stroke:#1a2e35;stroke-width:1px;"/><path d="M304.243,332.951c-0,0 -0.504,1.64 -1.009,5.045c-0.504,3.405 1.387,4.54 1.766,6.684c0.378,2.144 -2.144,5.17 -2.018,6.053c0.126,0.883 2.396,0.883 2.396,0.883c-0,0 4.458,7.824 5.719,7.951c1.261,0.126 5.506,-3.537 5.506,-3.537l4.792,5.297c-0,0 -0.504,4.162 0.631,3.658c1.135,-0.505 3.279,-2.144 5.675,-5.045c2.396,-2.901 5.297,-4.667 5.297,-4.667c-0,0 -3.153,-4.035 -3.783,-6.431c-0.631,-2.397 2.017,-0.505 2.522,-6.306c0.505,-5.802 -1.766,-11.477 -5.802,-14.63c-4.035,-3.153 -11.855,-4.54 -17.404,-1.514c-5.549,3.028 -4.666,5.55 -4.288,6.559Z" style="fill:#fff;fill-rule:nonzero;stroke:#1a2e35;stroke-width:1px;"/><path d="M325.935,327.906c-4.036,-3.153 -11.855,-4.54 -17.404,-1.514c-5.55,3.028 -4.666,5.55 -4.288,6.559c0,0 2.649,1.514 4.54,1.892c1.892,0.378 5.045,-1.135 5.171,2.522c0.126,3.657 4.288,7.314 5.927,5.297c1.64,-2.018 4.162,-2.144 4.793,0.126c0.631,2.27 -1.135,3.91 -0.126,5.045c1.009,1.135 4.162,0.126 4.162,0.126c0,0 0.168,0.011 0.436,0.028c0.227,-1.129 2.165,-0.566 2.59,-5.451c0.505,-5.802 -1.765,-11.477 -5.801,-14.63" style="fill:#1a2e35;fill-rule:nonzero;"/><path d="M325.935,327.906c-4.036,-3.153 -11.855,-4.54 -17.404,-1.514c-5.55,3.028 -4.666,5.55 -4.288,6.559c0,0 2.649,1.514 4.54,1.892c1.892,0.378 5.045,-1.135 5.171,2.522c0.126,3.657 4.288,7.314 5.927,5.297c1.64,-2.018 4.162,-2.144 4.793,0.126c0.631,2.27 -1.135,3.91 -0.126,5.045c1.009,1.135 4.162,0.126 4.162,0.126c0,0 0.168,0.011 0.436,0.028c0.227,-1.129 2.165,-0.566 2.59,-5.451c0.505,-5.802 -1.765,-11.477 -5.801,-14.63Z" style="fill:none;fill-rule:nonzero;stroke:#1a2e35;stroke-width:1px;"/><path d="M337.538,330.807c0,3.553 -2.908,6.433 -6.495,6.433c-3.588,-0 -6.495,-2.88 -6.495,-6.433c0,-3.552 2.907,-6.432 6.495,-6.432c3.587,-0 6.495,2.88 6.495,6.432" style="fill:#1a2e35;fill-rule:nonzero;"/><path d="M337.538,330.807c0,-3.55 -2.91,-6.432 -6.495,-6.432c-3.584,-0 -6.495,2.882 -6.495,6.432c0,3.55 2.911,6.433 6.495,6.433c3.585,-0 6.495,-2.883 6.495,-6.433Z" style="fill:none;stroke:#1a2e35;stroke-width:1px;"/><path d="M308.486,345.885c0.258,0.685 0.177,1.349 -0.181,1.484c-0.359,0.136 -0.859,-0.309 -1.117,-0.993c-0.259,-0.684 -0.178,-1.348 0.181,-1.484c0.358,-0.136 0.858,0.309 1.117,0.993" style="fill:#1a2e35;fill-rule:nonzero;"/><path d="M308.153,354.013c-0,-0 1.639,-0.505 2.144,-2.271" style="fill:none;fill-rule:nonzero;stroke:#1a2e35;stroke-width:1px;"/><path d="M305.756,343.545c0,-0 1.513,-1.009 3.027,0.505" style="fill:none;fill-rule:nonzero;stroke:#1a2e35;stroke-width:1px;"/><path d="M324.17,346.445c-0,0 -1.64,2.019 -2.774,2.019l-1.136,0" style="fill:none;fill-rule:nonzero;stroke:#1a2e35;stroke-width:1px;"/><path d="M334.328,362.317c-0,0 -4.91,2.229 -6.51,3.656c-1.601,1.427 -10.833,9.377 -10.833,9.377l18.12,11.566l12.638,-9.425" style="fill:#fff;fill-rule:nonzero;stroke:#1a2e35;stroke-width:1px;"/><path d="M316.985,375.351l-15.49,6.224c-0,-0 -9.46,1.128 -18.088,1.404c-8.628,0.276 -16.796,0.311 -17.62,0.122c-0.824,-0.189 -8.625,-4.526 -9.327,-4.745c-0.702,-0.219 -7.51,2.212 -7.51,2.212c-0,-0 -1.095,3.51 -0.946,4.122c0.148,0.613 1.344,0.193 1.344,0.193c-0,-0 0.536,2.206 0.9,2.637c0.364,0.431 0.966,1.842 1.612,1.296c0.646,-0.546 2.439,-3.318 2.439,-3.318c-0,-0 4.332,1.805 5.981,2.183c1.649,0.379 10.849,1.392 12.989,1.65c2.139,0.26 27.11,3.157 27.756,2.61c0.646,-0.546 25.005,-10.868 25.005,-10.868l-9.045,-5.722Z" style="fill:#fff;fill-rule:nonzero;stroke:#1a2e35;stroke-width:1px;"/><path d="M254.057,380.756l-3.19,1.293l-1.519,2.834" style="fill:none;fill-rule:nonzero;stroke:#1a2e35;stroke-width:1px;"/><path d="M254.57,381.799l-2.952,2.273l-1.37,3.448" style="fill:none;fill-rule:nonzero;stroke:#1a2e35;stroke-width:1px;"/><path d="M255.45,382.753l-2.893,2.52l-0.697,3.542" style="fill:none;fill-rule:nonzero;stroke:#1a2e35;stroke-width:1px;"/><path d="M538.727,458.84l-0,-76.88" style="fill:none;fill-rule:nonzero;stroke:#1a2e35;stroke-width:1px;"/><path d="M539.253,433.802l21.481,-23.476" style="fill:none;fill-rule:nonzero;stroke:#1a2e35;stroke-width:1px;"/><path d="M538.588,411.212l-14.395,-13.73" style="fill:none;fill-rule:nonzero;stroke:#1a2e35;stroke-width:1px;"/><path d="M550.99,421.178l1.107,-14.173" style="fill:none;fill-rule:nonzero;stroke:#1a2e35;stroke-width:1px;"/><path d="M538.81,447.754l-16.388,-9.523" style="fill:none;fill-rule:nonzero;stroke:#1a2e35;stroke-width:1px;"/><path d="M532.166,405.012l-13.066,0.442" style="fill:none;fill-rule:nonzero;stroke:#1a2e35;stroke-width:1px;"/><path d="M542.311,375.317c-0,4.523 -3.737,8.19 -3.737,8.19c-0,0 -3.738,-3.667 -3.738,-8.19c-0,-4.523 3.738,-8.19 3.738,-8.19c-0,0 3.737,3.667 3.737,8.19" style="fill:#00c49a;fill-rule:nonzero;"/><path d="M522.811,391.037c3.53,2.828 4.056,8.037 4.056,8.037c-0,0 -5.2,0.624 -8.73,-2.204c-3.529,-2.828 -4.055,-8.038 -4.055,-8.038c-0,0 5.199,-0.623 8.729,2.205" style="fill:#00c49a;fill-rule:nonzero;"/><path d="M516.747,401.569c4.523,0.031 8.164,3.793 8.164,3.793c0,0 -3.692,3.712 -8.216,3.682c-4.523,-0.032 -8.164,-3.794 -8.164,-3.794c0,0 3.693,-3.712 8.216,-3.681" style="fill:#00c49a;fill-rule:nonzero;"/><path d="M556.237,406.626c-0.462,4.5 -4.555,7.767 -4.555,7.767c0,-0 -3.343,-4.03 -2.882,-8.53c0.461,-4.499 4.553,-7.765 4.553,-7.765c0,-0 3.344,4.029 2.883,8.528" style="fill:#00c49a;fill-rule:nonzero;"/><path d="M531.557,429.615c2.3,3.896 7.382,5.152 7.382,5.152c-0,0 1.353,-5.057 -0.946,-8.953c-2.3,-3.894 -7.382,-5.152 -7.382,-5.152c-0,0 -1.354,5.058 0.946,8.953" style="fill:#00c49a;fill-rule:nonzero;"/><path d="M546.174,406.766c-2.3,3.895 -7.383,5.152 -7.383,5.152c0,-0 -1.353,-5.058 0.946,-8.953c2.3,-3.895 7.382,-5.152 7.382,-5.152c0,-0 1.355,5.057 -0.945,8.953" style="fill:#00c49a;fill-rule:nonzero;"/><path d="M521.939,432.404c3.714,2.582 4.591,7.744 4.591,7.744c-0,0 -5.144,0.975 -8.859,-1.607c-3.713,-2.582 -4.59,-7.744 -4.59,-7.744c-0,0 5.144,-0.975 8.858,1.607" style="fill:#00c49a;fill-rule:nonzero;"/><path d="M567.241,408.597c-3.009,3.378 -8.239,3.63 -8.239,3.63c0,-0 -0.351,-5.225 2.658,-8.602c3.009,-3.378 8.238,-3.63 8.238,-3.63c0,-0 0.352,5.225 -2.657,8.602" style="fill:#00c49a;fill-rule:nonzero;"/><path d="M516.916,459.738c0,0 16.25,-6.5 22.75,-6.5c6.5,0 21.938,6.906 21.938,6.906l-44.688,-0.406Z" style="fill:#1a2e35;fill-rule:nonzero;"/><path d="M633.994,458.84l0,-76.88" style="fill:none;fill-rule:nonzero;stroke:#1a2e35;stroke-width:1px;"/><path d="M633.468,451.519l-21.481,-23.475" style="fill:none;fill-rule:nonzero;stroke:#1a2e35;stroke-width:1px;"/><path d="M634.133,411.212l14.395,-13.73" style="fill:none;fill-rule:nonzero;stroke:#1a2e35;stroke-width:1px;"/><path d="M621.731,438.895l-1.107,-14.173" style="fill:none;fill-rule:nonzero;stroke:#1a2e35;stroke-width:1px;"/><path d="M633.911,447.754l16.388,-9.523" style="fill:none;fill-rule:nonzero;stroke:#1a2e35;stroke-width:1px;"/><path d="M640.555,405.012l13.066,0.442" style="fill:none;fill-rule:nonzero;stroke:#1a2e35;stroke-width:1px;"/><path d="M630.409,389.023c0,4.522 3.737,8.19 3.737,8.19c0,-0 3.738,-3.668 3.738,-8.19c0,-4.524 -3.738,-8.19 -3.738,-8.19c0,-0 -3.737,3.666 -3.737,8.19" style="fill:#00c49a;fill-rule:nonzero;"/><path d="M649.909,391.037c-3.529,2.828 -4.055,8.037 -4.055,8.037c0,0 5.2,0.624 8.729,-2.204c3.53,-2.828 4.055,-8.038 4.055,-8.038c0,0 -5.199,-0.623 -8.729,2.205" style="fill:#00c49a;fill-rule:nonzero;"/><path d="M655.974,401.569c-4.523,0.031 -8.164,3.793 -8.164,3.793c-0,0 3.692,3.712 8.216,3.682c4.522,-0.032 8.164,-3.794 8.164,-3.794c-0,0 -3.693,-3.712 -8.216,-3.681" style="fill:#00c49a;fill-rule:nonzero;"/><path d="M634.341,416.64l-14.395,-13.73" style="fill:none;fill-rule:nonzero;stroke:#1a2e35;stroke-width:1px;"/><path d="M627.919,410.438l-13.066,0.443" style="fill:none;fill-rule:nonzero;stroke:#1a2e35;stroke-width:1px;"/><path d="M618.564,396.464c3.53,2.828 4.056,8.038 4.056,8.038c-0,-0 -5.2,0.623 -8.73,-2.205c-3.529,-2.828 -4.055,-8.037 -4.055,-8.037c-0,-0 5.199,-0.624 8.729,2.204" style="fill:#00c49a;fill-rule:nonzero;"/><path d="M612.5,406.996c4.522,0.031 8.164,3.793 8.164,3.793c0,0 -3.692,3.713 -8.216,3.682c-4.523,-0.032 -8.164,-3.793 -8.164,-3.793c0,0 3.693,-3.713 8.216,-3.682" style="fill:#00c49a;fill-rule:nonzero;"/><path d="M616.485,424.344c0.462,4.5 4.553,7.767 4.553,7.767c0,-0 3.343,-4.03 2.883,-8.53c-0.462,-4.5 -4.555,-7.766 -4.555,-7.766c0,-0 -3.343,4.029 -2.882,8.529" style="fill:#00c49a;fill-rule:nonzero;"/><path d="M641.684,418.919c-4.313,1.361 -8.935,-1.1 -8.935,-1.1c-0,-0 2.373,-4.668 6.687,-6.028c4.313,-1.361 8.935,1.1 8.935,1.1c-0,-0 -2.373,4.668 -6.687,6.028" style="fill:#00c49a;fill-rule:nonzero;"/><path d="M650.782,432.404c-3.714,2.582 -4.591,7.744 -4.591,7.744c0,0 5.144,0.975 8.858,-1.607c3.713,-2.582 4.591,-7.744 4.591,-7.744c0,0 -5.144,-0.975 -8.858,1.607" style="fill:#00c49a;fill-rule:nonzero;"/><path d="M605.48,426.315c3.009,3.377 8.238,3.629 8.238,3.629c-0,-0 0.352,-5.224 -2.657,-8.601c-3.009,-3.378 -8.239,-3.63 -8.239,-3.63c-0,-0 -0.351,5.224 2.658,8.601" style="fill:#00c49a;fill-rule:nonzero;"/><path d="M610.76,459.738c-0,0 16.25,-6.5 22.75,-6.5c6.5,0 21.938,6.906 21.938,6.906l-44.688,-0.406Z" style="fill:#1a2e35;fill-rule:nonzero;"/><path d="M248.293,458.84l-0,-76.88" style="fill:none;fill-rule:nonzero;stroke:#1a2e35;stroke-width:1px;"/><path d="M248.818,433.802l21.482,-23.476" style="fill:none;fill-rule:nonzero;stroke:#1a2e35;stroke-width:1px;"/><path d="M248.154,411.212l-14.395,-13.73" style="fill:none;fill-rule:nonzero;stroke:#1a2e35;stroke-width:1px;"/><path d="M260.556,421.178l1.107,-14.173" style="fill:none;fill-rule:nonzero;stroke:#1a2e35;stroke-width:1px;"/><path d="M248.375,447.754l-16.388,-9.523" style="fill:none;fill-rule:nonzero;stroke:#1a2e35;stroke-width:1px;"/><path d="M241.732,405.012l-13.066,0.442" style="fill:none;fill-rule:nonzero;stroke:#1a2e35;stroke-width:1px;"/><path d="M251.877,375.317c-0,4.523 -3.737,8.19 -3.737,8.19c-0,0 -3.738,-3.667 -3.738,-8.19c-0,-4.523 3.738,-8.19 3.738,-8.19c-0,0 3.737,3.667 3.737,8.19" style="fill:#00c49a;fill-rule:nonzero;"/><path d="M232.377,391.037c3.53,2.828 4.055,8.037 4.055,8.037c-0,0 -5.199,0.624 -8.729,-2.204c-3.53,-2.828 -4.055,-8.038 -4.055,-8.038c-0,0 5.199,-0.623 8.729,2.205" style="fill:#00c49a;fill-rule:nonzero;"/><path d="M226.313,401.569c4.523,0.031 8.164,3.793 8.164,3.793c-0,0 -3.692,3.712 -8.215,3.682c-4.524,-0.032 -8.165,-3.794 -8.165,-3.794c-0,0 3.693,-3.712 8.216,-3.681" style="fill:#00c49a;fill-rule:nonzero;"/><path d="M265.802,406.626c-0.462,4.5 -4.554,7.767 -4.554,7.767c-0,-0 -3.343,-4.03 -2.882,-8.53c0.462,-4.499 4.554,-7.765 4.554,-7.765c-0,-0 3.343,4.029 2.882,8.528" style="fill:#00c49a;fill-rule:nonzero;"/><path d="M241.122,429.615c2.3,3.896 7.383,5.152 7.383,5.152c-0,0 1.353,-5.057 -0.946,-8.953c-2.3,-3.894 -7.383,-5.152 -7.383,-5.152c-0,0 -1.354,5.058 0.946,8.953" style="fill:#00c49a;fill-rule:nonzero;"/><path d="M255.739,406.766c-2.3,3.895 -7.382,5.152 -7.382,5.152c-0,-0 -1.354,-5.058 0.946,-8.953c2.3,-3.895 7.382,-5.152 7.382,-5.152c-0,-0 1.354,5.057 -0.946,8.953" style="fill:#00c49a;fill-rule:nonzero;"/><path d="M231.504,432.404c3.714,2.582 4.591,7.744 4.591,7.744c0,0 -5.144,0.975 -8.858,-1.607c-3.714,-2.582 -4.591,-7.744 -4.591,-7.744c0,0 5.144,-0.975 8.858,1.607" style="fill:#00c49a;fill-rule:nonzero;"/><path d="M276.807,408.597c-3.009,3.378 -8.239,3.63 -8.239,3.63c-0,-0 -0.351,-5.225 2.658,-8.602c3.009,-3.378 8.239,-3.63 8.239,-3.63c-0,-0 0.351,5.225 -2.658,8.602" style="fill:#00c49a;fill-rule:nonzero;"/><path d="M226.039,459.738c0,0 16.25,-6.5 22.75,-6.5c6.5,0 21.938,6.906 21.938,6.906l-44.688,-0.406Z" style="fill:#1a2e35;fill-rule:nonzero;"/><path d="M189.316,411.494c0,0 -14.43,20.008 -13.995,21.017c0.434,1.008 6.586,5.296 13.159,7.968c6.572,2.672 16.485,1.435 23.058,-1.634c0,0 0.309,-9.435 -9.68,-20.073c-6.185,-6.587 -12.542,-7.278 -12.542,-7.278Z" style="fill:#afafaf;fill-rule:nonzero;stroke:#1a2e35;stroke-width:1px;"/><path d="M206.515,430.489c0,0 -3.551,-0.819 -4.917,0.547c-1.366,1.365 -2.731,4.37 -1.912,5.463c0.819,1.093 1.912,2.731 1.912,2.731c0,0 -2.731,-0.273 -2.731,1.912c0,2.186 -1.64,6.01 1.638,8.469c3.279,2.458 6.01,-1.093 6.829,-1.64c0.82,-0.545 1.093,-4.097 1.093,-4.097c0,0 3.278,-0.273 4.371,-2.458c1.092,-2.186 1.639,-4.917 -0.273,-7.922c-1.912,-3.005 -6.01,-3.005 -6.01,-3.005" style="fill:#1a2e35;fill-rule:nonzero;"/><path d="M210.339,447.152c0,0 -5.19,5.19 -3.824,6.283c1.367,1.093 4.644,3.005 4.644,3.005c0,0 3.279,0 3.825,-2.459c0.546,-2.458 1.093,-4.37 -0.273,-5.463c-1.367,-1.093 -1.367,-2.185 -4.371,-1.366" style="fill:#1a2e35;fill-rule:nonzero;"/><path d="M211.159,456.44c0,0 -4.917,1.092 -6.829,1.912c-1.913,0.819 -4.917,1.365 -4.917,1.365l33.599,0c0,0 -1.093,-3.824 -4.098,-4.37c-3.005,-0.547 -10.107,0.82 -10.107,0.82c0,0 -0.819,-1.639 -3.824,-2.186c-3.005,-0.546 -3.824,2.459 -3.824,2.459" style="fill:#1a2e35;fill-rule:nonzero;"/><path d="M202.691,454.664c0,0.68 -0.55,1.229 -1.229,1.229c-0.679,0 -1.229,-0.549 -1.229,-1.229c0,-0.679 0.55,-1.229 1.229,-1.229c0.679,0 1.229,0.55 1.229,1.229" style="fill:#1a2e35;fill-rule:nonzero;"/><path d="M198.32,447.972c0,1.207 -0.979,2.186 -2.186,2.186c-1.207,-0 -2.185,-0.979 -2.185,-2.186c0,-1.207 0.978,-2.186 2.185,-2.186c1.207,-0 2.186,0.979 2.186,2.186" style="fill:#1a2e35;fill-rule:nonzero;"/><path d="M157.614,449.601c0,-0 5.228,4.975 6.678,5.893c1.451,0.918 4.547,2.264 4.247,4.585c-0.299,2.321 -7.738,3.9 -9.317,2.307c-1.579,-1.594 -14.179,-6.155 -14.612,-7.348c-0.433,-1.195 0.524,-3.311 0.524,-3.311l11.286,-1.693l1.194,-0.433Z" style="fill:#fff;fill-rule:nonzero;stroke:#1a2e35;stroke-width:1px;"/><path d="M146.608,355.776c-0,0 8.79,39.083 9,47.111c0.209,8.03 -1.527,35.488 -1.527,35.488c-0,0 3.919,7.406 4.048,8.081c0.128,0.675 -0.476,2.478 -0.514,3.144c-0,0 -13.408,3.743 -14.75,3.833c-1.341,0.091 -3.505,-0.033 -3.505,-0.033c-0,0 -1.246,-13.266 -2.497,-17.679c-1.251,-4.414 -6.141,-29.913 -6.141,-29.913l-10.436,-27.82c-0,0 -4.647,-15.13 -5.455,-18.517c-0.809,-3.386 -0,-11.691 -0,-11.691c-0,0 20.095,1.983 23.867,3.201c3.772,1.218 7.91,4.795 7.91,4.795Z" style="fill:#1a2e35;fill-rule:nonzero;stroke:#1a2e35;stroke-width:1px;"/><path d="M145.134,451.727c-0,-0 2.578,1.65 5.046,2.292c2.469,0.643 10.013,3.078 10.269,4.429c0.257,1.35 -0.513,3.143 -1.227,3.938c-0.713,0.794 -7.096,1.432 -11.434,1.351c-4.338,-0.081 -11.696,-2.84 -12.842,-3.239c-1.146,-0.4 -2.94,-1.17 -2.94,-1.17c-0,-0 10.807,-7.901 13.128,-7.601Z" style="fill:#fff;fill-rule:nonzero;stroke:#1a2e35;stroke-width:1px;"/><path d="M141.071,364.98l-5.127,2.045l-0.162,2.829l5.665,26.546c0,0 0.328,8.87 0.999,11.749c0.67,2.877 1.722,34.169 1.722,34.169c0,0 2.63,3.658 2.934,4.176c0.305,0.519 0.352,5.533 0.352,5.533c0,-0 -9.931,4.274 -12.709,6.12c-2.778,1.846 -3.895,0.947 -3.895,0.947c0,-0 -3.606,-1.209 -4.086,-1.57c-0.48,-0.361 -0.495,-3.034 -0.495,-3.034c0,0 -6.188,-29.081 -7.058,-34.308c-0.87,-5.227 -3.259,-21.898 -3.259,-21.898c0,0 -8.494,-32.553 -9.184,-35.098c-0.69,-2.544 -0.604,-15.733 -0.604,-15.733c0,-0 17.384,2.663 21.047,2.873c3.662,0.209 14.654,3.676 14.654,3.676l1.118,0.9" style="fill:#1a2e35;fill-rule:nonzero;stroke:#1a2e35;stroke-width:1px;"/><path d="M139.671,368.563l-6.032,2.482c-0,0 8.743,34.459 8.807,37.103c0.065,2.643 0.419,37.776 0.419,37.776" style="fill:none;fill-rule:nonzero;stroke:#fff;stroke-width:1px;"/><path d="M172.908,300.798c-0,-0 -12.803,-3.988 -15.035,-4.116c-2.232,-0.128 -12.165,-0.899 -17.65,2.453c-5.485,3.35 -21.535,20.555 -26.417,27.605c-4.882,7.051 -8.761,21.489 -8.761,21.489c-0,-0 11.62,3.31 14.664,3.485c3.044,0.174 10.53,1.009 10.53,1.009c-0,-0 7.468,4.702 13.15,5.026c5.683,0.325 0.279,2.256 10.628,-4.279c10.35,-6.534 17.018,-9.207 17.018,-9.207l-7.357,11.184c-0,-0 2.667,3.206 6.07,4.216c3.404,1.009 9.782,3.409 9.782,3.409c-0,-0 3.891,-14.64 5.543,-18.619c1.652,-3.977 3.885,-10.975 3.699,-14.854c-0.185,-3.879 -2.493,-13.377 -2.493,-13.377c-0,-0 -9.382,-13.974 -13.371,-15.424Z" style="fill:#fff;fill-rule:nonzero;stroke:#1a2e35;stroke-width:1px;"/><path d="M129.239,343.388c0.916,2.06 1.94,3.916 3.005,5.054" style="fill:none;fill-rule:nonzero;stroke:#1a2e35;stroke-width:1px;"/><path d="M125.426,332.19c0,-0 0.97,3.785 2.456,7.826" style="fill:none;fill-rule:nonzero;stroke:#1a2e35;stroke-width:1px;"/><path d="M120.095,338.341c-0,-0 4.449,9.291 9.008,13.425" style="fill:none;fill-rule:nonzero;stroke:#1a2e35;stroke-width:1px;"/><path d="M165.855,334.573l10.36,0.09l1.118,-6.605l2.991,2.764l0.474,-8.308l-0.348,-6.873l-7.163,8.667l-7.432,10.265Z" style="fill:none;fill-rule:nonzero;stroke:#1a2e35;stroke-width:1px;"/><path d="M176.65,301.927c0,-0 8.208,-6.898 12.97,-8.188c4.761,-1.291 11.113,0.857 13.001,2.974c1.888,2.117 3.58,11.591 3.65,14.274c0.069,2.682 -0.318,5.562 -2.149,6.351c-1.831,0.788 -4.419,3.096 -5.322,3.268c-0.902,0.172 -2.46,0.083 -2.46,0.083l-1.615,4.818l-4.19,-0.909c0,-0 -8.03,3.783 -9.129,3.497c-1.1,-0.286 -4.578,-5.843 -4.578,-5.843c0,-0 -1.755,7.268 -4.081,8.92c-2.327,1.653 -6.892,3.401 -6.892,3.401c0,-0 4.558,-5.543 6.243,-15.493c1.685,-9.95 4.552,-17.153 4.552,-17.153Z" style="fill:#fff;fill-rule:nonzero;stroke:#1a2e35;stroke-width:1px;"/><path d="M202.621,296.713c-1.888,-2.117 -8.24,-4.266 -13.001,-2.975c-4.763,1.29 -12.97,8.189 -12.97,8.189c0,-0 -1.132,4.177 0.413,4.488l1.545,0.312c0,-0 3.789,-3.802 5.023,-1.946c1.233,1.857 2.479,3.491 1.748,4.565c-0.731,1.075 -1.971,3.236 -1.971,3.236l1.52,0.757l3.02,-2.061l2.358,1.699l4.552,-1.527c0,-0 4.521,2.938 6.892,4.412c1.158,0.721 2.175,1.054 3.057,1.013c1.239,-1.144 1.523,-3.585 1.463,-5.889c-0.069,-2.682 -1.761,-12.156 -3.649,-14.273" style="fill:#1a2e35;fill-rule:nonzero;"/><path d="M202.621,296.713c-1.888,-2.117 -8.24,-4.266 -13.001,-2.975c-4.763,1.29 -12.97,8.189 -12.97,8.189c0,-0 -1.132,4.177 0.413,4.488l1.545,0.312c0,-0 3.789,-3.802 5.023,-1.946c1.233,1.857 2.479,3.491 1.748,4.565c-0.731,1.075 -1.971,3.236 -1.971,3.236l1.52,0.757l3.02,-2.061l2.358,1.699l4.552,-1.527c0,-0 4.521,2.938 6.892,4.412c1.158,0.721 2.175,1.054 3.057,1.013c1.239,-1.144 1.523,-3.585 1.463,-5.889c-0.069,-2.682 -1.761,-12.156 -3.649,-14.273Z" style="fill:none;fill-rule:nonzero;stroke:#1a2e35;stroke-width:1px;"/><path d="M196.141,319.388c-0,-0 -0.994,-1.595 -2.602,-1.958" style="fill:none;fill-rule:nonzero;stroke:#1a2e35;stroke-width:1px;"/><path d="M194.312,319.735l-1.308,0.739c-0,0 -0.796,-0.317 -1.18,-1.514" style="fill:none;fill-rule:nonzero;stroke:#1a2e35;stroke-width:1px;"/><path d="M186.494,322.002c0,-0 -0.237,0.981 0.598,2.205" style="fill:none;fill-rule:nonzero;stroke:#1a2e35;stroke-width:1px;"/><path d="M176.828,322.252l-0.03,-5.029" style="fill:none;fill-rule:nonzero;stroke:#1a2e35;stroke-width:1px;"/><path d="M178.608,306.727c0,-0 -1.321,1.948 -1.228,3.326c0.093,1.377 1.753,2.329 1.753,2.329" style="fill:#fff;fill-rule:nonzero;stroke:#1a2e35;stroke-width:1px;"/><path d="M177.037,300.815l-3.434,-1.493l-10.338,18.856l7.685,4.885l6.087,-22.248Z" style="fill:#fff;fill-rule:nonzero;stroke:#1a2e35;stroke-width:1px;"/><path d="M170.95,323.063l-7.442,3.835l2.347,7.675c-0,0 4.874,-7.632 5.095,-11.51Z" style="fill:none;fill-rule:nonzero;stroke:#1a2e35;stroke-width:1px;"/><path d="M120.938,315.949c0,0 -14.067,11.006 -14.971,12.583c-0.905,1.577 -11.979,31.484 -11.979,31.484c0,0 -1.856,3.966 -1.531,5.411c0.325,1.443 2.945,5.461 3.734,5.914c0.789,0.452 4.273,0.04 5.584,-1.514c1.31,-1.554 2.679,-4.122 2.603,-6.366c-0.075,-2.244 -1.38,-4.355 -1.38,-4.355l-0.075,-2.244l17.493,-24.654l8.373,-4.001l-7.851,-12.258Z" style="fill:#fff;fill-rule:nonzero;stroke:#1a2e35;stroke-width:1px;"/><path d="M151.049,298.531c-0.001,0 -8.298,-0.881 -13.546,1.873c-5.247,2.754 -17.975,15.261 -17.975,15.261c0,0 1.085,5.967 3.166,8.732c2.082,2.766 7.126,7.126 7.126,7.126c0,0 17.343,-7.763 21.941,-13.405" style="fill:#fff;fill-rule:nonzero;stroke:#1a2e35;stroke-width:1px;"/><path d="M97.603,371.154c0.861,0.571 2.824,1.568 6.754,2.289c4.42,0.811 7.183,0.987 8.834,1.094c0.378,0.023 0.696,0.044 0.971,0.067l1.092,-2.097c-0.489,-1.159 -1.848,-4.314 -3.126,-6.701c-1.419,-2.652 -4.723,-5.52 -6.442,-6.279l-8.083,11.627Zm17.095,5.638c-0.05,-0.003 -0.099,-0.01 -0.149,-0.02c-0.282,-0.056 -0.816,-0.091 -1.492,-0.134c-1.698,-0.109 -4.538,-0.29 -9.079,-1.124c-6.701,-1.229 -8.447,-3.303 -8.625,-3.536c-0.276,-0.363 -0.287,-0.864 -0.026,-1.239l9.064,-13.038c0.227,-0.326 0.617,-0.497 1.012,-0.442c2.341,0.332 6.833,4.284 8.583,7.553c1.636,3.057 3.332,7.168 3.403,7.342c0.119,0.287 0.104,0.611 -0.039,0.887l-1.658,3.185c-0.193,0.372 -0.586,0.589 -0.994,0.566" style="fill:#1a2e35;fill-rule:nonzero;"/><path d="M114.757,375.74l69.977,49.927c0,0 12.617,5.969 11.402,4.26c-1.214,-1.709 -8.254,-7.689 -9.044,-8.226c-0.789,-0.537 -70.677,-49.147 -70.677,-49.147l-1.658,3.186Z" style="fill:#fff;fill-rule:nonzero;stroke:#1a2e35;stroke-width:1px;"/><path d="M175.471,419.059l9.262,6.608c0,-0 12.617,5.97 11.403,4.26c-1.215,-1.709 -8.254,-7.688 -9.044,-8.225c-0.173,-0.119 -3.684,-2.558 -9.054,-6.291l-2.567,3.648Z" style="fill:#afafaf;fill-rule:nonzero;stroke:#1a2e35;stroke-width:1px;"/><path d="M162.32,410.28c0,0 0.36,2.316 2.574,3.755c2.214,1.439 3.943,-0.103 3.943,-0.103l-6.517,-3.652Z" style="fill:#fff;fill-rule:nonzero;stroke:#1a2e35;stroke-width:1px;"/><path d="M166.911,393.766l9.636,-31.792c-2.121,-0.769 -4.915,-1.752 -6.799,-2.311c-2.08,-0.617 -3.881,-2.052 -4.971,-3.077c-1.177,4.076 -4.13,14.467 -4.248,16.527c-0.147,2.574 0.2,22.328 0.2,22.328c0,-0 -1.497,3.603 -1.182,4.544c0.315,0.94 1.529,2.301 1.529,2.301c0,-0 -0.137,2.389 -0.578,3.655c-0.441,1.266 -0.211,3.677 0.935,3.005c1.145,-0.673 3.447,-2.938 3.447,-2.938l6.203,4.412c0,-0 -1.735,-7.662 -2.15,-10.084c-0.415,-2.421 -2.022,-6.57 -2.022,-6.57Z" style="fill:#fff;fill-rule:nonzero;stroke:#1a2e35;stroke-width:1px;"/><path d="M98.565,365.224c0,-0 0.921,5.377 1.858,5.703c0.937,0.327 3.46,1.564 3.153,-0.229l-0.307,-1.792c0,-0 1.814,-3.814 1.109,-5.445c-0.705,-1.631 -2.283,-2.676 -2.283,-2.676" style="fill:#fff;fill-rule:nonzero;stroke:#1a2e35;stroke-width:1px;"/></svg>